<svg width="444" height="280" viewBox="0 0 444 280" fill="none" xmlns="http://www.w3.org/2000/svg">
<path d="M376.353 190.334V185.282H65.9863V196.649H73.8013V220.644H80.4999V239.587H97.2462V247.165H102.828V266.108H115.109V258.531H111.76V243.376H124.04V250.953H132.972V243.376H145.253V256.005H163.115V266.108H172.047V258.531H183.211V266.108H203.307V262.319H208.889V266.108H235.683V256.005H244.614V266.108H253.546V274.948H265.826V280H272.525V269.897H282.573V243.376H301.552L302.669 250.953H311.6V269.897H322.764V262.319H331.696V266.108H337.278V256.005H331.696V247.165H358.49V239.587H368.538V220.644H378.585V196.649H387.517V190.334H376.353Z" fill="#151312"/>
<path d="M86.8044 189.008V185.282H370.539V193.664H363.394V211.359H357.27V225.328H341.961V230.916H336.858V244.886H325.631V239.298H328.693V228.122H317.466V233.71H309.301V228.122H298.074V237.435H281.744V244.886H273.579V239.298H263.373V244.886H245.002V242.092H239.898V244.886H215.403V237.435H207.238V244.886H199.073V251.405H187.846V255.13H181.723V247.68H172.537V228.122H155.186L154.166 233.71H146.001V247.68H135.794V242.092H127.629V244.886H122.526V237.435H127.629V230.916H103.134V225.328H93.9488V211.359H84.7632V193.664H76.5981V189.008H86.8044Z" fill="#1D1A18"/>
<path d="M424.263 187.399V185.282H15.0509V190.045H25.3548V200.099H34.1867V208.036H56.2665V211.211H63.6265V219.148H79.8183V215.973H75.4024V209.623H91.5942V212.798H103.37V209.623H119.562V214.915H143.114V219.148H154.89V215.973H169.61V219.148H196.105V217.561H203.465V219.148H238.793V214.915H250.569V219.148H262.345V222.852H278.537V224.969H287.368V220.735H300.616V209.623H325.64L327.112 212.798H338.888V220.735H353.608V217.561H365.384V219.148H372.744V214.915H365.384V211.211H400.711V208.036H413.959V200.099H427.207V190.045H438.983V187.399H424.263Z" fill="#152525"/>
<path d="M377.107 155.194V148H17.3668V158.072H7.44291V168.145H0V215.628H4.96194H11.1644V204.117H24.8097V221.384H32.2526V195.483H59.5433V204.117H80.6315V195.483H91.7959V215.628H100.479V208.434H110.403V221.384H119.087V208.434H127.77V195.483H142.656V204.117H152.58V195.483H172.427V204.117H182.351V221.384H191.035V204.117H198.478V198.361H217.085V188.289H227.009V195.483H239.414V215.628H250.578V198.361H270.426V204.117H285.311V211.311H295.235V204.117H306.4V195.483H331.209V181.095H349.817V171.022H343.614V155.194H377.107Z" fill="#38A3A5"/>
<path d="M372.09 154.132V148H22.7193V156.584H13.0815V165.169H5.85315V205.637H10.6721H16.6957V195.827H29.9477V210.543H37.1761V188.469H63.6801V195.827H84.1605V188.469H95.003V205.637H103.436V199.506H113.074V210.543H121.507V199.506H129.94V188.469H144.397V195.827H154.035V188.469H173.31V195.827H182.948V210.543H191.381V195.827H198.61V190.922H216.681V182.337H226.318V188.469H238.366V205.637H249.208V190.922H268.484V195.827H282.941V201.959H292.578V195.827H303.421V188.469H327.516V176.206H345.586V167.621H339.563V154.132H372.09Z" fill="#57CC99"/>
<path d="M415.571 151.761V148H24.7217V153.265H13.9397V158.53H5.85315V183.351H11.2442H17.9829V177.334H32.8083V186.36H40.8948V172.821H70.5454V177.334H93.4572V172.821H105.587V183.351H115.021V179.59H125.803V186.36H135.238V179.59H144.672V172.821H160.845V177.334H171.627V172.821H193.191V177.334H203.973V186.36H213.407V177.334H221.494V174.325H241.71V169.06H252.492V172.821H265.97V183.351H278.1V174.325H299.664V177.334H315.837V181.095H326.619V177.334H338.749V172.821H365.704V165.299H385.92V160.034H379.181V151.761H415.571Z" fill="#80ED99"/>
<path d="M101.037 155.194V148H428.206V158.072H437.231V168.145H444V215.628H439.487H433.846V204.117H421.437V221.384H414.668V195.483H389.848V204.117H370.669V195.483H360.516V215.628H352.618V208.434H343.593V221.384H335.696V208.434H327.799V195.483H314.261V204.117H305.235V195.483H287.185V204.117H278.159V221.384H270.262V204.117H263.493V198.361H246.571V188.289H237.545V195.483H226.264V215.628H216.11V198.361H198.06V204.117H184.522V211.311H175.496V204.117H165.343V195.483H142.779V181.095H125.857V171.022H131.498V155.194H101.037Z" fill="#38A3A5"/>
<path d="M91.1412 154.132V148H422.964V156.584H432.118V165.169H438.983V205.637H434.406H428.685V195.827H416.099V210.543H409.233V188.469H384.061V195.827H364.609V188.469H354.311V205.637H346.302V199.506H337.148V210.543H329.138V199.506H321.129V188.469H307.398V195.827H298.244V188.469H279.937V195.827H270.783V210.543H262.774V195.827H255.908V190.922H238.745V182.337H229.591V188.469H218.149V205.637H207.851V190.922H189.544V195.827H175.813V201.959H166.66V195.827H156.362V188.469H133.477V176.206H116.314V167.621H122.035V154.132H91.1412Z" fill="#57CC99"/>
<path d="M38.4633 151.761V148H420.538V153.265H431.078V158.53H438.983V183.351H433.713H427.126V177.334H412.633V186.36H404.728V172.821H375.743V177.334H353.346V172.821H341.488V183.351H332.266V179.59H321.726V186.36H312.503V179.59H303.281V172.821H287.471V177.334H276.931V172.821H255.851V177.334H245.311V186.36H236.088V177.334H228.183V174.325H208.421V169.06H197.881V172.821H184.706V183.351H172.848V174.325H151.768V177.334H135.958V181.095H125.418V177.334H113.561V172.821H87.2107V165.299H67.4482V160.034H74.0357V151.761H38.4633Z" fill="#80ED99"/>
<path d="M295.357 29H272.857V34.1429H260.643V39.9286H254.857V69.5H260.643V74.6429H301.143H306.929V69.5H312.714V39.9286H306.929V34.1429H295.357V29Z" fill="#E35F14"/>
<path d="M266.548 44.8V39H299.836V44.8H306V62.2H299.836V68H266.548V62.2H261V44.8H266.548Z" fill="#2C3954"/>
<rect x="271" y="44" width="5" height="5" fill="white"/>
<rect x="276" y="44" width="5" height="5" fill="#7F92A2"/>
<rect x="271" y="49" width="5" height="5" fill="white"/>
<rect x="271" y="54" width="5" height="5" fill="#7F92A2"/>
<rect x="271" y="59" width="5" height="5" fill="#5B6780"/>
<path d="M283 148V140H301V148H283Z" fill="#FFC451"/>
<path d="M260 148V140H278V148H260Z" fill="#FFC451"/>
<path d="M261 78L307 78.0336V84H319V112H307V95H301L301.001 140H289V117H278V140H266.013V94.8803L258 95V112H246V84H258V78H261Z" fill="#E35F14"/>
<path d="M266 78V74H283.5H301V78H266Z" fill="#FFC451"/>
<path d="M307 120V112H319V120H307Z" fill="#FFC451"/>
<path d="M246 120V112H258V120H246Z" fill="#FFC451"/>
<rect x="297" y="78" width="5" height="5" fill="#C04611"/>
<rect x="258" y="78" width="5" height="5" fill="#C04611"/>
<rect x="297" y="83" width="5" height="5" fill="#C04611"/>
<rect x="292" y="83" width="5" height="5" fill="white"/>
<rect x="287" y="83" width="5" height="5" fill="white"/>
<rect x="287" y="88" width="5" height="5" fill="#C04611"/>
<rect x="282" y="88" width="5" height="5" fill="white"/>
<rect x="282" y="93" width="5" height="5" fill="#C04611"/>
<rect x="314" y="89" width="5" height="5" fill="#C04611"/>
<rect x="246" y="89" width="5" height="5" fill="#C04611"/>
<rect x="302" y="78" width="5" height="5" fill="#C04611"/>
<rect x="314" y="84" width="5" height="5" fill="white"/>
<rect x="246" y="84" width="5" height="5" fill="white"/>
<rect x="263" y="78" width="5" height="5" fill="#C04611"/>
<rect width="4.93333" height="4.93333" transform="matrix(-1 0 0 1 189.133 0)" fill="#80ED99"/>
<rect width="4.93333" height="4.93333" transform="matrix(-1 0 0 1 189.133 4.93335)" fill="#57CC99"/>
<rect width="4.93333" height="9.86667" transform="matrix(-1 0 0 1 194.067 9.8667)" fill="#57CC99"/>
<rect width="4.93333" height="9.86667" transform="matrix(-1 0 0 1 199 19.7333)" fill="#57CC99"/>
<rect width="4.93333" height="9.86667" transform="matrix(-1 0 0 1 203.933 34.5333)" fill="#57CC99"/>
<rect width="4.93333" height="9.86667" transform="matrix(-1 0 0 1 203.933 44.4)" fill="#2F8385"/>
<rect width="4.93333" height="29.6" transform="matrix(-1 0 0 1 213.8 54.2667)" fill="#57CC99"/>
<rect width="4.93333" height="4.93333" transform="matrix(-1 0 0 1 208.867 44.4)" fill="#57CC99"/>
<path d="M203.933 74.0001H208.867V93.7334H203.933V103.703H199V113.57H194.067V124.978H189.339V133.303V138.133H154.6V125.8H149.667V113.467H144.733V99.2834H149.667L149.769 106.786H157.272V102.161H152.956V92.8084H149.667V78.1112H154.189V74.0001H149.667V59.0973H160.253V64.1334H165.083V59.3028H174.642V54.2667H179.061V59.3028L184.2 59.2001V64.1334V76.6723H189.133V82.6334H193.964V74.0001H189.133V68.3473H193.964V64.1334H189.133V59.2001H193.964H199V64.1334H203.933V74.0001Z" fill="#2F8385"/>
<rect width="4.93333" height="4.93333" transform="matrix(-1 0 0 1 149.667 19.7333)" fill="#57CC99"/>
<rect width="4.93333" height="14.8" transform="matrix(-1 0 0 1 144.733 29.6)" fill="#57CC99"/>
<rect width="4.93333" height="36.3833" transform="matrix(-1 0 0 1 149.667 54.2667)" fill="#57CC99"/>
<rect width="4.93333" height="14.8" transform="matrix(-1 0 0 1 134.867 54.2667)" fill="#57CC99"/>
<rect width="4.93333" height="19.7333" transform="matrix(-1 0 0 1 134.867 74)" fill="#57CC99"/>
<rect width="4.93333" height="19.7333" transform="matrix(-1 0 0 1 139.8 83.8667)" fill="#57CC99"/>
<rect width="4.93333" height="19.7333" transform="matrix(-1 0 0 1 144.733 98.6666)" fill="#57CC99"/>
<rect width="4.93333" height="12.3333" transform="matrix(-1 0 0 1 149.667 113.467)" fill="#57CC99"/>
<rect width="4.93333" height="12.3333" transform="matrix(-1 0 0 1 154.6 125.8)" fill="#57CC99"/>
<rect width="4.93333" height="8.22222" transform="matrix(-1 0 0 1 194.272 124.978)" fill="#57CC99"/>
<rect width="4.93333" height="29.8056" transform="matrix(4.37114e-08 1 1 -4.37114e-08 154.6 138.133)" fill="#57CC99"/>
<rect width="4.93333" height="4.93333" transform="matrix(-1 0 0 1 149.667 24.6666)" fill="white"/>
<rect width="4.93333" height="4.93333" transform="matrix(-1 0 0 1 139.8 44.4)" fill="white"/>
<rect width="4.93333" height="4.93333" transform="matrix(-1 0 0 1 134.867 69.0667)" fill="white"/>
<rect width="4.93333" height="4.93333" transform="matrix(-1 0 0 1 154.6 74)" fill="#57CC99"/>
<rect width="4.93333" height="4.93333" transform="matrix(-1 0 0 1 159.533 102.161)" fill="#57CC99"/>
<rect width="4.93333" height="4.93333" transform="matrix(-1 0 0 1 189.339 138.133)" fill="white"/>
<rect width="4.93333" height="4.93333" transform="matrix(-1 0 0 1 140.828 49.3334)" fill="#57CC99"/>
<rect width="4.93333" height="9.86667" transform="matrix(-1 0 0 1 154.6 9.8667)" fill="#57CC99"/>
<rect width="24.6667" height="4.93333" transform="matrix(-1 0 0 1 179.267 4.93335)" fill="#57CC99"/>
<rect width="4.93333" height="4.93333" transform="matrix(-1 0 0 1 184.2 4.93335)" fill="white"/>
<rect width="4.93333" height="4.93333" transform="matrix(-1 0 0 1 203.933 29.6)" fill="white"/>
<rect width="4.93333" height="4.93333" transform="matrix(-1 0 0 1 194.067 39.4667)" fill="#57CC99"/>
<rect width="4.93333" height="4.93333" transform="matrix(-1 0 0 1 203.933 54.2667)" fill="#57CC99"/>
<rect width="4.93333" height="4.93333" transform="matrix(-1 0 0 1 203.933 59.2001)" fill="#57CC99"/>
<rect width="4.93333" height="9.86667" transform="matrix(-1 0 0 1 199 49.3334)" fill="#57CC99"/>
<rect width="4.93333" height="17.4722" transform="matrix(-1 0 0 1 189.133 59.2001)" fill="#57CC99"/>
<rect width="4.93333" height="8.63333" transform="matrix(-1 0 0 1 194.067 74)" fill="#57CC99"/>
<rect width="4.93333" height="16.4444" transform="matrix(-1 0 0 1 154.6 90.65)" fill="#57CC99"/>
<rect width="4.93333" height="8.63333" transform="matrix(-1 0 0 1 149.667 90.65)" fill="#80ED99"/>
<rect width="4.93333" height="24.05" transform="matrix(-1 0 0 1 170.222 71.5333)" fill="#57CC99"/>
<rect width="4.93333" height="9.86667" transform="matrix(-1 0 0 1 174.333 90.65)" fill="#57CC99"/>
<rect width="4.93333" height="9.25" transform="matrix(-1 0 0 1 179.267 86.3334)" fill="#57CC99"/>
<rect width="4.93333" height="9.25" transform="matrix(-1 0 0 1 170.222 110.383)" fill="#57CC99"/>
<rect width="4.93333" height="4.93333" transform="matrix(-1 0 0 1 189.133 34.5333)" fill="#57CC99"/>
<rect width="4.93333" height="4.93333" transform="matrix(-1 0 0 1 179.267 34.5333)" fill="#57CC99"/>
<rect width="4.93333" height="4.93333" transform="matrix(-1 0 0 1 169.4 34.5333)" fill="#57CC99"/>
<rect width="4.93333" height="4.93333" transform="matrix(-1 0 0 1 159.533 34.5333)" fill="#57CC99"/>
<rect width="4.93333" height="4.93333" transform="matrix(-1 0 0 1 144.733 44.4)" fill="#57CC99"/>
<rect width="4.93333" height="4.93333" transform="matrix(-1 0 0 1 154.6 44.4)" fill="#57CC99"/>
<rect width="4.93333" height="4.93333" transform="matrix(-1 0 0 1 139.8 49.3334)" fill="#57CC99"/>
<rect width="4.93333" height="4.93333" transform="matrix(-1 0 0 1 179.267 110.178)" fill="#57CC99"/>
<rect width="4.93333" height="4.93333" transform="matrix(-1 0 0 1 179.267 119.633)" fill="#57CC99"/>
<rect width="4.93333" height="4.93333" transform="matrix(-1 0 0 1 184.2 114.7)" fill="#57CC99"/>
<rect width="4.93333" height="4.93333" transform="matrix(-1 0 0 1 194.067 90.65)" fill="#57CC99"/>
<rect width="4.93333" height="4.93333" transform="matrix(-1 0 0 1 203.317 75.85)" fill="#57CC99"/>
<rect width="4.93333" height="4.93333" transform="matrix(-1 0 0 1 184.2 59.2001)" fill="#57CC99"/>
<rect width="4.93333" height="4.93333" transform="matrix(-1 0 0 1 174.333 59.2001)" fill="#57CC99"/>
<rect width="4.93333" height="4.93333" transform="matrix(-1 0 0 1 169.4 59.2001)" fill="#57CC99"/>
<rect width="4.93333" height="4.93333" transform="matrix(-1 0 0 1 164.467 59.2001)" fill="#57CC99"/>
<rect width="9.86667" height="4.93333" transform="matrix(-1 0 0 1 159.533 39.4667)" fill="#57CC99"/>
<rect width="4.93333" height="4.93333" transform="matrix(-1 0 0 1 154.6 34.5333)" fill="#80ED99"/>
<rect width="4.93333" height="4.93333" transform="matrix(-1 0 0 1 149.667 34.5333)" fill="#80ED99"/>
<rect width="4.93333" height="4.93333" transform="matrix(-1 0 0 1 184.2 34.5333)" fill="#2F8385"/>
<rect width="4.93333" height="4.93333" transform="matrix(-1 0 0 1 174.333 34.5333)" fill="#2F8385"/>
<rect width="4.93333" height="4.93333" transform="matrix(-1 0 0 1 164.467 34.5333)" fill="#2F8385"/>
<rect width="4.93333" height="4.93333" transform="matrix(-1 0 0 1 149.667 39.4667)" fill="#2F8385"/>
<rect width="4.93333" height="4.93333" transform="matrix(-1 0 0 1 144.733 49.3334)" fill="#2F8385"/>
<rect width="4.93333" height="24.6667" transform="matrix(-1 0 0 1 139.8 59.2001)" fill="#2F8385"/>
<rect width="4.93333" height="15.4167" transform="matrix(-1 0 0 1 144.733 83.8667)" fill="#2F8385"/>
<rect width="9.86667" height="4.93333" transform="matrix(-1 0 0 1 144.733 54.2667)" fill="#2F8385"/>
<rect width="4.93333" height="4.93333" transform="matrix(-1 0 0 1 208.867 49.3334)" fill="white"/>
<rect width="4.93333" height="4.93333" transform="matrix(-1 0 0 1 208.867 69.0667)" fill="white"/>
<rect width="4.93333" height="4.93333" transform="matrix(-1 0 0 1 194.067 64.1333)" fill="white"/>
<rect width="4.93333" height="4.93333" transform="matrix(-1 0 0 1 165.289 133.2)" fill="white"/>
<rect width="4.93333" height="4.93333" transform="matrix(-1 0 0 1 159.533 125.8)" fill="white"/>
<rect width="4.93333" height="4.93333" transform="matrix(-1 0 0 1 199 108.533)" fill="white"/>
<rect width="4.93333" height="4.93333" transform="matrix(-1 0 0 1 213.8 83.8667)" fill="white"/>
<rect width="4.93333" height="4.93333" transform="matrix(-1 0 0 1 213.8 88.7999)" fill="#57CC99"/>
<rect width="4.93333" height="9.86667" transform="matrix(-1 0 0 1 208.867 93.7333)" fill="#57CC99"/>
<rect width="4.93333" height="9.86667" transform="matrix(-1 0 0 1 203.933 103.6)" fill="#57CC99"/>
<rect width="4.93333" height="4.93333" transform="matrix(-1 0 0 1 154.6 4.93335)" fill="#80ED99"/>
<rect width="4.93333" height="4.93333" transform="matrix(-1 0 0 1 149.667 9.8667)" fill="#80ED99"/>
<rect width="4.93333" height="4.93333" transform="matrix(-1 0 0 1 149.667 14.7999)" fill="#80ED99"/>
<rect width="4.93333" height="4.93333" transform="matrix(-1 0 0 1 144.733 19.7333)" fill="#80ED99"/>
<rect width="4.93333" height="4.93333" transform="matrix(-1 0 0 1 144.733 24.6666)" fill="#80ED99"/>
<rect width="4.93333" height="4.93333" transform="matrix(-1 0 0 1 139.8 29.6)" fill="#80ED99"/>
<rect width="4.93333" height="4.93333" transform="matrix(-1 0 0 1 139.8 34.5333)" fill="#80ED99"/>
<rect width="4.93333" height="4.93333" transform="matrix(-1 0 0 1 139.8 39.4667)" fill="#80ED99"/>
<rect width="4.93333" height="4.93333" transform="matrix(-1 0 0 1 134.867 44.4)" fill="#80ED99"/>
<rect width="4.93333" height="4.93333" transform="matrix(-1 0 0 1 134.867 49.3334)" fill="#80ED99"/>
<rect width="4.93333" height="4.93333" transform="matrix(-1 0 0 1 129.933 54.2667)" fill="#80ED99"/>
<rect width="4.93333" height="4.93333" transform="matrix(-1 0 0 1 134.867 93.7333)" fill="#80ED99"/>
<rect width="4.93333" height="4.93333" transform="matrix(-1 0 0 1 134.867 98.6666)" fill="#80ED99"/>
<rect width="4.93333" height="4.93333" transform="matrix(-1 0 0 1 139.8 103.6)" fill="#80ED99"/>
<rect width="4.93333" height="4.93333" transform="matrix(-1 0 0 1 139.8 108.533)" fill="#80ED99"/>
<rect width="4.93333" height="4.93333" transform="matrix(-1 0 0 1 139.8 113.467)" fill="#80ED99"/>
<rect width="4.93333" height="4.93333" transform="matrix(-1 0 0 1 144.733 118.4)" fill="#80ED99"/>
<rect width="4.93333" height="4.93333" transform="matrix(-1 0 0 1 144.733 123.333)" fill="#80ED99"/>
<rect width="4.93333" height="7.4" transform="matrix(-1 0 0 1 149.667 125.8)" fill="#80ED99"/>
<rect width="4.93333" height="4.93333" transform="matrix(-1 0 0 1 149.667 133.2)" fill="#80ED99"/>
<rect width="4.93333" height="4.93333" transform="matrix(-1 0 0 1 154.6 138.133)" fill="#80ED99"/>
<rect width="34.7389" height="4.93333" transform="matrix(-1 0 0 1 189.339 143.067)" fill="#80ED99"/>
<rect width="4.93333" height="34.5333" transform="matrix(-1 0 0 1 129.933 59.2001)" fill="#80ED99"/>
<rect width="4.93333" height="16.0333" transform="matrix(-1 0 0 1 189.133 103.6)" fill="#80ED99"/>
<rect width="4.93333" height="17.8833" transform="matrix(-1 0 0 1 194.067 95.5834)" fill="#80ED99"/>
<rect width="4.93333" height="12.95" transform="matrix(-1 0 0 1 199 82.6333)" fill="#80ED99"/>
<rect width="4.93333" height="16.0333" transform="matrix(-1 0 0 1 165.289 79.5499)" fill="#80ED99"/>
<rect width="4.93333" height="24.6667" transform="matrix(-1 0 0 1 144.733 59.2001)" fill="#80ED99"/>
<rect width="4.93333" height="4.93333" transform="matrix(-1 0 0 1 194.067 4.93335)" fill="#80ED99"/>
<rect width="9.86667" height="4.93333" transform="matrix(-1 0 0 1 189.133 24.6666)" fill="#80ED99"/>
<rect width="9.86667" height="4.93333" transform="matrix(-1 0 0 1 189.133 29.6)" fill="#57CC99"/>
<rect width="14.8" height="4.93333" transform="matrix(-1 0 0 1 179.267 29.6)" fill="#2F8385"/>
<rect width="9.86667" height="4.93333" transform="matrix(-1 0 0 1 164.467 29.6)" fill="#57CC99"/>
<rect width="9.86667" height="4.93333" transform="matrix(-1 0 0 1 154.6 29.6)" fill="#38A3A5"/>
<rect width="4.93333" height="9.86667" transform="matrix(-1 0 0 1 194.067 29.6)" fill="#80ED99"/>
<rect width="19.7333" height="4.93333" transform="matrix(-1 0 0 1 179.267 24.6666)" fill="#57CC99"/>
<rect width="4.93333" height="4.93333" transform="matrix(-1 0 0 1 199 9.8667)" fill="#80ED99"/>
<rect width="4.93333" height="4.93333" transform="matrix(-1 0 0 1 199 14.7999)" fill="#80ED99"/>
<rect width="4.93333" height="4.93333" transform="matrix(-1 0 0 1 203.933 19.7333)" fill="#80ED99"/>
<rect width="4.93333" height="4.93333" transform="matrix(-1 0 0 1 203.933 24.6666)" fill="#80ED99"/>
<rect width="4.93333" height="4.93333" transform="matrix(-1 0 0 1 208.867 29.6)" fill="#80ED99"/>
<rect width="4.93333" height="4.93333" transform="matrix(-1 0 0 1 208.867 34.5333)" fill="#80ED99"/>
<rect width="4.93333" height="4.93333" transform="matrix(-1 0 0 1 208.867 39.4667)" fill="#80ED99"/>
<rect width="4.93333" height="4.93333" transform="matrix(-1 0 0 1 213.8 44.4)" fill="#80ED99"/>
<rect width="4.93333" height="4.93333" transform="matrix(-1 0 0 1 213.8 49.3334)" fill="#80ED99"/>
<rect width="4.93333" height="4.93333" transform="matrix(-1 0 0 1 149.667 44.4)" fill="#80ED99"/>
<rect width="4.93333" height="4.93333" transform="matrix(-1 0 0 1 149.667 49.3334)" fill="#80ED99"/>
<rect width="4.93333" height="4.93333" transform="matrix(-1 0 0 1 218.733 54.2667)" fill="#80ED99"/>
<rect width="4.93333" height="4.93333" transform="matrix(-1 0 0 1 218.733 59.2001)" fill="#80ED99"/>
<rect width="4.93333" height="4.93333" transform="matrix(-1 0 0 1 218.733 64.1333)" fill="#80ED99"/>
<rect width="4.93333" height="4.93333" transform="matrix(-1 0 0 1 218.733 69.0667)" fill="#80ED99"/>
<rect width="4.93333" height="4.93333" transform="matrix(-1 0 0 1 218.733 74)" fill="#80ED99"/>
<rect width="4.93333" height="4.93333" transform="matrix(-1 0 0 1 218.733 78.9333)" fill="#80ED99"/>
<rect width="4.93333" height="4.93333" transform="matrix(-1 0 0 1 218.733 83.8667)" fill="#80ED99"/>
<rect width="4.93333" height="4.93333" transform="matrix(-1 0 0 1 218.733 88.7999)" fill="#80ED99"/>
<rect width="4.93333" height="4.93333" transform="matrix(-1 0 0 1 213.8 93.7333)" fill="#80ED99"/>
<rect width="4.93333" height="4.93333" transform="matrix(-1 0 0 1 213.8 98.6666)" fill="#80ED99"/>
<rect width="4.93333" height="4.93333" transform="matrix(-1 0 0 1 208.867 103.6)" fill="#80ED99"/>
<rect width="4.93333" height="4.93333" transform="matrix(-1 0 0 1 208.867 108.533)" fill="#80ED99"/>
<rect width="4.93333" height="4.93333" transform="matrix(-1 0 0 1 203.933 113.467)" fill="#80ED99"/>
<rect width="4.93333" height="4.93333" transform="matrix(-1 0 0 1 199 113.467)" fill="#57CC99"/>
<rect width="4.93333" height="4.93333" transform="matrix(-1 0 0 1 199 118.4)" fill="#80ED99"/>
<rect width="4.93333" height="4.93333" transform="matrix(-1 0 0 1 199 123.333)" fill="#80ED99"/>
<rect width="4.93333" height="4.93333" transform="matrix(-1 0 0 1 199 128.267)" fill="#80ED99"/>
<rect width="4.93333" height="4.93333" transform="matrix(-1 0 0 1 194.272 133.2)" fill="#80ED99"/>
<rect width="4.93333" height="4.93333" transform="matrix(-1 0 0 1 194.272 138.133)" fill="#80ED99"/>
<rect width="29.6" height="4.93333" transform="matrix(-1 0 0 1 184.2 0)" fill="#80ED99"/>
<rect width="34.5333" height="4.93333" transform="matrix(-1 0 0 1 189.133 9.8667)" fill="#38A3A5"/>
<rect width="34.5333" height="4.93333" transform="matrix(-1 0 0 1 189.133 14.7999)" fill="#38A3A5"/>
<rect width="14.8" height="4.93333" transform="matrix(-1 0 0 1 194.067 19.7333)" fill="#38A3A5"/>
<rect width="39.4667" height="4.93333" transform="matrix(-1 0 0 1 194.067 44.4)" fill="#2F8385"/>
<rect width="9.86667" height="4.93333" transform="matrix(-1 0 0 1 194.067 49.3334)" fill="#2F8385"/>
<rect width="19.7333" height="4.93333" transform="matrix(-1 0 0 1 169.4 49.3334)" fill="#2F8385"/>
<rect width="14.8" height="4.93333" transform="matrix(-1 0 0 1 164.467 54.2667)" fill="#2F8385"/>
<rect width="14.8" height="4.93333" transform="matrix(-1 0 0 1 184.2 49.3334)" fill="#80ED99"/>
<rect width="14.8" height="4.93333" transform="matrix(-1 0 0 1 184.2 54.2667)" fill="#57CC99"/>
<rect width="29.6" height="4.93333" transform="matrix(-1 0 0 1 189.133 39.4667)" fill="#2F8385"/>
<rect width="4.93333" height="4.93333" transform="matrix(-1 0 0 1 194.067 24.6666)" fill="#38A3A5"/>
<rect width="4.93333" height="19.7333" transform="matrix(-1 0 0 1 199 29.6)" fill="#38A3A5"/>
<rect width="4.93333" height="14.8" transform="matrix(-1 0 0 1 208.867 54.2667)" fill="#38A3A5"/>
<rect width="4.93333" height="4.93333" transform="matrix(-1 0 0 1 194.067 54.2667)" fill="#38A3A5"/>
<rect width="4.93333" height="4.93333" transform="matrix(-1 0 0 1 189.133 54.2667)" fill="#80ED99"/>
<rect width="4.93333" height="4.93333" transform="matrix(-1 0 0 1 184.2 90.65)" fill="#80ED99"/>
<rect width="4.93333" height="4.93333" transform="matrix(-1 0 0 1 179.267 95.5834)" fill="#80ED99"/>
<rect width="4.93333" height="4.93333" transform="matrix(-1 0 0 1 169.4 95.5834)" fill="#80ED99"/>
<rect width="4.93333" height="4.93333" transform="matrix(-1 0 0 1 165.289 110.178)" fill="#80ED99"/>
<rect width="9.04445" height="4.93333" transform="matrix(-1 0 0 1 174.333 119.633)" fill="#80ED99"/>
<rect width="4.93333" height="4.93333" transform="matrix(-1 0 0 1 169.4 54.2667)" fill="#80ED99"/>
<rect width="9.86667" height="4.93333" transform="matrix(-1 0 0 1 159.533 19.7333)" fill="#38A3A5"/>
<rect width="4.93333" height="4.93333" transform="matrix(-1 0 0 1 164.467 14.7999)" fill="white"/>
<rect width="4.93333" height="4.93333" transform="matrix(-1 0 0 1 159.533 24.6666)" fill="#98F591"/>
<rect width="4.93333" height="4.93333" transform="matrix(-1 0 0 1 154.6 24.6666)" fill="#2F8385"/>
<rect width="19.7333" height="4.93333" transform="matrix(-1 0 0 1 179.267 19.7333)" fill="#80ED99"/>
</svg>
