<svg width="54" height="54" viewBox="0 0 54 54" fill="none" xmlns="http://www.w3.org/2000/svg">
<path d="M25.5789 0H28.421V3H25.5789V0Z" fill="#FFD71D"/>
<path d="M45.4736 21H51.1578V24H45.4736V21Z" fill="#FFD71D"/>
<path d="M45.4736 45H48.3157V51H45.4736V45Z" fill="#FFD71D"/>
<path d="M5.68415 51H11.3684V54H5.68415V51Z" fill="#FFD71D"/>
<path d="M11.3684 48H14.2105V51H11.3684V48Z" fill="#FFD71D"/>
<path d="M42.6315 51H48.3157V54H42.6315V51Z" fill="#FFD71D"/>
<path d="M39.7894 48H42.6315V51H39.7894V48Z" fill="#FFD71D"/>
<path d="M2.84204 21H8.52625V24H2.84204V21Z" fill="#FFD71D"/>
<path d="M5.68415 45H8.52625V51H5.68415V45Z" fill="#FFD71D"/>
<path d="M14.2105 45H19.8947V48H14.2105V45Z" fill="#FFD71D"/>
<path d="M34.1052 45H39.7894V48H34.1052V45Z" fill="#FFD71D"/>
<path d="M19.8947 42H25.5789V45H19.8947V42Z" fill="#FFD71D"/>
<path d="M31.2631 42H34.1052V45H31.2631V42Z" fill="#FFD71D"/>
<path d="M25.5789 39H31.2631V42H25.5789V39Z" fill="#FFD71D"/>
<path d="M28.421 3H31.2631V9H28.421V3Z" fill="#FFD71D"/>
<path d="M31.2631 9H34.1052V18H31.2631V9Z" fill="#FFD71D"/>
<path d="M39.7894 33H42.6315V39H39.7894V33Z" fill="#FFD71D"/>
<path d="M42.6315 39H45.4736V45H42.6315V39Z" fill="#FFD71D"/>
<path d="M22.7368 3H25.5789V9H22.7368V3Z" fill="#FFD71D"/>
<path d="M19.8947 9H22.7368V18H19.8947V9Z" fill="#FFD71D"/>
<path d="M11.3684 33H14.2105V39H11.3684V33Z" fill="#FFD71D"/>
<path d="M8.52625 39H11.3684V45H8.52625V39Z" fill="#FFD71D"/>
<path d="M8.52625 18H19.8947V21H8.52625V18Z" fill="#FFD71D"/>
<path d="M34.1052 18H45.4736V21H34.1052V18Z" fill="#FFD71D"/>
<path d="M28.421 3H25.5789V9H22.7368V18H19.8947V21H8.52625V24H2.84204V27H5.68415V30H11.3684V33H14.2105V39H11.3684V45H8.52625V51H11.3684V48H14.2105V45H19.8947V42H25.5789V39H31.2631V42H34.1052V45H39.7894V48H42.6315V51H45.4736V45H42.6315V39H39.7894V33H42.6315V30H48.3157V27H51.1578V24H45.4736V21H34.1052V18H31.2631V9H28.421V3Z" fill="#FFD71D"/>
<rect x="25.579" width="2.84211" height="3" fill="white"/>
<rect x="51.158" y="21" width="2.84211" height="3" fill="white"/>
<rect x="48.3158" y="24" width="2.84211" height="3" fill="white"/>
<rect x="45.4738" y="44.9999" width="2.84211" height="6" fill="white"/>
<rect x="42.6316" y="30" width="2.84211" height="3" fill="white"/>
<rect x="45.4738" y="27" width="2.84211" height="3" fill="white"/>
<rect x="8.52637" y="30" width="2.84211" height="3" fill="white"/>
<rect x="5.68433" y="27" width="2.84211" height="3" fill="white"/>
<rect x="5.68433" y="51" width="5.68421" height="3" fill="white"/>
<rect x="11.3685" y="48" width="2.84211" height="3" fill="white"/>
<rect x="42.6316" y="51" width="5.68421" height="3" fill="white"/>
<rect x="39.7896" y="48" width="2.84211" height="3" fill="white"/>
<rect y="21" width="2.84211" height="3" fill="white"/>
<rect x="2.84216" y="24" width="2.84211" height="3" fill="white"/>
<rect x="5.68433" y="44.9999" width="2.84211" height="6" fill="white"/>
<rect x="14.2107" y="44.9999" width="5.68421" height="3" fill="white"/>
<rect x="34.1053" y="44.9999" width="5.68421" height="3" fill="white"/>
<rect x="19.8948" y="42" width="5.68421" height="3" fill="white"/>
<rect x="31.2632" y="42" width="2.84211" height="3" fill="white"/>
<rect x="25.579" y="39" width="5.68421" height="3" fill="white"/>
<rect x="28.4211" y="3" width="2.84211" height="6" fill="white"/>
<rect x="31.2632" y="9.00012" width="2.84211" height="9" fill="white"/>
<rect x="39.7896" y="33.0001" width="2.84211" height="6" fill="white"/>
<rect x="42.6316" y="39" width="2.84211" height="6" fill="white"/>
<rect x="22.7368" y="3" width="2.84211" height="6" fill="white"/>
<rect x="19.8948" y="9.00012" width="2.84211" height="9" fill="white"/>
<rect x="11.3685" y="33.0001" width="2.84211" height="6" fill="white"/>
<rect x="8.52637" y="39" width="2.84211" height="6" fill="white"/>
<rect x="2.84216" y="17.9999" width="17.0526" height="3" fill="white"/>
<rect x="34.1053" y="17.9999" width="17.0526" height="3" fill="white"/>
<rect x="42.6316" y="21" width="8.52632" height="3" fill="#E99C00"/>
<rect x="42.6316" y="27" width="2.84211" height="3" fill="#E99C00"/>
<rect x="45.4738" y="24" width="2.84211" height="3" fill="#E99C00"/>
<rect x="11.3685" y="30" width="2.84211" height="3" fill="#E99C00"/>
<rect x="39.7896" y="30" width="2.84211" height="3" fill="#E99C00"/>
<rect x="14.2106" y="33.0001" width="2.84211" height="6" fill="#E99C00"/>
<rect x="36.9474" y="33.0001" width="2.84211" height="6" fill="#E99C00"/>
<rect x="11.3685" y="39" width="2.84211" height="9" fill="#E99C00"/>
<rect x="39.7896" y="39" width="2.84211" height="9" fill="#E99C00"/>
<rect x="8.52637" y="44.9999" width="2.84211" height="6" fill="#E99C00"/>
<rect x="42.6316" y="44.9999" width="2.84211" height="6" fill="#E99C00"/>
<rect x="14.2106" y="42" width="2.84211" height="3" fill="#E99C00"/>
<rect x="36.9474" y="42" width="2.84211" height="3" fill="#E99C00"/>
<rect x="17.0526" y="42" width="2.84211" height="3" fill="#E99C00"/>
<rect x="34.1053" y="42" width="2.84211" height="3" fill="#E99C00"/>
<rect x="19.8948" y="39" width="5.68421" height="3" fill="#E99C00"/>
<rect x="25.579" y="36.0001" width="5.68421" height="3" fill="#E99C00"/>
<rect x="31.2632" y="39" width="2.84211" height="3" fill="#E99C00"/>
<rect x="22.7368" y="24" width="2.84211" height="6" fill="white"/>
<rect x="25.579" y="30" width="2.84211" height="3" fill="white"/>
</svg>
