<svg width="54" height="54" viewBox="0 0 54 54" fill="none" xmlns="http://www.w3.org/2000/svg">
<rect x="9.39136" width="35.2174" height="3.22388" fill="white"/>
<path d="M9.39136 13.7015V3.22388H44.6087V13.7015H40.6957V16.1194H37.5653V29.0149H34.4348V32.2388H31.3044V35.4627H22.6957V32.2388H19.5653V29.0149H16.4348V16.1194H13.3044V13.7015H9.39136Z" fill="#FFD71D"/>
<path d="M28.5653 47.1493V38.2836H25.4348V47.1493H20.3479V51.5821H33.6522V47.1493H28.5653Z" fill="#FFD71D"/>
<rect x="28.1738" y="47.5522" width="5.47826" height="4.02985" fill="#E99C00"/>
<path d="M17.2174 47.5522H20.3478V50.9658H33.6522V47.5522H36.7826V54H17.2174V47.5522Z" fill="white"/>
<path d="M20.3478 47.5523V44.4324H22.676V35.4628H31.3239V44.4324H33.6521V47.5523H28.1739V38.6866H25.826V47.5523H20.3478Z" fill="white"/>
<path d="M13.3044 25.687V16.1194H16.4348V29.0149H10.174V25.687H13.3044Z" fill="white"/>
<path d="M40.6957 25.687V16.1194H37.5653V29.0149H43.8262V25.687H40.6957Z" fill="white"/>
<rect x="50.8695" y="10.4777" width="3.13043" height="9.67164" fill="white"/>
<rect width="3.13043" height="9.67164" transform="matrix(-1 0 0 1 3.13037 10.4777)" fill="white"/>
<path d="M44.6088 3.22388H47.7392V6.44776H50.8696V10.4776H47.7392V13.7015H44.6088V3.22388Z" fill="white"/>
<path d="M9.39136 3.22388H6.26092V6.44776H3.13049V10.4776H6.26092V13.7015H9.39136V3.22388Z" fill="white"/>
<rect x="9.39136" y="13.7014" width="3.91304" height="2.41791" fill="white"/>
<rect x="40.6956" y="13.7014" width="3.91304" height="2.41791" fill="white"/>
<rect x="46.9565" y="20.1493" width="3.91304" height="2.41791" fill="white"/>
<rect x="3.13037" y="20.1493" width="3.91304" height="2.41791" fill="white"/>
<rect x="43.8262" y="22.5671" width="3.13043" height="3.22388" fill="white"/>
<rect x="7.04346" y="22.5671" width="3.13043" height="3.22388" fill="white"/>
<rect x="16.4348" y="29.0149" width="3.13043" height="3.22388" fill="white"/>
<rect x="34.4348" y="29.0149" width="3.13043" height="3.22388" fill="white"/>
<rect x="31.3044" y="32.2389" width="3.13043" height="3.22388" fill="white"/>
<rect x="19.5652" y="32.2389" width="3.13043" height="3.22388" fill="white"/>
<rect x="31.3044" y="29.0149" width="3.13043" height="3.22388" fill="#E99C00"/>
<rect x="37.5652" y="13.7014" width="3.13043" height="2.41791" fill="#E99C00"/>
<rect x="21.9131" y="16.1194" width="3.13043" height="6.44776" fill="white"/>
<rect x="40.6956" y="3.22388" width="3.91304" height="10.4776" fill="#E99C00"/>
<rect x="18.7827" y="5.64172" width="3.13043" height="10.4776" fill="white"/>
<rect x="34.4348" y="16.1194" width="3.13043" height="12.8955" fill="#E99C00"/>
<rect x="28.1738" y="32.2389" width="3.13043" height="3.22388" fill="#E99C00"/>
<rect x="25.0435" y="32.2389" width="3.13043" height="3.22388" fill="#E99C00"/>
</svg>
