<svg width="54" height="54" viewBox="0 0 54 54" fill="none" xmlns="http://www.w3.org/2000/svg">
<path d="M41.5384 3.91309H12.4615V7.82613H8.30765V13.3044H4.15381V28.9566H8.30765V34.4348H12.4615V38.3479H16.6153V42.2609H20.7692V46.174H24.923V50.087H29.0769V46.174H33.2307V42.2609H37.3846V38.3479H41.5384V34.4348H45.6923V28.9566H49.8461V13.3044H45.6923V7.82613H41.5384V3.91309Z" fill="#4ACDFE"/>
<rect x="25.7538" y="38.3478" width="3.32308" height="12.5217" fill="#B4FAFC"/>
<rect x="22.4308" y="16.4348" width="3.13043" height="9.96923" transform="rotate(-90 22.4308 16.4348)" fill="#B4FAFC"/>
<rect x="39.0461" y="19.5653" width="3.13043" height="6.64615" transform="rotate(-90 39.0461 19.5653)" fill="#B4FAFC"/>
<rect x="9.13855" y="19.5653" width="3.13043" height="6.64615" transform="rotate(-90 9.13855 19.5653)" fill="#B4FAFC"/>
<rect x="45.6923" y="16.4348" width="3.13043" height="6.64615" transform="rotate(-90 45.6923 16.4348)" fill="#B4FAFC"/>
<rect x="2.49231" y="16.4348" width="3.13043" height="6.64615" transform="rotate(-90 2.49231 16.4348)" fill="#B4FAFC"/>
<rect x="15.7847" y="22.6957" width="3.13043" height="3.32308" transform="rotate(-90 15.7847 22.6957)" fill="#B4FAFC"/>
<rect x="15.7847" y="10.174" width="3.13043" height="3.32308" transform="rotate(-90 15.7847 10.174)" fill="#B4FAFC"/>
<rect x="12.4614" y="7.04346" width="3.13043" height="3.32308" transform="rotate(-90 12.4614 7.04346)" fill="#B4FAFC"/>
<rect x="39.0461" y="7.04346" width="3.13043" height="3.32308" transform="rotate(-90 39.0461 7.04346)" fill="#B4FAFC"/>
<rect x="35.7231" y="22.6957" width="3.13043" height="3.32308" transform="rotate(-90 35.7231 22.6957)" fill="#B4FAFC"/>
<rect x="35.7231" y="10.174" width="3.13043" height="3.32308" transform="rotate(-90 35.7231 10.174)" fill="#B4FAFC"/>
<rect x="35.7231" y="32.087" width="3.13043" height="3.32308" transform="rotate(-90 35.7231 32.087)" fill="#B4FAFC"/>
<rect x="42.3691" y="32.087" width="3.13043" height="3.32308" transform="rotate(-90 42.3691 32.087)" fill="#B4FAFC"/>
<rect x="9.13855" y="32.087" width="3.13043" height="3.32308" transform="rotate(-90 9.13855 32.087)" fill="#B4FAFC"/>
<rect x="15.7847" y="32.087" width="3.13043" height="3.32308" transform="rotate(-90 15.7847 32.087)" fill="#B4FAFC"/>
<rect x="32.4" y="35.2174" width="3.13043" height="3.32308" transform="rotate(-90 32.4 35.2174)" fill="#B4FAFC"/>
<rect x="32.4" y="19.5653" width="3.13043" height="3.32308" transform="rotate(-90 32.4 19.5653)" fill="#B4FAFC"/>
<rect x="32.4" y="13.3043" width="3.13043" height="3.32308" transform="rotate(-90 32.4 13.3043)" fill="#B4FAFC"/>
<rect x="19.1078" y="19.5653" width="3.13043" height="3.32308" transform="rotate(-90 19.1078 19.5653)" fill="#B4FAFC"/>
<rect x="19.1078" y="13.3043" width="3.13043" height="3.32308" transform="rotate(-90 19.1078 13.3043)" fill="#B4FAFC"/>
<rect x="19.1078" y="35.2174" width="3.13043" height="3.32308" transform="rotate(-90 19.1078 35.2174)" fill="#B4FAFC"/>
<rect x="22.4308" y="38.3478" width="3.13043" height="3.32308" transform="rotate(-90 22.4308 38.3478)" fill="#B4FAFC"/>
<rect x="29.0769" y="38.3478" width="3.13043" height="3.32308" transform="rotate(-90 29.0769 38.3478)" fill="#B4FAFC"/>
<rect x="39.0461" y="22.6957" width="3.32308" height="6.26087" fill="#B4FAFC"/>
<rect x="12.4614" y="22.6957" width="3.32308" height="6.26087" fill="#B4FAFC"/>
<rect x="12.4614" width="29.0769" height="3.91304" fill="white"/>
<rect y="28.9565" width="15.6522" height="4.15385" transform="rotate(-90 0 28.9565)" fill="white"/>
<rect x="49.8462" y="28.9565" width="15.6522" height="4.15385" transform="rotate(-90 49.8462 28.9565)" fill="white"/>
<rect x="45.6923" y="34.4347" width="5.47826" height="4.15385" transform="rotate(-90 45.6923 34.4347)" fill="white"/>
<rect x="45.6923" y="13.3043" width="5.47826" height="4.15385" transform="rotate(-90 45.6923 13.3043)" fill="white"/>
<rect x="4.15381" y="34.4347" width="5.47826" height="4.15385" transform="rotate(-90 4.15381 34.4347)" fill="white"/>
<rect x="4.15381" y="13.3043" width="5.47826" height="4.15385" transform="rotate(-90 4.15381 13.3043)" fill="white"/>
<rect x="41.5386" y="38.3478" width="3.91304" height="4.15385" transform="rotate(-90 41.5386 38.3478)" fill="white"/>
<rect x="41.5386" y="7.82617" width="3.91304" height="4.15385" transform="rotate(-90 41.5386 7.82617)" fill="white"/>
<rect x="8.30774" y="38.3478" width="3.91304" height="4.15385" transform="rotate(-90 8.30774 38.3478)" fill="white"/>
<rect x="8.30774" y="7.82617" width="3.91304" height="4.15385" transform="rotate(-90 8.30774 7.82617)" fill="white"/>
<rect x="37.3846" y="42.261" width="3.91304" height="4.15385" transform="rotate(-90 37.3846 42.261)" fill="white"/>
<rect x="12.4614" y="42.261" width="3.91304" height="4.15385" transform="rotate(-90 12.4614 42.261)" fill="white"/>
<rect x="33.2308" y="46.1738" width="3.91304" height="4.15385" transform="rotate(-90 33.2308 46.1738)" fill="white"/>
<rect x="16.6154" y="46.1738" width="3.91304" height="4.15385" transform="rotate(-90 16.6154 46.1738)" fill="white"/>
<rect x="29.0769" y="50.0869" width="3.91304" height="4.15385" transform="rotate(-90 29.0769 50.0869)" fill="white"/>
<rect x="20.7692" y="50.0869" width="3.91304" height="4.15385" transform="rotate(-90 20.7692 50.0869)" fill="white"/>
<rect x="24.9232" y="54" width="3.91304" height="4.15385" transform="rotate(-90 24.9232 54)" fill="white"/>
</svg>
