<svg width="35" height="50" viewBox="0 0 35 50" fill="none" xmlns="http://www.w3.org/2000/svg">
<path d="M0.167358 32.0999V26.1194H10.4066V1.49254H14.8505V0H19.2945V1.86567H23.7467V4.10448V26.1194H34.1674V32.0999H31.372V36.087H28.5766V41.0707H24.3835V47.0513H21.5881V50H13.202V47.0513H10.4066V40.074H7.6112V36.087H3.41812V32.0999H0.167358Z" fill="white"/>
<path d="M3.60852 30.8955V26.95H11.783V2.98504H14.8423V2.23877H18.7998V2.98504H21.7679V26.95H30.8637V30.8955H28.6189V34.841H26.3741V40.157H23.0069V45.4398H20.7622V48.9617H14.0278V45.4398H11.783V39.2765H9.53826V34.841H6.17109V30.8955H3.60852Z" fill="#E99C00"/>
<path d="M10.4913 33.0967H7.46301V29.8572L6.36169 29.7534L6.6371 28.6113H15.2562V8.20897H16.8211V6.71643H18.7998V8.20897H19.9575V28.6113H27.0095H28.386V29.8572H27.0095V33.0967H25.4424V36.087H23.8753V39.0772H21.5246V44.3102H19.9575V47.3005H15.2562V44.3102H13.6891V38.7865H12.122V36.087H10.4913V33.0967Z" fill="#FFD71D"/>
</svg>
