<svg width="814" height="208" viewBox="0 0 814 208" fill="none" xmlns="http://www.w3.org/2000/svg">
<path d="M688.958 38.5467V29H104V50.48H118.729V95.8267H131.354V131.627H162.917V145.947H173.438V181.747H196.583V167.427H190.271V138.787H213.417V153.107H230.25V138.787H253.396V162.653H287.062V181.747H303.896V167.427H324.938V181.747H362.812V174.587H373.333V181.747H423.833V162.653H440.667V181.747H457.5V198.453H480.646V208H493.271V188.907H512.208V138.787H547.979L550.083 153.107H566.917V188.907H587.958V174.587H604.792V181.747H615.313V162.653H604.792V145.947H655.292V131.627H674.229V95.8267H693.167V50.48H710V38.5467H688.958Z" fill="#151312"/>
<path d="M143.236 36.04V29H678V44.84H664.535V78.28H652.993V104.68H624.139V115.24H614.521V141.64H593.361V131.08H599.132V109.96H577.972V120.52H562.583V109.96H541.424V127.56H510.646V141.64H495.257V131.08H476.021V141.64H441.396V136.36H431.778V141.64H385.611V127.56H370.222V141.64H354.833V153.96H333.674V161H322.132V146.92H304.819V109.96H272.118L270.194 120.52H254.806V146.92H235.569V136.36H220.181V141.64H210.562V127.56H220.181V115.24H174.014V104.68H156.701V78.28H139.389V44.84H124V36.04H143.236Z" fill="#1D1A18"/>
<path d="M779.257 33V29H8V38H27.4201V57H44.066V72H85.6806V78H99.5521V93H130.069V87H121.747V75H152.264V81H174.458V75H204.976V85H249.365V93H271.559V87H299.302V93H349.24V90H363.111V93H429.694V85H451.889V93H474.083V100H504.601V104H521.247V96H546.215V75H593.378L596.153 81H618.347V96H646.09V90H668.285V93H682.156V85H668.285V78H734.868V72H759.837V57H784.806V38H807V33H779.257Z" fill="#152525"/>
<path d="M282 8.62745V0H789.5V12.0784H803.5V24.1569H814V81.098H807H798.25V67.2941H779V88H768.5V56.9412H730V67.2941H700.25V56.9412H684.5V81.098H672.25V72.4706H658.25V88H646V72.4706H633.75V56.9412H612.75V67.2941H598.75V56.9412H570.75V67.2941H556.75V88H544.5V67.2941H534V60.3922H507.75V48.3137H493.75V56.9412H476.25V81.098H460.5V60.3922H432.5V67.2941H411.5V75.9216H397.5V67.2941H381.75V56.9412H346.75V39.6863H320.5V27.6078H329.25V8.62745H282Z" fill="#38A3A5"/>
<path d="M294 7.35294V0H783.375V10.2941H796.875V20.5882H807V69.1176H800.25H791.812V57.3529H773.25V75H763.125V48.5294H726V57.3529H697.312V48.5294H682.125V69.1176H670.312V61.7647H656.812V75H645V61.7647H633.188V48.5294H612.938V57.3529H599.438V48.5294H572.438V57.3529H558.938V75H547.125V57.3529H537V51.4706H511.688V41.1765H498.188V48.5294H481.312V69.1176H466.125V51.4706H439.125V57.3529H418.875V64.7059H405.375V57.3529H390.188V48.5294H356.438V33.8235H331.125V23.5294H339.562V7.35294H294Z" fill="#57CC99"/>
<path d="M275 4.5098V0H782.5V6.31373H796.5V12.6275H807V42.3922H800H791.25V35.1765H772V46H761.5V29.7647H723V35.1765H693.25V29.7647H677.5V42.3922H665.25V37.8824H651.25V46H639V37.8824H626.75V29.7647H605.75V35.1765H591.75V29.7647H563.75V35.1765H549.75V46H537.5V35.1765H527V31.5686H500.75V25.2549H486.75V29.7647H469.25V42.3922H453.5V31.5686H425.5V35.1765H404.5V39.6863H390.5V35.1765H374.75V29.7647H339.75V20.7451H313.5V14.4314H322.25V4.5098H275Z" fill="#80ED99"/>
<path d="M422 8.62745V0H19.4342V12.0784H8.32895V24.1569H0V81.098H5.55263H12.4934V67.2941H27.7632V88H36.0921V56.9412H66.6316V67.2941H90.2303V56.9412H102.724V81.098H112.441V72.4706H123.546V88H133.263V72.4706H142.98V56.9412H159.638V67.2941H170.743V56.9412H192.954V67.2941H204.059V88H213.776V67.2941H222.105V60.3922H242.928V48.3137H254.033V56.9412H267.914V81.098H280.408V60.3922H302.618V67.2941H319.276V75.9216H330.382V67.2941H342.875V56.9412H370.638V39.6863H391.461V27.6078H384.52V8.62745H422Z" fill="#38A3A5"/>
<path d="M435 7.35294V0H26.7105V10.2941H15.4474V20.5882H7V69.1176H12.6316H19.6711V57.3529H35.1579V75H43.6053V48.5294H74.5789V57.3529H98.5132V48.5294H111.184V69.1176H121.039V61.7647H132.303V75H142.158V61.7647H152.013V48.5294H168.908V57.3529H180.171V48.5294H202.697V57.3529H213.961V75H223.816V57.3529H232.263V51.4706H253.382V41.1765H264.645V48.5294H278.724V69.1176H291.395V51.4706H313.921V57.3529H330.816V64.7059H342.079V57.3529H354.75V48.5294H382.908V33.8235H404.026V23.5294H396.987V7.35294H435Z" fill="#57CC99"/>
<path d="M503 4.5098V0H29.8421V6.31373H16.7895V12.6275H7V42.3922H13.5263H21.6842V35.1765H39.6316V46H49.4211V29.7647H85.3158V35.1765H113.053V29.7647H127.737V42.3922H139.158V37.8824H152.211V46H163.632V37.8824H175.053V29.7647H194.632V35.1765H207.684V29.7647H233.789V35.1765H246.842V46H258.263V35.1765H268.053V31.5686H292.526V25.2549H305.579V29.7647H321.895V42.3922H336.579V31.5686H362.684V35.1765H382.263V39.6863H395.316V35.1765H410V29.7647H442.632V20.7451H467.105V14.4314H458.947V4.5098H503Z" fill="#80ED99"/>
</svg>
