<svg width="1314" height="692" viewBox="0 0 1314 692" fill="none" xmlns="http://www.w3.org/2000/svg">
<mask id="mask0_450_10740" style="mask-type:alpha" maskUnits="userSpaceOnUse" x="0" y="0" width="1314" height="692">
<path d="M70 60.063H1246V624.655H70V60.063Z" fill="#161821"/>
<path d="M89.4508 8.3092H95.6762V14.5411H89.4508V8.3092Z" fill="#161821"/>
<path d="M141.329 18.6958H147.555V24.9278H141.329V18.6958Z" fill="#161821"/>
<path d="M147.555 12.4638H153.78V18.6957L147.555 18.6958L147.555 12.4638Z" fill="#161821"/>
<path d="M130.953 6.23202H137.179V12.464H130.953V6.23202Z" fill="#161821"/>
<path d="M106.052 6.23202H112.277V12.464H106.052V6.23202Z" fill="#161821"/>
<path d="M112.277 0H118.503V6.23194L112.277 6.23202V0Z" fill="#161821"/>
<path d="M83.2254 8.3092H89.4508V14.5411H83.2254V8.3092Z" fill="#161821"/>
<path d="M112.277 12.464L118.503 12.4638V18.6957H112.277V12.464Z" fill="#161821"/>
<path d="M124.728 12.4638L130.953 12.464V18.6957H124.728V12.4638Z" fill="#161821"/>
<path d="M77 18.6958H83.2254V24.9278H97.7513V18.6958L112.277 18.6957V24.9278H118.503V18.6957H124.728V24.9278H141.329V31.1597H153.78V24.9278H160.005V18.6958H166.231V76.8606H77V18.6958Z" fill="#161821"/>
<path d="M7.2254 32.0336H13.4508V38.2655H7.2254V32.0336Z" fill="#161821"/>
<path d="M52.3292 18.6958H58.5546V24.9277H52.3292V18.6958Z" fill="#161821"/>
<path d="M58.5546 12.4638H64.78V18.6957L58.5546 18.6958L58.5546 12.4638Z" fill="#161821"/>
<path d="M41.9535 6.232H48.1789V12.4639H41.9535V6.232Z" fill="#161821"/>
<path d="M2 49.0514H8.2254V55.2833H2V49.0514Z" fill="#161821"/>
<path d="M25 13.0136H31.2254V19.2456H25V13.0136Z" fill="#161821"/>
<path d="M1 32.0336H7.2254V38.2655H1V32.0336Z" fill="#161821"/>
<path d="M16 23.0241H22.2254V29.256H16V23.0241Z" fill="#161821"/>
<path d="M35.7281 12.4638L41.9535 12.4639V18.6957H35.7281V12.4638Z" fill="#161821"/>
<path d="M23.0465 41.043V31.8906H32.4884V25.4552H43.5V19.0199H54.5V31.8906H62.5V25.4552H71V19.0199H77V79.0829H12V72.0755H19V60.5635H13.5V49.0514H19V41.043H23.0465Z" fill="#161821"/>
<path d="M714.066 8.3092H720.292V14.5411H714.066V8.3092Z" fill="#161821"/>
<path d="M765.945 18.6958H772.17V24.9278H765.945V18.6958Z" fill="#161821"/>
<path d="M772.17 12.4638H778.395V18.6957L772.17 18.6958V12.4638Z" fill="#161821"/>
<path d="M755.569 6.23202H761.794V12.464H755.569V6.23202Z" fill="#161821"/>
<path d="M730.667 6.23202H736.893V12.464H730.667V6.23202Z" fill="#161821"/>
<path d="M736.893 0H743.118V6.23194L736.893 6.23202V0Z" fill="#161821"/>
<path d="M707.841 8.3092H714.066V14.5411H707.841V8.3092Z" fill="#161821"/>
<path d="M736.893 12.464L743.118 12.4638V18.6957H736.893V12.464Z" fill="#161821"/>
<path d="M749.343 12.4638L755.569 12.464V18.6957H749.343V12.4638Z" fill="#161821"/>
<path d="M701.615 18.6958H707.841V24.9278H722.367V18.6958L736.893 18.6957V24.9278H743.118V18.6957H749.343V24.9278H765.945V31.1597H778.395V24.9278H784.621V18.6958H790.846V76.8606H701.615V18.6958Z" fill="#161821"/>
<path d="M178.682 8.3092H184.907V14.5411H178.682V8.3092Z" fill="#161821"/>
<path d="M230.56 18.6958H236.785V24.9278H230.56V18.6958Z" fill="#161821"/>
<path d="M236.785 12.4638H243.011V18.6957L236.785 18.6958V12.4638Z" fill="#161821"/>
<path d="M220.184 6.23202H226.41V12.464H220.184V6.23202Z" fill="#161821"/>
<path d="M195.283 6.23202H201.508V12.464H195.283V6.23202Z" fill="#161821"/>
<path d="M201.508 0H207.733V6.23194L201.508 6.23202L201.508 0Z" fill="#161821"/>
<path d="M172.456 8.3092H178.682V14.5411H172.456V8.3092Z" fill="#161821"/>
<path d="M201.508 12.464L207.733 12.4638V18.6957H201.508L201.508 12.464Z" fill="#161821"/>
<path d="M213.959 12.4638L220.184 12.464V18.6957H213.959V12.4638Z" fill="#161821"/>
<path d="M166.231 18.6958H172.456V24.9278H186.982V18.6958L201.508 18.6957V24.9278H207.733V18.6957H213.959V24.9278H230.56V31.1597H243.011V24.9278H249.236V18.6958H255.462V76.8606H166.231V18.6958Z" fill="#161821"/>
<path d="M803.297 8.3092H809.522V14.5411H803.297V8.3092Z" fill="#161821"/>
<path d="M855.175 18.6958H861.401V24.9278H855.175V18.6958Z" fill="#161821"/>
<path d="M861.401 12.4638H867.626V18.6957L861.401 18.6958V12.4638Z" fill="#161821"/>
<path d="M844.8 6.23202H851.025V12.464H844.8V6.23202Z" fill="#161821"/>
<path d="M819.898 6.23202H826.123V12.464H819.898V6.23202Z" fill="#161821"/>
<path d="M826.123 0H832.349V6.23194L826.123 6.23202V0Z" fill="#161821"/>
<path d="M797.072 8.3092H803.297V14.5411H797.072V8.3092Z" fill="#161821"/>
<path d="M826.123 12.464L832.349 12.4638V18.6957H826.123V12.464Z" fill="#161821"/>
<path d="M838.574 12.4638L844.8 12.464V18.6957H838.574V12.4638Z" fill="#161821"/>
<path d="M790.846 18.6958H797.072V24.9278H811.597V18.6958L826.123 18.6957V24.9278H832.349V18.6957H838.574V24.9278H855.175V31.1597H867.626V24.9278H873.852V18.6958H880.077V76.8606H790.846V18.6958Z" fill="#161821"/>
<path d="M267.912 8.3092H274.138V14.5411H267.912V8.3092Z" fill="#161821"/>
<path d="M319.791 18.6958H326.016V24.9278H319.791V18.6958Z" fill="#161821"/>
<path d="M326.016 12.4638H332.242V18.6957L326.016 18.6958V12.4638Z" fill="#161821"/>
<path d="M309.415 6.23202H315.64V12.464H309.415V6.23202Z" fill="#161821"/>
<path d="M284.513 6.23202H290.739V12.464H284.513V6.23202Z" fill="#161821"/>
<path d="M290.739 0H296.964V6.23194L290.739 6.23202V0Z" fill="#161821"/>
<path d="M261.687 8.3092H267.912V14.5411H261.687V8.3092Z" fill="#161821"/>
<path d="M290.739 12.464L296.964 12.4638V18.6957H290.739V12.464Z" fill="#161821"/>
<path d="M303.19 12.4638L309.415 12.464V18.6957H303.19V12.4638Z" fill="#161821"/>
<path d="M255.462 18.6958H261.687V24.9278H276.213V18.6958L290.739 18.6957V24.9278H296.964V18.6957H303.19V24.9278H319.791V31.1597H332.242V24.9278H338.467V18.6958H344.692V76.8606H255.462V18.6958Z" fill="#161821"/>
<path d="M892.528 8.3092H898.753V14.5411H892.528V8.3092Z" fill="#161821"/>
<path d="M944.406 18.6958H950.631V24.9278H944.406V18.6958Z" fill="#161821"/>
<path d="M950.631 12.4638H956.857V18.6957L950.631 18.6958V12.4638Z" fill="#161821"/>
<path d="M934.03 6.23202H940.256V12.464H934.03V6.23202Z" fill="#161821"/>
<path d="M909.129 6.23202H915.354V12.464H909.129V6.23202Z" fill="#161821"/>
<path d="M915.354 0H921.58V6.23194L915.354 6.23202V0Z" fill="#161821"/>
<path d="M886.302 8.3092H892.528V14.5411H886.302V8.3092Z" fill="#161821"/>
<path d="M915.354 12.464L921.58 12.4638V18.6957H915.354V12.464Z" fill="#161821"/>
<path d="M927.805 12.4638L934.03 12.464V18.6957H927.805V12.4638Z" fill="#161821"/>
<path d="M880.077 18.6958H886.302V24.9278H900.828V18.6958L915.354 18.6957V24.9278H921.58V18.6957H927.805V24.9278H944.406V31.1597H956.857V24.9278H963.082V18.6958H969.308V76.8606H880.077V18.6958Z" fill="#161821"/>
<path d="M357.143 8.3092H363.369V14.5411H357.143V8.3092Z" fill="#161821"/>
<path d="M409.021 18.6958H415.247V24.9278H409.021V18.6958Z" fill="#161821"/>
<path d="M415.247 12.4638H421.472V18.6957L415.247 18.6958V12.4638Z" fill="#161821"/>
<path d="M398.646 6.23202H404.871V12.464H398.646V6.23202Z" fill="#161821"/>
<path d="M373.744 6.23202H379.97V12.464H373.744V6.23202Z" fill="#161821"/>
<path d="M379.97 0H386.195V6.23194L379.97 6.23202V0Z" fill="#161821"/>
<path d="M350.918 8.3092H357.143V14.5411H350.918V8.3092Z" fill="#161821"/>
<path d="M379.97 12.464L386.195 12.4638V18.6957H379.97V12.464Z" fill="#161821"/>
<path d="M392.42 12.4638L398.646 12.464L398.646 18.6957H392.42V12.4638Z" fill="#161821"/>
<path d="M344.692 18.6958H350.918V24.9278H365.444V18.6958L379.97 18.6957V24.9278H386.195V18.6957H392.42L392.42 24.9278H409.021V31.1597H421.472V24.9278H427.698V18.6958H433.923V76.8606H344.692V18.6958Z" fill="#161821"/>
<path d="M981.759 8.3092H987.984V14.5411H981.759V8.3092Z" fill="#161821"/>
<path d="M1033.64 18.6958H1039.86V24.9278H1033.64V18.6958Z" fill="#161821"/>
<path d="M1039.86 12.4638H1046.09V18.6957L1039.86 18.6958V12.4638Z" fill="#161821"/>
<path d="M1023.26 6.23202H1029.49V12.464H1023.26V6.23202Z" fill="#161821"/>
<path d="M998.36 6.23202H1004.59V12.464H998.36V6.23202Z" fill="#161821"/>
<path d="M1004.59 0H1010.81V6.23194L1004.59 6.23202V0Z" fill="#161821"/>
<path d="M975.533 8.3092H981.759V14.5411H975.533V8.3092Z" fill="#161821"/>
<path d="M1004.59 12.464L1010.81 12.4638V18.6957H1004.59V12.464Z" fill="#161821"/>
<path d="M1017.04 12.4638L1023.26 12.464V18.6957H1017.04V12.4638Z" fill="#161821"/>
<path d="M969.308 18.6958H975.533V24.9278H990.059V18.6958L1004.59 18.6957V24.9278H1010.81V18.6957H1017.04V24.9278H1033.64L1033.64 31.1597H1046.09V24.9278H1052.31V18.6958H1058.54V76.8606H969.308V18.6958Z" fill="#161821"/>
<path d="M446.374 8.3092H452.599V14.5411H446.374V8.3092Z" fill="#161821"/>
<path d="M498.252 18.6958H504.478V24.9278H498.252V18.6958Z" fill="#161821"/>
<path d="M504.478 12.4638H510.703V18.6957L504.478 18.6958V12.4638Z" fill="#161821"/>
<path d="M487.877 6.23202H494.102V12.464H487.877V6.23202Z" fill="#161821"/>
<path d="M462.975 6.23202H469.2V12.464H462.975V6.23202Z" fill="#161821"/>
<path d="M469.2 0H475.426V6.23194L469.2 6.23202V0Z" fill="#161821"/>
<path d="M440.148 8.3092H446.374V14.5411H440.148V8.3092Z" fill="#161821"/>
<path d="M469.2 12.464L475.426 12.4638V18.6957H469.2V12.464Z" fill="#161821"/>
<path d="M481.651 12.4638L487.877 12.464L487.877 18.6957H481.651V12.4638Z" fill="#161821"/>
<path d="M433.923 18.6958H440.148V24.9278H454.674V18.6958L469.2 18.6957V24.9278H475.426V18.6957H481.651L481.651 24.9278H498.252V31.1597H510.703V24.9278H516.928V18.6958H523.154V76.8606H433.923V18.6958Z" fill="#161821"/>
<path d="M1070.99 8.3092H1077.21V14.5411H1070.99V8.3092Z" fill="#161821"/>
<path d="M1122.87 18.6958H1129.09V24.9278H1122.87V18.6958Z" fill="#161821"/>
<path d="M1129.09 12.4638H1135.32V18.6957L1129.09 18.6958V12.4638Z" fill="#161821"/>
<path d="M1112.49 6.23202H1118.72V12.464H1112.49V6.23202Z" fill="#161821"/>
<path d="M1087.59 6.23202H1093.82V12.464H1087.59V6.23202Z" fill="#161821"/>
<path d="M1093.82 0H1100.04V6.23194L1093.82 6.23202L1093.82 0Z" fill="#161821"/>
<path d="M1064.76 8.3092H1070.99V14.5411H1064.76V8.3092Z" fill="#161821"/>
<path d="M1093.82 12.464L1100.04 12.4638V18.6957H1093.82L1093.82 12.464Z" fill="#161821"/>
<path d="M1106.27 12.4638L1112.49 12.464V18.6957H1106.27V12.4638Z" fill="#161821"/>
<path d="M1058.54 18.6958H1064.76V24.9278H1079.29V18.6958L1093.82 18.6957L1093.82 24.9278H1100.04V18.6957H1106.27V24.9278H1122.87L1122.87 31.1597H1135.32V24.9278H1141.54V18.6958H1147.77V76.8606H1058.54V18.6958Z" fill="#161821"/>
<path d="M535.605 8.3092H541.83V14.5411H535.605V8.3092Z" fill="#161821"/>
<path d="M587.483 18.6958H593.708V24.9278H587.483V18.6958Z" fill="#161821"/>
<path d="M593.708 12.4638H599.934V18.6957L593.708 18.6958V12.4638Z" fill="#161821"/>
<path d="M577.107 6.23202H583.333V12.464H577.107V6.23202Z" fill="#161821"/>
<path d="M552.206 6.23202H558.431V12.464H552.206V6.23202Z" fill="#161821"/>
<path d="M558.431 0H564.657V6.23194L558.431 6.23202V0Z" fill="#161821"/>
<path d="M529.379 8.3092H535.605V14.5411H529.379V8.3092Z" fill="#161821"/>
<path d="M558.431 12.464L564.657 12.4638V18.6957H558.431V12.464Z" fill="#161821"/>
<path d="M570.882 12.4638L577.107 12.464V18.6957H570.882V12.4638Z" fill="#161821"/>
<path d="M523.154 18.6958H529.379V24.9278H543.905V18.6958L558.431 18.6957V24.9278H564.657V18.6957H570.882V24.9278H587.483V31.1597H599.934V24.9278H606.159V18.6958H612.385V76.8606H523.154V18.6958Z" fill="#161821"/>
<path d="M1160.22 8.3092H1166.45V14.5411H1160.22V8.3092Z" fill="#161821"/>
<path d="M1212.1 18.6958H1218.32V24.9278H1212.1V18.6958Z" fill="#161821"/>
<path d="M1218.32 12.4638H1224.55V18.6957L1218.32 18.6958V12.4638Z" fill="#161821"/>
<path d="M1201.72 6.23202H1207.95V12.464H1201.72V6.23202Z" fill="#161821"/>
<path d="M1176.82 6.23202H1183.05V12.464H1176.82V6.23202Z" fill="#161821"/>
<path d="M1183.05 0H1189.27V6.23194L1183.05 6.23202L1183.05 0Z" fill="#161821"/>
<path d="M1153.99 8.3092H1160.22V14.5411H1153.99V8.3092Z" fill="#161821"/>
<path d="M1183.05 12.464L1189.27 12.4638V18.6957H1183.05L1183.05 12.464Z" fill="#161821"/>
<path d="M1195.5 12.4638L1201.72 12.464V18.6957H1195.5V12.4638Z" fill="#161821"/>
<path d="M1147.77 18.6958H1153.99V24.9278H1168.52V18.6958L1183.05 18.6957L1183.05 24.9278H1189.27V18.6957H1195.5V24.9278H1212.1L1212.1 31.1597H1224.55V24.9278H1230.77V18.6958H1237V76.8606H1147.77V18.6958Z" fill="#161821"/>
<path d="M624.835 8.3092H631.061V14.5411H624.835V8.3092Z" fill="#161821"/>
<path d="M676.714 18.6958H682.939V24.9278H676.714V18.6958Z" fill="#161821"/>
<path d="M682.939 12.4638H689.165V18.6957L682.939 18.6958V12.4638Z" fill="#161821"/>
<path d="M666.338 6.23202H672.564V12.464H666.338V6.23202Z" fill="#161821"/>
<path d="M641.437 6.23202H647.662V12.464H641.437V6.23202Z" fill="#161821"/>
<path d="M647.662 0H653.887V6.23194L647.662 6.23202V0Z" fill="#161821"/>
<path d="M618.61 8.3092H624.835V14.5411H618.61V8.3092Z" fill="#161821"/>
<path d="M647.662 12.464L653.887 12.4638V18.6957H647.662V12.464Z" fill="#161821"/>
<path d="M660.113 12.4638L666.338 12.464V18.6957H660.113V12.4638Z" fill="#161821"/>
<path d="M612.385 18.6958H618.61V24.9278H633.136V18.6958L647.662 18.6957V24.9278H653.887V18.6957H660.113V24.9278H676.714V31.1597H689.165V24.9278H695.39V18.6958H701.615V76.8606H612.385V18.6958Z" fill="#161821"/>
<path d="M8.30049 602.455V596.223H14.5259V602.455H8.30049Z" fill="#161821"/>
<path d="M18.6762 550.522V544.291H24.9016V550.522H18.6762Z" fill="#161821"/>
<path d="M12.4507 544.291V538.059H18.6761L18.6762 544.291H12.4507Z" fill="#161821"/>
<path d="M6.22549 560.909V554.677H12.4509V560.909H6.22549Z" fill="#161821"/>
<path d="M6.22549 585.837V579.605H12.4509V585.837H6.22549Z" fill="#161821"/>
<path d="M0 579.605V573.373H6.2254L6.22549 579.605H0Z" fill="#161821"/>
<path d="M8.30049 608.687V602.455H14.5259V608.687H8.30049Z" fill="#161821"/>
<path d="M12.4509 579.605L12.4507 573.373H18.6761V579.605H12.4509Z" fill="#161821"/>
<path d="M12.4507 567.141L12.4509 560.909H18.6761V567.141H12.4507Z" fill="#161821"/>
<path d="M18.6762 614.919V608.687H24.9016V594.146H18.6762L18.6761 579.605H24.9016V573.373H18.6761V567.141H24.9016V550.522H31.127V538.059H24.9016V531.827H18.6762V525.595H76.78V614.919H18.6762Z" fill="#161821"/>
<path d="M8.30049 513.131V506.899H14.5259V513.131H8.30049Z" fill="#161821"/>
<path d="M18.6762 461.198V454.966H24.9016V461.198H18.6762Z" fill="#161821"/>
<path d="M12.4507 454.966V448.734H18.6761L18.6762 454.966L12.4507 454.966Z" fill="#161821"/>
<path d="M6.22549 471.585V465.353H12.4509V471.585H6.22549Z" fill="#161821"/>
<path d="M6.22549 496.512V490.28H12.4509V496.512H6.22549Z" fill="#161821"/>
<path d="M0 490.28V484.048H6.2254L6.22549 490.28L0 490.28Z" fill="#161821"/>
<path d="M8.30049 519.363V513.131H14.5259V519.363H8.30049Z" fill="#161821"/>
<path d="M12.4509 490.28L12.4507 484.048H18.6761V490.28L12.4509 490.28Z" fill="#161821"/>
<path d="M12.4507 477.817L12.4509 471.585L18.6761 471.585V477.817H12.4507Z" fill="#161821"/>
<path d="M18.6762 525.595V519.363H24.9016V504.822H18.6762L18.6761 490.28H24.9016V484.048H18.6761V477.817L24.9016 477.817V461.198H31.127V448.734H24.9016V442.502H18.6762V436.27H76.78V525.595H18.6762Z" fill="#161821"/>
<path d="M8.30049 423.806V417.575H14.5259V423.806H8.30049Z" fill="#161821"/>
<path d="M18.6762 371.874V365.642H24.9016V371.874H18.6762Z" fill="#161821"/>
<path d="M12.4507 365.642V359.41H18.6761L18.6762 365.642H12.4507Z" fill="#161821"/>
<path d="M6.22549 382.26V376.028H12.4509V382.26H6.22549Z" fill="#161821"/>
<path d="M6.22549 407.188V400.956H12.4509V407.188H6.22549Z" fill="#161821"/>
<path d="M0 400.956V394.724H6.2254L6.22549 400.956L0 400.956Z" fill="#161821"/>
<path d="M8.30049 430.038V423.806H14.5259V430.038H8.30049Z" fill="#161821"/>
<path d="M12.4509 400.956L12.4507 394.724H18.6761V400.956L12.4509 400.956Z" fill="#161821"/>
<path d="M12.4507 388.492L12.4509 382.26L18.6761 382.26V388.492H12.4507Z" fill="#161821"/>
<path d="M18.6762 436.27V430.038H24.9016V415.497H18.6762L18.6761 400.956H24.9016V394.724H18.6761V388.492L24.9016 388.492V371.874H31.127V359.41H24.9016V353.178H18.6762V346.946H76.78L76.78 436.27H18.6762Z" fill="#161821"/>
<path d="M8.30049 334.482V328.25H14.5259V334.482H8.30049Z" fill="#161821"/>
<path d="M18.6762 282.549V276.317H24.9016V282.549H18.6762Z" fill="#161821"/>
<path d="M12.4507 276.317V270.085H18.6761L18.6762 276.317L12.4507 276.317Z" fill="#161821"/>
<path d="M6.22549 292.936V286.704H12.4509V292.936H6.22549Z" fill="#161821"/>
<path d="M6.22549 317.863V311.632H12.4509V317.863H6.22549Z" fill="#161821"/>
<path d="M0 311.632V305.4H6.2254L6.22549 311.632L0 311.632Z" fill="#161821"/>
<path d="M8.30049 340.714V334.482H14.5259V340.714H8.30049Z" fill="#161821"/>
<path d="M12.4509 311.632L12.4507 305.4H18.6761V311.632L12.4509 311.632Z" fill="#161821"/>
<path d="M12.4507 299.168L12.4509 292.936L18.6761 292.936V299.168H12.4507Z" fill="#161821"/>
<path d="M18.6762 346.946V340.714H24.9016V326.173H18.6762L18.6761 311.632H24.9016V305.4H18.6761V299.168L24.9016 299.168V282.549H31.127V270.085H24.9016V263.853H18.6762V257.621H76.78V346.946H18.6762Z" fill="#161821"/>
<path d="M8.30049 245.158V238.926H14.5259V245.158H8.30049Z" fill="#161821"/>
<path d="M18.6762 193.225V186.993H24.9016V193.225H18.6762Z" fill="#161821"/>
<path d="M12.4507 186.993V180.761H18.6761L18.6762 186.993L12.4507 186.993Z" fill="#161821"/>
<path d="M6.22549 203.611V197.38H12.4509V203.611H6.22549Z" fill="#161821"/>
<path d="M6.22549 228.539V222.307H12.4509V228.539H6.22549Z" fill="#161821"/>
<path d="M0 222.307V216.075H6.2254L6.22549 222.307L0 222.307Z" fill="#161821"/>
<path d="M8.30049 251.39V245.158H14.5259V251.39H8.30049Z" fill="#161821"/>
<path d="M12.4509 222.307L12.4507 216.075H18.6761V222.307L12.4509 222.307Z" fill="#161821"/>
<path d="M12.4507 209.843L12.4509 203.611L18.6761 203.611V209.843H12.4507Z" fill="#161821"/>
<path d="M18.6762 257.621V251.39H24.9016V236.848H18.6762L18.6761 222.307L24.9016 222.307V216.075L18.6761 216.075V209.843L24.9016 209.843V193.225H31.127V180.761H24.9016V174.529H18.6762V168.297H76.78V257.621H18.6762Z" fill="#161821"/>
<path d="M8.30049 155.833V149.601H14.5259V155.833H8.30049Z" fill="#161821"/>
<path d="M18.6762 103.9V97.6684H24.9016V103.9H18.6762Z" fill="#161821"/>
<path d="M12.4507 97.6684V91.4365H18.6761L18.6762 97.6684L12.4507 97.6684Z" fill="#161821"/>
<path d="M6.22549 114.287V108.055H12.4509V114.287H6.22549Z" fill="#161821"/>
<path d="M6.22549 139.215V132.983H12.4509V139.215H6.22549Z" fill="#161821"/>
<path d="M0 132.983V126.751H6.2254L6.22549 132.983L0 132.983Z" fill="#161821"/>
<path d="M8.30049 162.065V155.833H14.5259V162.065H8.30049Z" fill="#161821"/>
<path d="M12.4509 132.983L12.4507 126.751H18.6761V132.983L12.4509 132.983Z" fill="#161821"/>
<path d="M12.4507 120.519L12.4509 114.287L18.6761 114.287V120.519H12.4507Z" fill="#161821"/>
<path d="M18.6762 168.297V162.065H24.9016V147.524H18.6762L18.6761 132.983L24.9016 132.983V126.751L18.6761 126.751V120.519L24.9016 120.519V103.9L31.127 103.9V91.4365H24.9016V85.2046H18.6762V78.9726H76.78V168.297H18.6762Z" fill="#161821"/>
<path d="M1224.55 683.691H1218.32V677.459H1224.55V683.691Z" fill="#161821"/>
<path d="M1172.67 673.304H1166.45V667.072H1172.67V673.304Z" fill="#161821"/>
<path d="M1166.45 679.536H1160.22V673.304L1166.45 673.304V679.536Z" fill="#161821"/>
<path d="M1183.05 685.768H1176.82V679.536H1183.05V685.768Z" fill="#161821"/>
<path d="M1207.95 685.768H1201.72V679.536H1207.95V685.768Z" fill="#161821"/>
<path d="M1201.72 692H1195.5V685.768L1201.72 685.768L1201.72 692Z" fill="#161821"/>
<path d="M1230.77 683.691H1224.55V677.459H1230.77V683.691Z" fill="#161821"/>
<path d="M1201.72 679.536L1195.5 679.536V673.304H1201.72L1201.72 679.536Z" fill="#161821"/>
<path d="M1189.27 679.536L1183.05 679.536V673.304H1189.27V679.536Z" fill="#161821"/>
<path d="M1237 673.304H1230.77V667.072H1216.25V673.304L1201.72 673.304L1201.72 667.072H1195.5V673.304H1189.27V667.072H1172.67V660.84H1160.22V667.072H1153.99V673.304H1147.77V615.139H1237V673.304Z" fill="#161821"/>
<path d="M599.934 683.691H593.708V677.459H599.934V683.691Z" fill="#161821"/>
<path d="M548.055 673.304H541.83V667.072H548.055V673.304Z" fill="#161821"/>
<path d="M541.83 679.536H535.605V673.304L541.83 673.304V679.536Z" fill="#161821"/>
<path d="M558.431 685.768H552.206V679.536H558.431V685.768Z" fill="#161821"/>
<path d="M583.333 685.768H577.107V679.536H583.333V685.768Z" fill="#161821"/>
<path d="M577.107 692H570.882V685.768L577.107 685.768V692Z" fill="#161821"/>
<path d="M606.159 683.691H599.934V677.459H606.159V683.691Z" fill="#161821"/>
<path d="M577.107 679.536L570.882 679.536V673.304H577.107V679.536Z" fill="#161821"/>
<path d="M564.657 679.536L558.431 679.536V673.304H564.657V679.536Z" fill="#161821"/>
<path d="M612.385 673.304H606.159V667.072H591.633V673.304L577.107 673.304V667.072H570.882V673.304H564.657V667.072H548.055V660.84H535.605V667.072H529.379V673.304H523.154V615.139H612.385V673.304Z" fill="#161821"/>
<path d="M1135.32 683.691H1129.09V677.459H1135.32V683.691Z" fill="#161821"/>
<path d="M1083.44 673.304H1077.21V667.072H1083.44V673.304Z" fill="#161821"/>
<path d="M1077.21 679.536H1070.99V673.304L1077.21 673.304L1077.21 679.536Z" fill="#161821"/>
<path d="M1093.82 685.768H1087.59V679.536H1093.82V685.768Z" fill="#161821"/>
<path d="M1118.72 685.768H1112.49V679.536H1118.72V685.768Z" fill="#161821"/>
<path d="M1112.49 692H1106.27V685.768L1112.49 685.768V692Z" fill="#161821"/>
<path d="M1141.54 683.691H1135.32V677.459H1141.54V683.691Z" fill="#161821"/>
<path d="M1112.49 679.536L1106.27 679.536V673.304H1112.49V679.536Z" fill="#161821"/>
<path d="M1100.04 679.536L1093.82 679.536V673.304H1100.04V679.536Z" fill="#161821"/>
<path d="M1147.77 673.304H1141.54V667.072H1127.02V673.304L1112.49 673.304V667.072H1106.27L1106.27 673.304H1100.04V667.072H1083.44V660.84H1070.99V667.072H1064.76V673.304H1058.54V615.139H1147.77V673.304Z" fill="#161821"/>
<path d="M510.703 683.691H504.478V677.459H510.703V683.691Z" fill="#161821"/>
<path d="M458.825 673.304H452.599V667.072H458.825V673.304Z" fill="#161821"/>
<path d="M452.599 679.536H446.374V673.304L452.599 673.304L452.599 679.536Z" fill="#161821"/>
<path d="M469.2 685.768H462.975V679.536H469.2V685.768Z" fill="#161821"/>
<path d="M494.102 685.768H487.877V679.536H494.102V685.768Z" fill="#161821"/>
<path d="M487.877 692H481.651V685.768L487.877 685.768L487.877 692Z" fill="#161821"/>
<path d="M516.928 683.691H510.703V677.459H516.928V683.691Z" fill="#161821"/>
<path d="M487.877 679.536L481.651 679.536V673.304H487.877L487.877 679.536Z" fill="#161821"/>
<path d="M475.426 679.536L469.2 679.536L469.2 673.304H475.426V679.536Z" fill="#161821"/>
<path d="M523.154 673.304H516.928V667.072H502.403V673.304L487.877 673.304V667.072H481.651V673.304H475.426L475.426 667.072H458.825V660.84H446.374V667.072H440.148V673.304H433.923V615.139H523.154V673.304Z" fill="#161821"/>
<path d="M1046.09 683.691H1039.86V677.459H1046.09V683.691Z" fill="#161821"/>
<path d="M994.209 673.304H987.984V667.072H994.209V673.304Z" fill="#161821"/>
<path d="M987.984 679.536H981.758V673.304L987.984 673.304V679.536Z" fill="#161821"/>
<path d="M1004.58 685.768H998.36V679.536H1004.58V685.768Z" fill="#161821"/>
<path d="M1029.49 685.768H1023.26V679.536H1029.49V685.768Z" fill="#161821"/>
<path d="M1023.26 692H1017.04V685.768L1023.26 685.768V692Z" fill="#161821"/>
<path d="M1052.31 683.691H1046.09V677.459H1052.31V683.691Z" fill="#161821"/>
<path d="M1023.26 679.536L1017.04 679.536V673.304H1023.26V679.536Z" fill="#161821"/>
<path d="M1010.81 679.536L1004.58 679.536V673.304H1010.81V679.536Z" fill="#161821"/>
<path d="M1058.54 673.304H1052.31V667.072H1037.79V673.304L1023.26 673.304V667.072H1017.04V673.304H1010.81V667.072H994.209V660.84H981.758V667.072H975.533V673.304H969.308V615.139H1058.54V673.304Z" fill="#161821"/>
<path d="M421.472 683.691H415.247V677.459H421.472V683.691Z" fill="#161821"/>
<path d="M369.594 673.304H363.369V667.072H369.594V673.304Z" fill="#161821"/>
<path d="M363.369 679.536H357.143V673.304L363.369 673.304V679.536Z" fill="#161821"/>
<path d="M379.97 685.768H373.744V679.536H379.97V685.768Z" fill="#161821"/>
<path d="M404.871 685.768H398.646V679.536H404.871V685.768Z" fill="#161821"/>
<path d="M398.646 692H392.42V685.768L398.646 685.768L398.646 692Z" fill="#161821"/>
<path d="M427.698 683.691H421.472V677.459H427.698V683.691Z" fill="#161821"/>
<path d="M398.646 679.536L392.42 679.536V673.304H398.646L398.646 679.536Z" fill="#161821"/>
<path d="M386.195 679.536L379.97 679.536L379.97 673.304H386.195V679.536Z" fill="#161821"/>
<path d="M433.923 673.304H427.698V667.072H413.172V673.304L398.646 673.304V667.072H392.42V673.304H386.195L386.195 667.072H369.594V660.84H357.143V667.072H350.918V673.304H344.692V615.139H433.923V673.304Z" fill="#161821"/>
<path d="M956.857 683.691H950.631V677.459H956.857V683.691Z" fill="#161821"/>
<path d="M904.979 673.304H898.753V667.072H904.979V673.304Z" fill="#161821"/>
<path d="M898.753 679.536H892.528V673.304L898.753 673.304V679.536Z" fill="#161821"/>
<path d="M915.354 685.768H909.129V679.536H915.354V685.768Z" fill="#161821"/>
<path d="M940.256 685.768H934.03V679.536H940.256V685.768Z" fill="#161821"/>
<path d="M934.03 692H927.805V685.768L934.03 685.768V692Z" fill="#161821"/>
<path d="M963.082 683.691H956.857V677.459H963.082V683.691Z" fill="#161821"/>
<path d="M934.03 679.536L927.805 679.536V673.304H934.03V679.536Z" fill="#161821"/>
<path d="M921.58 679.536L915.354 679.536V673.304H921.58V679.536Z" fill="#161821"/>
<path d="M969.308 673.304H963.082V667.072H948.556V673.304L934.03 673.304V667.072H927.805V673.304H921.58V667.072H904.979V660.84H892.528V667.072H886.302V673.304H880.077V615.139H969.308V673.304Z" fill="#161821"/>
<path d="M332.241 683.691H326.016V677.459H332.241V683.691Z" fill="#161821"/>
<path d="M280.363 673.304H274.138V667.072H280.363V673.304Z" fill="#161821"/>
<path d="M274.138 679.536H267.912V673.304L274.138 673.304L274.138 679.536Z" fill="#161821"/>
<path d="M290.739 685.768H284.513V679.536H290.739V685.768Z" fill="#161821"/>
<path d="M315.64 685.768H309.415V679.536H315.64V685.768Z" fill="#161821"/>
<path d="M309.415 692H303.19V685.768L309.415 685.768L309.415 692Z" fill="#161821"/>
<path d="M338.467 683.691H332.241V677.459H338.467V683.691Z" fill="#161821"/>
<path d="M309.415 679.536L303.19 679.536V673.304H309.415L309.415 679.536Z" fill="#161821"/>
<path d="M296.964 679.536L290.739 679.536L290.739 673.304H296.964V679.536Z" fill="#161821"/>
<path d="M344.692 673.304H338.467V667.072H323.941V673.304L309.415 673.304V667.072H303.19V673.304H296.964L296.964 667.072H280.363V660.84H267.912V667.072H261.687V673.304H255.461V615.139H344.692V673.304Z" fill="#161821"/>
<path d="M867.626 683.691H861.401V677.459H867.626V683.691Z" fill="#161821"/>
<path d="M815.748 673.304H809.522V667.072H815.748V673.304Z" fill="#161821"/>
<path d="M809.522 679.536H803.297V673.304L809.522 673.304V679.536Z" fill="#161821"/>
<path d="M826.123 685.768H819.898V679.536H826.123V685.768Z" fill="#161821"/>
<path d="M851.025 685.768H844.8V679.536H851.025V685.768Z" fill="#161821"/>
<path d="M844.8 692H838.574V685.768L844.8 685.768V692Z" fill="#161821"/>
<path d="M873.852 683.691H867.626V677.459H873.852V683.691Z" fill="#161821"/>
<path d="M844.8 679.536L838.574 679.536V673.304H844.8V679.536Z" fill="#161821"/>
<path d="M832.349 679.536L826.123 679.536L826.123 673.304H832.349V679.536Z" fill="#161821"/>
<path d="M880.077 673.304H873.852V667.072H859.326V673.304L844.8 673.304V667.072H838.574V673.304H832.349V667.072H815.748L815.748 660.84H803.297V667.072H797.072V673.304H790.846V615.139H880.077V673.304Z" fill="#161821"/>
<path d="M243.011 683.691H236.785V677.459H243.011V683.691Z" fill="#161821"/>
<path d="M191.132 673.304H184.907V667.072H191.132V673.304Z" fill="#161821"/>
<path d="M184.907 679.536H178.682V673.304L184.907 673.304L184.907 679.536Z" fill="#161821"/>
<path d="M201.508 685.768H195.283V679.536H201.508V685.768Z" fill="#161821"/>
<path d="M226.41 685.768H220.184V679.536H226.41V685.768Z" fill="#161821"/>
<path d="M220.184 692H213.959V685.768L220.184 685.768L220.184 692Z" fill="#161821"/>
<path d="M249.236 683.691H243.011V677.459H249.236V683.691Z" fill="#161821"/>
<path d="M220.184 679.536L213.959 679.536V673.304H220.184L220.184 679.536Z" fill="#161821"/>
<path d="M207.733 679.536L201.508 679.536L201.508 673.304H207.733V679.536Z" fill="#161821"/>
<path d="M255.461 673.304H249.236V667.072H234.71V673.304L220.184 673.304L220.184 667.072H213.959L213.959 673.304H207.733L207.733 667.072H191.132V660.84H178.682V667.072H172.456V673.304H166.231V615.139H255.461V673.304Z" fill="#161821"/>
<path d="M778.395 683.691H772.17V677.459H778.395V683.691Z" fill="#161821"/>
<path d="M726.517 673.304H720.292V667.072H726.517V673.304Z" fill="#161821"/>
<path d="M720.292 679.536H714.066V673.304L720.292 673.304V679.536Z" fill="#161821"/>
<path d="M736.893 685.768H730.667V679.536H736.893V685.768Z" fill="#161821"/>
<path d="M761.794 685.768H755.569V679.536H761.794V685.768Z" fill="#161821"/>
<path d="M755.569 692H749.343V685.768L755.569 685.768V692Z" fill="#161821"/>
<path d="M784.621 683.691H778.395V677.459H784.621V683.691Z" fill="#161821"/>
<path d="M755.569 679.536L749.343 679.536V673.304H755.569V679.536Z" fill="#161821"/>
<path d="M743.118 679.536L736.893 679.536V673.304H743.118V679.536Z" fill="#161821"/>
<path d="M790.846 673.304H784.621V667.072H770.095V673.304L755.569 673.304V667.072H749.343V673.304H743.118V667.072H726.517V660.84H714.066V667.072H707.841V673.304H701.615V615.139H790.846V673.304Z" fill="#161821"/>
<path d="M153.78 683.691H147.554V677.459H153.78V683.691Z" fill="#161821"/>
<path d="M101.902 673.304H95.6761V667.072H101.902V673.304Z" fill="#161821"/>
<path d="M95.6762 679.536H89.4508V673.304L95.6761 673.304L95.6762 679.536Z" fill="#161821"/>
<path d="M112.277 685.768H106.052V679.536H112.277V685.768Z" fill="#161821"/>
<path d="M137.179 685.768H130.953V679.536H137.179V685.768Z" fill="#161821"/>
<path d="M130.953 692H124.728V685.768L130.953 685.768L130.953 692Z" fill="#161821"/>
<path d="M160.005 683.691H153.78V677.459H160.005V683.691Z" fill="#161821"/>
<path d="M130.953 679.536L124.728 679.536V673.304H130.953L130.953 679.536Z" fill="#161821"/>
<path d="M118.503 679.536L112.277 679.536L112.277 673.304H118.503V679.536Z" fill="#161821"/>
<path d="M166.231 673.304H160.005V667.072H145.479V673.304L130.953 673.304L130.953 667.072H124.728L124.728 673.304H118.503L118.503 667.072H101.902L101.902 660.84H89.4508V667.072H83.2253V673.304H76.9999V615.139H166.231V673.304Z" fill="#161821"/>
<path d="M689.165 683.691H682.939V677.459H689.165V683.691Z" fill="#161821"/>
<path d="M637.286 673.304H631.061V667.072H637.286V673.304Z" fill="#161821"/>
<path d="M631.061 679.536H624.835V673.304L631.061 673.304V679.536Z" fill="#161821"/>
<path d="M647.662 685.768H641.436V679.536H647.662V685.768Z" fill="#161821"/>
<path d="M672.563 685.768H666.338V679.536H672.563V685.768Z" fill="#161821"/>
<path d="M666.338 692H660.113V685.768L666.338 685.768V692Z" fill="#161821"/>
<path d="M695.39 683.691H689.165V677.459H695.39V683.691Z" fill="#161821"/>
<path d="M666.338 679.536L660.113 679.536V673.304H666.338V679.536Z" fill="#161821"/>
<path d="M653.887 679.536L647.662 679.536V673.304H653.887V679.536Z" fill="#161821"/>
<path d="M701.615 673.304H695.39V667.072H680.864V673.304L666.338 673.304V667.072H660.113V673.304H653.887V667.072H637.286V660.84H624.835V667.072H618.61V673.304H612.385V615.139H701.615V673.304Z" fill="#161821"/>
<path d="M1305.7 89.5447V95.7766H1299.47V89.5447H1305.7Z" fill="#161821"/>
<path d="M1295.32 141.477V147.709H1289.1V141.477H1295.32Z" fill="#161821"/>
<path d="M1301.55 147.709V153.941H1295.32L1295.32 147.709L1301.55 147.709Z" fill="#161821"/>
<path d="M1307.77 131.091V137.323H1301.55V131.091H1307.77Z" fill="#161821"/>
<path d="M1307.77 106.163V112.395H1301.55V106.163H1307.77Z" fill="#161821"/>
<path d="M1314 112.395V118.627H1307.77L1307.77 112.395L1314 112.395Z" fill="#161821"/>
<path d="M1305.7 83.3128V89.5447H1299.47V83.3128H1305.7Z" fill="#161821"/>
<path d="M1301.55 112.395L1301.55 118.627H1295.32V112.395L1301.55 112.395Z" fill="#161821"/>
<path d="M1301.55 124.859L1301.55 131.091L1295.32 131.091V124.859H1301.55Z" fill="#161821"/>
<path d="M1295.32 77.0808V83.3127H1289.1V97.8539H1295.32L1295.32 112.395L1289.1 112.395V118.627L1295.32 118.627V124.859L1289.1 124.859V141.477H1282.87V153.941H1289.1V160.173H1295.32V166.405H1237.22V77.0808H1295.32Z" fill="#161821"/>
<path d="M1305.7 178.869V185.101H1299.47V178.869H1305.7Z" fill="#161821"/>
<path d="M1295.32 230.802V237.034H1289.1V230.802H1295.32Z" fill="#161821"/>
<path d="M1301.55 237.034V243.266H1295.32L1295.32 237.034L1301.55 237.034Z" fill="#161821"/>
<path d="M1307.77 220.415V226.647H1301.55V220.415H1307.77Z" fill="#161821"/>
<path d="M1307.77 195.488V201.72H1301.55V195.488H1307.77Z" fill="#161821"/>
<path d="M1314 201.719V207.951H1307.77L1307.77 201.72L1314 201.719Z" fill="#161821"/>
<path d="M1305.7 172.637V178.869H1299.47V172.637H1305.7Z" fill="#161821"/>
<path d="M1301.55 201.72L1301.55 207.951H1295.32V201.719L1301.55 201.72Z" fill="#161821"/>
<path d="M1301.55 214.183L1301.55 220.415L1295.32 220.415V214.183H1301.55Z" fill="#161821"/>
<path d="M1295.32 166.405V172.637H1289.1V187.178H1295.32L1295.32 201.719L1289.1 201.72V207.951L1295.32 207.951V214.183L1289.1 214.183V230.802H1282.87V243.266H1289.1V249.498H1295.32V255.73H1237.22V166.405H1295.32Z" fill="#161821"/>
<path d="M1305.7 268.194V274.425H1299.47V268.194H1305.7Z" fill="#161821"/>
<path d="M1295.32 320.126V326.358H1289.1V320.126H1295.32Z" fill="#161821"/>
<path d="M1301.55 326.358V332.59H1295.32L1295.32 326.358H1301.55Z" fill="#161821"/>
<path d="M1307.77 309.74V315.972H1301.55V309.74H1307.77Z" fill="#161821"/>
<path d="M1307.77 284.812V291.044H1301.55V284.812H1307.77Z" fill="#161821"/>
<path d="M1314 291.044V297.276H1307.77L1307.77 291.044L1314 291.044Z" fill="#161821"/>
<path d="M1305.7 261.962V268.194H1299.47V261.962H1305.7Z" fill="#161821"/>
<path d="M1301.55 291.044L1301.55 297.276H1295.32V291.044L1301.55 291.044Z" fill="#161821"/>
<path d="M1301.55 303.508L1301.55 309.74L1295.32 309.74V303.508H1301.55Z" fill="#161821"/>
<path d="M1295.32 255.73V261.962H1289.1V276.503H1295.32L1295.32 291.044H1289.1V297.276H1295.32V303.508L1289.1 303.508V320.126H1282.87V332.59H1289.1V338.822H1295.32V345.054H1237.22V255.73H1295.32Z" fill="#161821"/>
<path d="M1305.7 357.518V363.75H1299.47V357.518H1305.7Z" fill="#161821"/>
<path d="M1295.32 409.451V415.683H1289.1V409.451H1295.32Z" fill="#161821"/>
<path d="M1301.55 415.683V421.915H1295.32L1295.32 415.683L1301.55 415.683Z" fill="#161821"/>
<path d="M1307.77 399.064V405.296H1301.55V399.064H1307.77Z" fill="#161821"/>
<path d="M1307.77 374.137V380.368H1301.55V374.137H1307.77Z" fill="#161821"/>
<path d="M1314 380.368V386.6H1307.77L1307.77 380.368L1314 380.368Z" fill="#161821"/>
<path d="M1305.7 351.286V357.518H1299.47V351.286H1305.7Z" fill="#161821"/>
<path d="M1301.55 380.368L1301.55 386.6H1295.32V380.368L1301.55 380.368Z" fill="#161821"/>
<path d="M1301.55 392.832L1301.55 399.064L1295.32 399.064V392.832H1301.55Z" fill="#161821"/>
<path d="M1295.32 345.054V351.286H1289.1V365.827H1295.32L1295.32 380.368H1289.1V386.6H1295.32V392.832L1289.1 392.832V409.451H1282.87V421.915H1289.1V428.147H1295.32V434.379H1237.22V345.054H1295.32Z" fill="#161821"/>
<path d="M1305.7 446.842V453.074H1299.47V446.842H1305.7Z" fill="#161821"/>
<path d="M1295.32 498.775V505.007H1289.1V498.775H1295.32Z" fill="#161821"/>
<path d="M1301.55 505.007V511.239H1295.32L1295.32 505.007L1301.55 505.007Z" fill="#161821"/>
<path d="M1307.77 488.388V494.62H1301.55V488.388H1307.77Z" fill="#161821"/>
<path d="M1307.77 463.461V469.693H1301.55V463.461H1307.77Z" fill="#161821"/>
<path d="M1314 469.693V475.925H1307.77L1307.77 469.693L1314 469.693Z" fill="#161821"/>
<path d="M1305.7 440.61V446.842H1299.47V440.61H1305.7Z" fill="#161821"/>
<path d="M1301.55 469.693L1301.55 475.925H1295.32V469.693L1301.55 469.693Z" fill="#161821"/>
<path d="M1301.55 482.157L1301.55 488.388L1295.32 488.389V482.157H1301.55Z" fill="#161821"/>
<path d="M1295.32 434.379V440.61H1289.1V455.152H1295.32L1295.32 469.693L1289.1 469.693V475.925L1295.32 475.925V482.157H1289.1V498.775H1282.87V511.239H1289.1V517.471H1295.32V523.703H1237.22V434.379H1295.32Z" fill="#161821"/>
<path d="M1305.7 536.167V542.399H1299.47V536.167H1305.7Z" fill="#161821"/>
<path d="M1295.32 588.1V594.332H1289.1V588.1H1295.32Z" fill="#161821"/>
<path d="M1301.55 594.332V600.563H1295.32L1295.32 594.332H1301.55Z" fill="#161821"/>
<path d="M1307.77 577.713V583.945H1301.55V577.713H1307.77Z" fill="#161821"/>
<path d="M1307.77 552.785V559.017H1301.55V552.785H1307.77Z" fill="#161821"/>
<path d="M1314 559.017V565.249H1307.77L1307.77 559.017L1314 559.017Z" fill="#161821"/>
<path d="M1305.7 529.935V536.167H1299.47V529.935H1305.7Z" fill="#161821"/>
<path d="M1301.55 559.017L1301.55 565.249H1295.32V559.017L1301.55 559.017Z" fill="#161821"/>
<path d="M1301.55 571.481L1301.55 577.713L1295.32 577.713V571.481H1301.55Z" fill="#161821"/>
<path d="M1295.32 523.703V529.935H1289.1V544.476H1295.32L1295.32 559.017L1289.1 559.017V565.249L1295.32 565.249V571.481H1289.1V588.1H1282.87V600.563H1289.1V606.795H1295.32V613.027H1237.22V523.703H1295.32Z" fill="#161821"/>
<path d="M31.7745 682.49V676.258H37.9999V682.49H31.7745Z" fill="#161821"/>
<path d="M18.4507 637.339V631.107H24.6761V637.339H18.4507Z" fill="#161821"/>
<path d="M12.2253 631.107V624.875H18.4507L18.4507 631.107H12.2253Z" fill="#161821"/>
<path d="M6 647.726V641.494H12.2254V647.726H6Z" fill="#161821"/>
<path d="M48.7745 687.721V681.489H54.9999V687.721H48.7745Z" fill="#161821"/>
<path d="M12.7745 664.697V658.465H18.9999V664.697H12.7745Z" fill="#161821"/>
<path d="M31.7745 688.722V682.49H37.9999V688.722H31.7745Z" fill="#161821"/>
<path d="M22.7745 673.706V667.474H28.9999V673.706H22.7745Z" fill="#161821"/>
<path d="M12.2253 653.957L12.2254 647.726H18.4507V653.957H12.2253Z" fill="#161821"/>
<path d="M40.7745 666.652H31.6317V657.201H25.2031V646.177H18.7745V635.166H31.6317V627.157H25.2031V618.648H18.7745V612.642H78.7745V677.71H71.7745V670.703H60.2745V676.209H48.7745V670.703H40.7745V666.652Z" fill="#161821"/>
<path d="M1284 18.2445V24.4765H1277.77V18.2445H1284Z" fill="#161821"/>
<path d="M1297.32 63.3956V69.6275H1291.1V63.3956H1297.32Z" fill="#161821"/>
<path d="M1303.55 69.6276V75.8595H1297.32V69.6275L1303.55 69.6276Z" fill="#161821"/>
<path d="M1309.77 53.0091V59.241H1303.55V53.0091H1309.77Z" fill="#161821"/>
<path d="M1267 13.0136V19.2456H1260.77V13.0136H1267Z" fill="#161821"/>
<path d="M1303 36.0378V42.2697H1296.77V36.0378H1303Z" fill="#161821"/>
<path d="M1284 12.0126V18.2445H1277.77V12.0126H1284Z" fill="#161821"/>
<path d="M1293 27.0283V33.2603H1286.77V27.0283H1293Z" fill="#161821"/>
<path d="M1303.55 46.7771L1303.55 53.0091H1297.32V46.7771H1303.55Z" fill="#161821"/>
<path d="M1275 34.0822H1284.14V43.534H1290.57V54.5572H1297V65.5687H1284.14V73.5771H1290.57V82.0861H1297V88.0923H1237V23.0241H1244V30.0315H1255.5V24.5257H1267V30.0315H1275V34.0822Z" fill="#161821"/>
<path d="M1306.77 659.692H1300.55V653.46H1306.77V659.692Z" fill="#161821"/>
<path d="M1261.67 673.029H1255.45V666.797H1261.67V673.029Z" fill="#161821"/>
<path d="M1255.45 679.261H1249.22V673.029L1255.45 673.029V679.261Z" fill="#161821"/>
<path d="M1272.05 685.493H1265.82V679.261H1272.05V685.493Z" fill="#161821"/>
<path d="M1312 642.674H1305.77V636.442H1312V642.674Z" fill="#161821"/>
<path d="M1289 678.711H1282.77V672.48H1289V678.711Z" fill="#161821"/>
<path d="M1313 659.692H1306.77V653.46H1313V659.692Z" fill="#161821"/>
<path d="M1298 668.701H1291.77V662.469H1298V668.701Z" fill="#161821"/>
<path d="M1278.27 679.261L1272.05 679.261V673.029H1278.27V679.261Z" fill="#161821"/>
<path d="M1290.95 650.682V659.835H1281.51V666.27H1270.5V672.705H1259.5V659.835H1251.5V666.27H1243V672.705H1237V612.642H1302V619.65H1295V631.162H1300.5V642.674H1295V650.682H1290.95Z" fill="#161821"/>
</mask>
<g mask="url(#mask0_450_10740)">
<path d="M-99.7622 685.347H-105V392.411H1439V694.398H1431.43V685.347H1424.45V694.398H1417.47V706.741H1411.06V694.398H1404.66V685.347H1397.1V694.398H1389.53V706.741H1381.97V694.398H1375.56V685.347H1368V694.398H1361.6V706.741H1353.45V694.398H1347.05V685.347H1339.48V694.398H1333.66V706.741H1325.51V694.398H1317.95V685.347H1310.96V694.398H1303.98V706.741H1297V694.398H1290.59V685.347H1283.03V694.398H1276.63V706.741H1268.48V694.398H1261.5V685.347H1253.93V694.398H1246.95V706.741H1239.96V694.398H1233.56V685.347H1225.41V694.398H1218.43V706.741H1210.28V694.398H1203.3V685.347C1203.3 682.714 1198.64 684.25 1196.31 685.347V694.398H1191.08V706.741L1182.35 706.741V694.398L1176.53 694.398V685.347H1171.29H1169.54V694.398H1162.56V706.741H1156.16V694.398H1149.75V685.347H1142.19V694.398H1134.62V706.741H1127.06V694.398H1120.66V685.347H1113.09V694.398H1106.69V706.741H1098.54V694.398H1092.14V685.347H1084.57V694.398H1078.75V706.741H1070.6V694.398H1063.04V685.347H1056.06V694.398H1049.07V706.741H1042.09V694.398H1035.69V685.347H1028.12V694.398H1021.72V706.741H1013.57V694.398H1006.59V685.347H999.021V694.398H992.037V706.741H985.054V694.398H978.652V685.347H970.504V694.398H963.52V706.741H955.372V694.398H948.389V685.347H941.405V694.398H936.167V706.741L927.437 706.741V694.398L921.617 694.398V685.347H914.634V694.398H907.65V706.741H901.248V694.398H894.846V685.347H887.28V694.398H879.715V706.741H872.149V694.398H865.747V685.347H858.181V694.398H851.78V706.741H843.632V694.398H837.23V685.347H829.664V694.398H823.844V706.741H815.697V694.398H808.131V685.347H801.147V694.398H794.163V706.741H787.179V694.398H780.778V685.347H773.212V694.398H766.81V706.741H758.662V694.398H751.678V685.347H744.113V694.398H737.129V706.741H730.145V694.398H723.743V685.347H715.596V694.398H708.612V706.741H700.464V694.398H693.48V685.347H686.496V694.398H681.259V706.741L672.529 706.741V694.398L666.709 694.399V685.348L661.471 685.347L657.979 685.347V694.398H650.995V706.741H644.594V694.398H638.192V685.347H630.626V694.398H623.06V706.741H615.495V694.398H609.093V685.347H601.527V694.398H595.125V706.741H586.977V694.398H580.576V685.347H573.01V694.398H567.19V706.741H559.042V694.398H551.476V685.347H544.493V694.398H537.509V706.741H530.525V694.398H524.123V685.347H516.557V694.398H510.156V706.741H502.008V694.398H495.024V685.347H487.458V694.398H480.475V706.741H473.491V694.398H467.089V685.347H458.941V694.398H451.957V706.741H443.81V694.398H436.826V685.347C436.826 682.714 432.17 684.25 429.842 685.347V694.398H424.604V706.741L415.875 706.741V694.398L410.055 694.398V685.347H404.817H403.071V694.398H396.087V706.741H389.685V694.398H383.283V685.347H375.718V694.398H368.152V706.741H360.586V694.398H354.184V685.347H346.619V694.398H340.217V706.741H332.069V694.398H325.667V685.347H318.101V694.398H312.282V706.741H304.134V694.398H296.568V685.347H289.584V694.398H282.6V706.741H275.617V694.398H269.215V685.347H261.649V694.398H255.247V706.741H247.1V694.398H240.116V685.347H232.55V694.398H225.566V706.741H218.582V694.398H212.181V685.347H204.033V694.398H197.049V706.741H188.901V694.398H181.917V685.347H174.934V694.398H169.696V706.741L160.966 706.741V694.398L155.146 694.398V685.347H148.162V694.398H141.179V706.741H134.777V694.398H128.375V685.347H120.809V694.398H113.243V706.741H105.678V694.398H99.2759V685.347H91.7101V694.398H85.3083V706.741H77.1606V694.398H70.7588V685.347H63.193V694.398H57.3732V706.741H49.2254V694.398H41.6596V685.347H34.6758V694.398H27.692V706.741H20.7083V694.398H14.3064V685.347H6.74068V694.398H0.338867V706.741H-7.80889V694.398H-14.7927V685.347H-22.3585V694.398H-29.3423V706.741H-36.326V694.398H-42.7279V685.347H-50.8756V694.398H-57.8594V706.741H-66.0072V694.398H-72.991V685.347C-72.991 682.714 -77.6468 684.25 -79.9747 685.347V694.398H-85.2126V706.741H-93.9423V694.398H-99.7622V685.347Z" fill="#151720"/>
<path d="M-488.109 546.704H-496V233.245H1830V556.389H1818.6V546.704H1808.08V556.389H1797.56V569.597H1787.92V556.389H1778.27V546.704H1766.87V556.389H1755.48V569.597H1744.08V556.389H1734.44V546.704H1723.04V556.389H1713.39V569.597H1701.12V556.389H1691.47V546.704H1680.08V556.389H1671.31V569.597H1659.04V556.389H1647.64V546.704H1637.12V556.389H1626.6V569.597H1616.07V556.389H1606.43V546.704H1595.03V556.389H1585.39V569.597H1573.11V556.389H1562.59V546.704H1551.2V556.389H1540.67V569.597H1530.15V556.389H1520.51V546.704H1508.24V556.389H1497.71V569.597H1485.44V556.389H1474.92V546.704C1474.92 543.886 1467.91 545.53 1464.4 546.704V556.389H1456.51V569.597L1443.36 569.597V556.39L1434.59 556.389V546.704H1426.7H1424.07V556.389H1413.55V569.597H1403.9V556.389H1394.26V546.704H1382.86V556.389H1371.46V569.597H1360.07V556.389H1350.42V546.704H1339.02V556.389H1329.38V569.597H1317.11V556.389H1307.46V546.704H1296.06V556.389H1287.3V569.597H1275.02V556.389H1263.62V546.704H1253.1V556.389H1242.58V569.597H1232.06V556.389H1222.42V546.704H1211.02V556.389H1201.38V569.597H1189.1V556.389H1178.58V546.704H1167.18V556.389H1156.66V569.597H1146.14V556.389H1136.5V546.704H1124.22V556.389H1113.7V569.597H1101.43V556.389H1090.91V546.704H1080.38V556.389H1072.49V569.597L1059.34 569.597V556.39L1050.58 556.389V546.704H1040.05V556.389H1029.53V569.597H1019.89V556.389H1010.24V546.704H998.847V556.389H987.45V569.597H976.052V556.389H966.408V546.704H955.01V556.389H945.366V569.597H933.092V556.389H923.447V546.704H912.05V556.389H903.282V569.597H891.008V556.389H879.61V546.704H869.089V556.389H858.568V569.597H848.047V556.389H838.403V546.704H827.006V556.389H817.361V569.597H805.087V556.389H794.566V546.704H783.168V556.389H772.648V569.597H762.127V556.389H752.482V546.704H740.208V556.389H729.687V569.597H717.413V556.389H706.892V546.704H696.371V556.389H688.48V569.597L675.329 569.597V556.389L666.562 556.391V546.705L658.671 546.704L653.411 546.704V556.389H642.89V569.597H633.245V556.389H623.601V546.704H612.204V556.389H600.806V569.597H589.408V556.389H579.764V546.704H568.366V556.389H558.722V569.597H546.448V556.389H536.804V546.704H525.406V556.389H516.639V569.597H504.364V556.389H492.966V546.704H482.446V556.389H471.925V569.597H461.404V556.389H451.76V546.704H440.362V556.389H430.718V569.597H418.443V556.389H407.922V546.704H396.525V556.389H386.004V569.597H375.483V556.389H365.839V546.704H353.564V556.389H343.043V569.597H330.769V556.389H320.248V546.704H309.727V556.389H301.836V569.597L288.685 569.597V556.39L279.918 556.389V546.704H272.027H269.397V556.389H258.876V569.597H249.232V556.389H239.588V546.704H228.19V556.389H216.792V569.597H205.395V556.389H195.75V546.704H184.353V556.389H174.709V569.597H162.434V556.389H152.79V546.704H141.392V556.389H132.625V569.597H120.351V556.389H108.953V546.704H98.4319V556.389H87.9111V569.597H77.3901V556.389H67.746V546.704H56.3483V556.389H46.7041V569.597H34.4297V556.389H23.9088V546.704H12.5111V556.389H1.9902V569.597H-8.5307V556.389H-18.1749V546.704H-30.4493V556.389H-40.9702V569.597H-53.2446V556.389H-63.7655V546.704H-74.2865V556.389H-82.1772V569.597L-95.3283 569.597V556.39L-104.096 556.389V546.704H-114.617V556.389H-125.138V569.597H-134.782V556.389H-144.426V546.704H-155.824V556.389H-167.221V569.597H-178.619V556.389H-188.263V546.704H-199.661V556.389H-209.305V569.597H-221.579V556.389H-231.224V546.704H-242.621V556.389H-251.389V569.597H-263.663V556.389H-275.061V546.704H-285.582V556.389H-296.103V569.597H-306.623V556.389H-316.268V546.704H-327.665V556.389H-337.309V569.597H-349.584V556.389H-360.105V546.704H-371.502V556.389H-382.023V569.597H-392.544V556.389H-402.188V546.704H-414.463V556.389H-424.984V569.597H-437.258V556.389H-447.779V546.704C-447.779 543.886 -454.793 545.53 -458.3 546.704V556.389H-466.191V569.597H-479.342V556.389H-488.109V546.704Z" fill="#1A1C29"/>
<path d="M-195.111 280.786H-201V-14.0146H1535V289.896H1526.49V280.787H1518.64V289.896H1510.79V302.317H1503.59V289.896H1496.39V280.787H1487.89V289.896H1479.38V302.317H1470.87V289.896H1463.68V280.787H1455.17V289.896H1447.97V302.317H1438.81V289.896H1431.61V280.787H1423.11V289.896H1416.56V302.317H1407.4V289.896H1398.89V280.787H1391.04V289.896H1383.19V302.317H1375.34V289.896H1368.14V280.787H1359.63V289.896H1352.44V302.317H1343.27V289.896H1335.42V280.787H1326.92V289.896H1319.06V302.317H1311.21V289.896H1304.01V280.787H1294.85V289.896H1287V302.317H1277.84V289.896H1269.99V280.787C1269.99 278.137 1264.75 279.682 1262.13 280.787V289.896H1256.25V302.317L1246.43 302.317V289.896L1239.89 289.896V280.787H1234H1232.03V289.896H1224.18V302.317H1216.98V289.896H1209.79V280.787H1201.28V289.896H1192.77V302.317H1184.27V289.896H1177.07V280.787H1168.56V289.896H1161.36V302.317H1152.2V289.896H1145.01V280.787H1136.5V289.896H1129.96V302.317H1120.79V289.896H1112.29V280.787H1104.44V289.896H1096.58V302.317H1088.73V289.896H1081.53V280.787H1073.03V289.896H1065.83V302.317H1056.67V289.896H1048.82V280.787H1040.31V289.896H1032.46V302.317H1024.6V289.896H1017.41V280.787H1008.25V289.896H1000.39V302.317H991.232V289.896H983.38V280.787H975.528V289.896H969.639V302.317L959.823 302.317V289.896L953.28 289.896V280.787H945.427V289.896H937.575V302.317H930.377V289.896H923.179V280.787H914.673V289.896H906.166V302.317H897.66V289.896H890.462V280.787H881.955V289.896H874.757V302.317H865.596V289.896H858.398V280.787H849.892V289.896H843.348V302.317H834.187V289.896H825.681V280.787H817.828V289.896H809.976V302.317H802.124V289.896H794.926V280.787H786.419V289.896H779.222V302.317H770.061V289.896H762.208V280.787H753.702V289.896H745.85V302.317H737.997V289.896H730.799V280.787H721.638V289.896H713.786V302.317H704.625V289.896H696.773V280.787H688.921V289.896H683.032V302.317H673.216V289.895L666.673 289.897V280.788L660.784 280.787L656.858 280.786V289.895H649.005V302.317H641.807V289.895H634.609V280.786H626.103V289.895H617.596V302.317H609.09V289.895H601.892V280.786H593.385V289.895H586.187V302.317H577.026V289.895H569.828V280.786H561.322V289.895H554.778V302.317H545.617V289.895H537.111V280.786H529.259V289.895H521.406V302.317H513.554V289.895H506.356V280.786H497.85V289.895H490.652V302.317H481.491V289.895H473.639V280.786H465.132V289.895H457.28V302.317H449.427V289.895H442.23V280.786H433.069V289.895H425.216V302.317H416.055V289.895H408.203V280.786H400.351V289.895H394.462V302.317L384.646 302.317V289.896L378.103 289.895V280.786H372.214H370.251V289.895H362.398V302.317H355.201V289.895H348.003V280.786H339.496V289.895H330.989V302.317H322.483V289.895H315.285V280.786H306.778V289.895H299.58V302.317H290.42V289.895H283.222V280.786H274.715V289.895H268.172V302.317H259.011V289.895H250.504V280.786H242.652V289.895H234.799V302.317H226.947V289.895H219.749V280.786H211.243V289.895H204.045V302.317H194.884V289.895H187.032V280.786H178.525V289.895H170.673V302.317H162.821V289.895H155.623V280.786H146.462V289.895H138.609V302.317H129.449V289.895H121.596V280.786H113.744V289.895H107.855V302.317L98.0396 302.317V289.896L91.496 289.895V280.786H83.6438V289.895H75.7916V302.317H68.5937V289.895H61.3958V280.786H52.8892V289.895H44.3826V302.317H35.876V289.895H28.6781V280.786H20.1715V289.895H12.9736V302.317H3.81267V289.895H-3.38522V280.786H-11.8918V289.895H-18.4354V302.317H-27.5963V289.895H-36.1029V280.786H-43.9551V289.895H-51.8074V302.317H-59.6596V289.895H-66.8575V280.786H-75.3641V289.895H-82.562V302.317H-91.723V289.895H-99.5752V280.786H-108.082V289.895H-115.934V302.317H-123.786V289.895H-130.984V280.786H-140.145V289.895H-147.997V302.317H-157.158V289.895H-165.011V280.786C-165.011 278.137 -170.245 279.682 -172.863 280.786V289.895H-178.752V302.317H-188.567V289.895H-195.111V280.786Z" fill="#202333"/>
</g>
</svg>
