<svg width="1317" height="319" viewBox="0 0 1317 319" fill="none" xmlns="http://www.w3.org/2000/svg">
<rect x="179" y="59" width="6" height="6" fill="#CBA963"/>
<rect x="179" y="65" width="6" height="6" fill="#E1C37D"/>
<rect x="191" y="65" width="6" height="6" fill="#B47E41"/>
<rect x="185" y="65" width="6" height="6" fill="#E5CD78"/>
<rect x="191" y="71" width="6" height="6" fill="#B47E41"/>
<rect x="191" y="77" width="6" height="6" fill="#DCBA71"/>
<rect x="191" y="83" width="6" height="6" fill="#DCBA71"/>
<rect x="191" y="89" width="6" height="6" fill="#DCBA71"/>
<rect x="197" y="65" width="6" height="6" fill="#A56D39"/>
<rect x="185" y="71" width="6" height="6" fill="#DCBA71"/>
<rect x="185" y="77" width="6" height="6" fill="#E5CD78"/>
<rect x="185" y="59" width="6" height="6" fill="#AE7F45"/>
<rect x="197" y="71" width="6" height="6" fill="#B98E51"/>
<rect x="197" y="77" width="6" height="6" fill="#492D12"/>
<rect x="209" y="77" width="6" height="6" fill="#AE9E7C"/>
<rect x="221" y="77" width="6" height="6" fill="#E5BA94"/>
<rect x="221" y="71" width="6" height="6" fill="#E9C79F"/>
<rect x="233" y="77" width="6" height="6" fill="#E1C79E"/>
<rect x="233" y="71" width="6" height="6" fill="#F2D8B1"/>
<rect x="245" y="77" width="6" height="6" fill="#C7AF88"/>
<rect x="245" y="71" width="6" height="6" fill="#D7BE9C"/>
<rect x="257" y="77" width="6" height="6" fill="#C4AD9A"/>
<rect x="197" y="83" width="6" height="6" fill="#492D12"/>
<rect x="209" y="83" width="6" height="6" fill="#EACF9F"/>
<rect x="221" y="83" width="6" height="6" fill="#E8CB9E"/>
<rect x="233" y="83" width="6" height="6" fill="#CEB88C"/>
<rect x="245" y="83" width="6" height="6" fill="#CEB88C"/>
<rect x="257" y="83" width="6" height="6" fill="#DCC69A"/>
<rect x="197" y="89" width="6" height="6" fill="#DEBF73"/>
<rect x="209" y="89" width="6" height="6" fill="#F6DCAD"/>
<rect x="221" y="89" width="6" height="6" fill="#F5E1B4"/>
<rect x="233" y="89" width="6" height="6" fill="#CEB88C"/>
<rect x="245" y="89" width="6" height="6" fill="#DCC69A"/>
<rect x="257" y="89" width="6" height="6" fill="#DCC69A"/>
<rect x="197" y="95" width="6" height="6" fill="#DEBF73"/>
<rect x="209" y="95" width="6" height="6" fill="#492D12"/>
<rect x="221" y="95" width="6" height="6" fill="#FAE6B9"/>
<rect x="233" y="95" width="6" height="6" fill="#CEB88C"/>
<rect x="245" y="95" width="6" height="6" fill="#DCC69A"/>
<rect x="257" y="95" width="6" height="6" fill="#76614C"/>
<rect x="197" y="101" width="6" height="6" fill="#DEBF73"/>
<rect x="191" y="101" width="6" height="6" fill="#7C6854"/>
<rect x="209" y="101" width="6" height="6" fill="#AF803D"/>
<rect x="221" y="101" width="6" height="6" fill="#D8C396"/>
<rect x="233" y="101" width="6" height="6" fill="#CEB88C"/>
<rect x="245" y="101" width="6" height="6" fill="#A89066"/>
<rect x="257" y="101" width="6" height="6" fill="#76614C"/>
<rect x="197" y="107" width="6" height="6" fill="#7C6854"/>
<rect x="191" y="107" width="6" height="6" fill="#7C6854"/>
<rect x="209" y="107" width="6" height="6" fill="#DFBA6A"/>
<rect x="221" y="107" width="6" height="6" fill="#492D12"/>
<rect x="233" y="107" width="6" height="6" fill="#D7C195"/>
<rect x="245" y="107" width="6" height="6" fill="#A89066"/>
<rect x="257" y="107" width="6" height="6" fill="#483923"/>
<rect x="197" y="113" width="6" height="6" fill="#7C6854"/>
<rect x="197" y="125" width="6" height="6" fill="#6F6046"/>
<rect x="197" y="137" width="6" height="6" fill="#725F4C"/>
<rect x="191" y="125" width="6" height="6" fill="#635A4B"/>
<rect x="191" y="113" width="6" height="6" fill="#7C6854"/>
<rect x="209" y="125" width="6" height="6" fill="#8B7A61"/>
<rect x="221" y="125" width="6" height="6" fill="#B39979"/>
<rect x="209" y="113" width="6" height="6" fill="#B39979"/>
<rect x="233" y="125" width="6" height="6" fill="#6D4026"/>
<rect x="209" y="137" width="6" height="6" fill="#725F4C"/>
<rect x="245" y="125" width="6" height="6" fill="#CBAD82"/>
<rect x="221" y="113" width="6" height="6" fill="#AF803D"/>
<rect x="257" y="125" width="6" height="6" fill="#725233"/>
<rect x="221" y="137" width="6" height="6" fill="#917959"/>
<rect x="197" y="131" width="6" height="6" fill="#4C3E30"/>
<rect x="233" y="113" width="6" height="6" fill="#DDC799"/>
<rect x="191" y="131" width="6" height="6" fill="#594B3C"/>
<rect x="233" y="137" width="6" height="6" fill="#74624B"/>
<rect x="209" y="131" width="6" height="6" fill="#473829"/>
<rect x="245" y="113" width="6" height="6" fill="#A89066"/>
<rect x="221" y="131" width="6" height="6" fill="#92795A"/>
<rect x="245" y="137" width="6" height="6" fill="#946C40"/>
<rect x="233" y="131" width="6" height="6" fill="#DDBB70"/>
<rect x="257" y="113" width="6" height="6" fill="#483923"/>
<rect x="245" y="131" width="6" height="6" fill="#492D12"/>
<rect x="257" y="137" width="6" height="6" fill="#997750"/>
<rect x="257" y="131" width="6" height="6" fill="#6F5331"/>
<rect x="197" y="119" width="6" height="6" fill="#6E6043"/>
<rect x="197" y="143" width="6" height="6" fill="#725F4C"/>
<rect x="191" y="119" width="6" height="6" fill="#635A4B"/>
<rect x="209" y="119" width="6" height="6" fill="#B39979"/>
<rect x="209" y="143" width="6" height="6" fill="#4C4130"/>
<rect x="209" y="149" width="6" height="6" fill="#5A4B3C"/>
<rect x="209" y="155" width="6" height="6" fill="#5A4B3C"/>
<rect x="221" y="119" width="6" height="6" fill="#DDBB70"/>
<rect x="221" y="149" width="6" height="6" fill="#4C4130"/>
<rect x="221" y="155" width="6" height="6" fill="#4C4130"/>
<rect x="221" y="143" width="6" height="6" fill="#4C4130"/>
<rect x="221" y="161" width="6" height="6" fill="#322B20"/>
<rect x="233" y="149" width="6" height="6" fill="#4C4130"/>
<rect x="233" y="119" width="6" height="6" fill="#492D12"/>
<rect x="227" y="149" width="6" height="6" fill="#4C4130"/>
<rect x="233" y="155" width="6" height="6" fill="#4C4130"/>
<rect x="233" y="143" width="6" height="6" fill="#74624B"/>
<rect x="239" y="149" width="6" height="6" fill="#4C4130"/>
<rect x="227" y="155" width="6" height="6" fill="#4C4130"/>
<rect x="233" y="161" width="6" height="6" fill="#42362A"/>
<rect x="227" y="143" width="6" height="6" fill="#4C4130"/>
<rect x="239" y="155" width="6" height="6" fill="#4C4130"/>
<rect x="245" y="149" width="6" height="6" fill="#4C3E34"/>
<rect x="227" y="161" width="6" height="6" fill="#42362A"/>
<rect x="245" y="155" width="6" height="6" fill="#4C3E34"/>
<rect x="239" y="143" width="6" height="6" fill="#4C4130"/>
<rect x="257" y="149" width="6" height="6" fill="#583F21"/>
<rect x="257" y="155" width="6" height="6" fill="#E6C979"/>
<rect x="239" y="161" width="6" height="6" fill="#42362A"/>
<rect x="245" y="119" width="6" height="6" fill="#A89066"/>
<rect x="245" y="143" width="6" height="6" fill="#E6C979"/>
<rect x="245" y="161" width="6" height="6" fill="#32281C"/>
<rect x="257" y="119" width="6" height="6" fill="#483923"/>
<rect x="257" y="143" width="6" height="6" fill="#492D12"/>
<rect x="257" y="161" width="6" height="6" fill="#4C4637"/>
<rect x="203" y="71" width="6" height="6" fill="#A56D39"/>
<rect x="203" y="77" width="6" height="6" fill="#B98E51"/>
<rect x="215" y="77" width="6" height="6" fill="#DFCBA3"/>
<rect x="227" y="77" width="6" height="6" fill="#E3C698"/>
<rect x="227" y="71" width="6" height="6" fill="#F1CB95"/>
<rect x="239" y="77" width="6" height="6" fill="#C8B088"/>
<rect x="239" y="71" width="6" height="6" fill="#D3B88C"/>
<rect x="251" y="77" width="6" height="6" fill="#BAA685"/>
<rect x="251" y="71" width="6" height="6" fill="#CBB69A"/>
<rect x="263" y="77" width="6" height="6" fill="#9A8A7F"/>
<rect x="269" y="101" width="6" height="6" fill="#76614C"/>
<rect x="203" y="83" width="6" height="6" fill="#E6C69F"/>
<rect x="275" y="101" width="6" height="6" fill="#76614C"/>
<rect x="281" y="101" width="6" height="6" fill="#696055"/>
<rect x="215" y="83" width="6" height="6" fill="#F9DDA9"/>
<rect x="227" y="83" width="6" height="6" fill="#D7C195"/>
<rect x="239" y="83" width="6" height="6" fill="#CEB88C"/>
<rect x="251" y="83" width="6" height="6" fill="#DCC69A"/>
<rect x="263" y="83" width="6" height="6" fill="#DCC69A"/>
<rect x="203" y="101" width="6" height="6" fill="#DFBA6A"/>
<rect x="215" y="101" width="6" height="6" fill="#492D12"/>
<rect x="227" y="101" width="6" height="6" fill="#D7C195"/>
<rect x="239" y="101" width="6" height="6" fill="#DCC69A"/>
<rect x="251" y="101" width="6" height="6" fill="#76614C"/>
<rect x="263" y="101" width="6" height="6" fill="#483923"/>
<rect x="269" y="83" width="6" height="6" fill="#8E7A72"/>
<rect x="203" y="89" width="6" height="6" fill="#492D12"/>
<rect x="269" y="125" width="6" height="6" fill="#483923"/>
<rect x="269" y="107" width="6" height="6" fill="#483923"/>
<rect x="215" y="89" width="6" height="6" fill="#E9CCA1"/>
<rect x="275" y="125" width="6" height="6" fill="#483923"/>
<rect x="275" y="107" width="6" height="6" fill="#76614C"/>
<rect x="281" y="125" width="6" height="6" fill="#4E3F34"/>
<rect x="281" y="107" width="6" height="6" fill="#696055"/>
<rect x="203" y="107" width="6" height="6" fill="#B39979"/>
<rect x="215" y="107" width="6" height="6" fill="#AF803D"/>
<rect x="227" y="89" width="6" height="6" fill="#CEB88C"/>
<rect x="239" y="89" width="6" height="6" fill="#D7C195"/>
<rect x="251" y="107" width="6" height="6" fill="#76614C"/>
<rect x="203" y="125" width="6" height="6" fill="#7F6D5D"/>
<rect x="263" y="107" width="6" height="6" fill="#483923"/>
<rect x="215" y="125" width="6" height="6" fill="#B39979"/>
<rect x="251" y="89" width="6" height="6" fill="#DCC69A"/>
<rect x="227" y="125" width="6" height="6" fill="#DDBB70"/>
<rect x="263" y="89" width="6" height="6" fill="#76614C"/>
<rect x="239" y="125" width="6" height="6" fill="#492D12"/>
<rect x="269" y="89" width="6" height="6" fill="#8B786A"/>
<rect x="251" y="125" width="6" height="6" fill="#725233"/>
<rect x="269" y="113" width="6" height="6" fill="#483923"/>
<rect x="263" y="125" width="6" height="6" fill="#483923"/>
<rect x="269" y="137" width="6" height="6" fill="#594934"/>
<rect x="275" y="89" width="6" height="6" fill="#786F64"/>
<rect x="275" y="113" width="6" height="6" fill="#76614C"/>
<rect x="269" y="131" width="6" height="6" fill="#6F4E2E"/>
<rect x="275" y="137" width="6" height="6" fill="#4B4235"/>
<rect x="281" y="113" width="6" height="6" fill="#625447"/>
<rect x="275" y="131" width="6" height="6" fill="#4D3F34"/>
<rect x="281" y="131" width="6" height="6" fill="#4E3F34"/>
<rect x="203" y="95" width="6" height="6" fill="#AF803D"/>
<rect x="203" y="131" width="6" height="6" fill="#4C3E30"/>
<rect x="215" y="95" width="6" height="6" fill="#EFE1AF"/>
<rect x="215" y="131" width="6" height="6" fill="#B39979"/>
<rect x="227" y="95" width="6" height="6" fill="#CEB88C"/>
<rect x="239" y="95" width="6" height="6" fill="#DCC69A"/>
<rect x="251" y="95" width="6" height="6" fill="#DCC69A"/>
<rect x="251" y="131" width="6" height="6" fill="#C5A982"/>
<rect x="203" y="113" width="6" height="6" fill="#B39979"/>
<rect x="263" y="131" width="6" height="6" fill="#785936"/>
<rect x="203" y="137" width="6" height="6" fill="#725F4C"/>
<rect x="215" y="113" width="6" height="6" fill="#DFBA6A"/>
<rect x="215" y="137" width="6" height="6" fill="#725F4C"/>
<rect x="227" y="113" width="6" height="6" fill="#492D12"/>
<rect x="227" y="137" width="6" height="6" fill="#8D7857"/>
<rect x="227" y="131" width="6" height="6" fill="#74624B"/>
<rect x="227" y="119" width="6" height="6" fill="#AF803D"/>
<rect x="239" y="119" width="6" height="6" fill="#F5DCB4"/>
<rect x="239" y="131" width="6" height="6" fill="#825930"/>
<rect x="239" y="113" width="6" height="6" fill="#A89066"/>
<rect x="239" y="137" width="6" height="6" fill="#DDBB70"/>
<rect x="251" y="113" width="6" height="6" fill="#76614C"/>
<rect x="269" y="149" width="6" height="6" fill="#221B09"/>
<rect x="251" y="137" width="6" height="6" fill="#492D12"/>
<rect x="269" y="155" width="6" height="6" fill="#492D12"/>
<rect x="263" y="113" width="6" height="6" fill="#483923"/>
<rect x="263" y="137" width="6" height="6" fill="#785836"/>
<rect x="275" y="149" width="6" height="6" fill="#AD954B"/>
<rect x="263" y="95" width="6" height="6" fill="#76614C"/>
<rect x="275" y="155" width="6" height="6" fill="#211909"/>
<rect x="269" y="95" width="6" height="6" fill="#76614C"/>
<rect x="269" y="119" width="6" height="6" fill="#483923"/>
<rect x="269" y="143" width="6" height="6" fill="#795C3F"/>
<rect x="269" y="161" width="6" height="6" fill="#D5B76C"/>
<rect x="275" y="95" width="6" height="6" fill="#7C6D5F"/>
<rect x="215" y="149" width="6" height="6" fill="#5A4B3C"/>
<rect x="275" y="119" width="6" height="6" fill="#483923"/>
<rect x="275" y="143" width="6" height="6" fill="#534230"/>
<rect x="215" y="155" width="6" height="6" fill="#5A4B3C"/>
<rect x="275" y="161" width="6" height="6" fill="#492D12"/>
<rect x="275" y="167" width="6" height="6" fill="#D5B76C"/>
<rect x="281" y="167" width="6" height="6" fill="#D5B76C"/>
<rect x="281" y="161" width="6" height="6" fill="#C6A459"/>
<rect x="281" y="155" width="6" height="6" fill="#4D3315"/>
<path d="M281 149H287V155H281V149Z" fill="#A26E42"/>
<rect x="287" y="161" width="6" height="6" fill="#B37A41"/>
<rect x="287" y="167" width="6" height="6" fill="#C6A459"/>
<rect x="287" y="155" width="6" height="6" fill="#AB8249"/>
<rect x="293" y="167" width="6" height="6" fill="#B57B3C"/>
<rect x="293" y="173" width="6" height="6" fill="#B7A066"/>
<rect x="287" y="173" width="6" height="6" fill="#D1B870"/>
<rect x="281" y="119" width="6" height="6" fill="#4F4135"/>
<rect x="251" y="149" width="6" height="6" fill="#E6C979"/>
<rect x="203" y="119" width="6" height="6" fill="#B39979"/>
<rect x="251" y="155" width="6" height="6" fill="#4C3E34"/>
<rect x="203" y="143" width="6" height="6" fill="#4C4130"/>
<rect x="263" y="149" width="6" height="6" fill="#492D12"/>
<rect x="263" y="155" width="6" height="6" fill="#D7B46B"/>
<rect x="203" y="149" width="6" height="6" fill="#5A4B3C"/>
<rect x="215" y="119" width="6" height="6" fill="#DFBA6A"/>
<rect x="215" y="143" width="6" height="6" fill="#4C4130"/>
<rect x="227" y="107" width="6" height="6" fill="#E0C79C"/>
<rect x="239" y="107" width="6" height="6" fill="#DCC69A"/>
<rect x="251" y="119" width="6" height="6" fill="#483923"/>
<rect x="251" y="143" width="6" height="6" fill="#5A4123"/>
<rect x="251" y="161" width="6" height="6" fill="#322D29"/>
<rect x="263" y="119" width="6" height="6" fill="#483923"/>
<rect x="263" y="143" width="6" height="6" fill="#6D5230"/>
<path d="M1045.82 127H1041.96V128.297H1040.46V129.378H1039.29V131H1038V135H1039.29V136.297H1040.46V137.595H1041.96V139H1045.82V137.595H1047.32V136.297H1048.71V135H1050V131H1048.71V129.378H1047.32V128.297H1045.82V127Z" fill="#1F2E54"/>
<path d="M1045.93 128.514H1042.07V129.811H1040.68V131.108H1039.29V135.108H1040.68V136.405H1042.07V137.811H1045.93V136.405H1047.21V135.108H1048.61V131.108H1047.21V129.811H1045.93V128.514Z" fill="#3E5291"/>
<path d="M1041.86 130.027H1045.61V131.216H1047.11V135.108H1045.61V136.189H1041.86V135.108H1040.79V131.216H1041.86V130.027Z" fill="#AFC1EF"/>
<path d="M1045.18 133.703V131.324H1042.93V132.405H1044V133.703H1045.18Z" fill="#C4D8FA"/>
<path d="M544.821 127H540.964V128.297H539.464V129.378H538.286V131H537V135H538.286V136.297H539.464V137.595H540.964V139H544.821V137.595H546.321V136.297H547.714V135H549V131H547.714V129.378H546.321V128.297H544.821V127Z" fill="#1F2E54"/>
<path d="M544.929 128.514H541.072V129.811H539.679V131.108H538.286V135.108H539.679V136.405H541.072V137.811H544.929V136.405H546.215V135.108H547.608V131.108H546.215V129.811H544.929V128.514Z" fill="#3E5291"/>
<path d="M540.858 130.027H544.608V131.216H546.108V135.108H544.608V136.189H540.858V135.108H539.786V131.216H540.858V130.027Z" fill="#AFC1EF"/>
<path d="M544.179 133.703V131.324H541.929V132.405H543.001V133.703H544.179Z" fill="#C4D8FA"/>
<path d="M762.821 0H758.964V1.2973H757.464V2.37838H756.286V4H755V8H756.286V9.2973H757.464V10.5946H758.964V12H762.821V10.5946H764.321V9.2973H765.714V8H767V4H765.714V2.37838H764.321V1.2973H762.821V0Z" fill="#1F2E54"/>
<path d="M762.929 1.51353H759.072V2.81083H757.679V4.10813H756.286V8.10813H757.679V9.40543H759.072V10.8108H762.929V9.40543H764.215V8.10813H765.608V4.10813H764.215V2.81083H762.929V1.51353Z" fill="#3E5291"/>
<path d="M758.858 3.02705H762.608V4.21624H764.108V8.10813H762.608V9.18921H758.858V8.10813H757.786V4.21624H758.858V3.02705Z" fill="#AFC1EF"/>
<path d="M762.179 6.7027V4.32433H759.929V5.40541H761.001V6.7027H762.179Z" fill="#C4D8FA"/>
<path d="M7.82143 127H3.96429V128.297H2.46429V129.378H1.28571V131H0V135H1.28571V136.297H2.46429V137.595H3.96429V139H7.82143V137.595H9.32143V136.297H10.7143V135H12V131H10.7143V129.378H9.32143V128.297H7.82143V127Z" fill="#1F2E54"/>
<path d="M7.92899 128.514H4.07185V129.811H2.67899V131.108H1.28613V135.108H2.67899V136.405H4.07185V137.811H7.92899V136.405H9.2147V135.108H10.6076V131.108H9.2147V129.811H7.92899V128.514Z" fill="#3E5291"/>
<path d="M3.85756 130.027H7.60756V131.216H9.10756V135.108H7.60756V136.189H3.85756V135.108H2.78613V131.216H3.85756V130.027Z" fill="#AFC1EF"/>
<path d="M7.1792 133.703V131.324H4.9292V132.405H6.00063V133.703H7.1792Z" fill="#C4D8FA"/>
<path d="M1141.91 217H1139.98V217.649H1139.23V218.189H1138.64V219H1138V221H1138.64V221.649H1139.23V222.297H1139.98V223H1141.91V222.297H1142.66V221.649H1143.36V221H1144V219H1143.36V218.189H1142.66V217.649H1141.91V217Z" fill="#1F2E54"/>
<path d="M1141.96 217.757H1140.04V218.405H1139.34V219.054H1138.64V221.054H1139.34V221.703H1140.04V222.405H1141.96V221.703H1142.61V221.054H1143.3V219.054H1142.61V218.405H1141.96V217.757Z" fill="#3E5291"/>
<path d="M1139.93 218.514H1141.8V219.108H1142.55V221.054H1141.8V221.595H1139.93V221.054H1139.39V219.108H1139.93V218.514Z" fill="#AFC1EF"/>
<path d="M1141.59 220.351V219.162H1140.47V219.703H1141V220.351H1141.59Z" fill="#C4D8FA"/>
<path d="M640.911 217H638.982V217.649H638.232V218.189H637.643V219H637V221H637.643V221.649H638.232V222.297H638.982V223H640.911V222.297H641.661V221.649H642.357V221H643V219H642.357V218.189H641.661V217.649H640.911V217Z" fill="#1F2E54"/>
<path d="M640.965 217.757H639.036V218.405H638.34V219.054H637.643V221.054H638.34V221.703H639.036V222.405H640.965V221.703H641.608V221.054H642.304V219.054H641.608V218.405H640.965V217.757Z" fill="#3E5291"/>
<path d="M638.929 218.514H640.804V219.108H641.554V221.054H640.804V221.595H638.929V221.054H638.393V219.108H638.929V218.514Z" fill="#AFC1EF"/>
<path d="M640.59 220.351V219.162H639.465V219.703H640.001V220.351H640.59Z" fill="#C4D8FA"/>
<path d="M858.911 90H856.982V90.6486H856.232V91.1892H855.643V92H855V94H855.643V94.6486H856.232V95.2973H856.982V96H858.911V95.2973H859.661V94.6486H860.357V94H861V92H860.357V91.1892H859.661V90.6486H858.911V90Z" fill="#1F2E54"/>
<path d="M858.965 90.7568H857.036V91.4054H856.34V92.0541H855.643V94.0541H856.34V94.7027H857.036V95.4054H858.965V94.7027H859.608V94.0541H860.304V92.0541H859.608V91.4054H858.965V90.7568Z" fill="#3E5291"/>
<path d="M856.929 91.5135H858.804V92.1081H859.554V94.0541H858.804V94.5946H856.929V94.0541H856.393V92.1081H856.929V91.5135Z" fill="#AFC1EF"/>
<path d="M858.59 93.3514V92.1622H857.465V92.7027H858.001V93.3514H858.59Z" fill="#C4D8FA"/>
<path d="M103.911 217H101.982V217.649H101.232V218.189H100.643V219H100V221H100.643V221.649H101.232V222.297H101.982V223H103.911V222.297H104.661V221.649H105.357V221H106V219H105.357V218.189H104.661V217.649H103.911V217Z" fill="#1F2E54"/>
<path d="M103.965 217.757H102.036V218.405H101.34V219.054H100.643V221.054H101.34V221.703H102.036V222.405H103.965V221.703H104.608V221.054H105.304V219.054H104.608V218.405H103.965V217.757Z" fill="#3E5291"/>
<path d="M101.929 218.514H103.804V219.108H104.554V221.054H103.804V221.595H101.929V221.054H101.393V219.108H101.929V218.514Z" fill="#AFC1EF"/>
<path d="M103.59 220.351V219.162H102.465V219.703H103.001V220.351H103.59Z" fill="#C4D8FA"/>
<path d="M419.821 59H415.964V60.2973H414.464V61.3784H413.286V63H412V67H413.286V68.2973H414.464V69.5946H415.964V71H419.821V69.5946H421.321V68.2973H422.714V67H424V63H422.714V61.3784H421.321V60.2973H419.821V59Z" fill="#1F2E54"/>
<path d="M419.929 60.5135H416.072V61.8108H414.679V63.1081H413.286V67.1081H414.679V68.4054H416.072V69.8108H419.929V68.4054H421.215V67.1081H422.608V63.1081H421.215V61.8108H419.929V60.5135Z" fill="#3E5291"/>
<path d="M415.858 62.027H419.608V63.2162H421.108V67.1081H419.608V68.1892H415.858V67.1081H414.786V63.2162H415.858V62.027Z" fill="#AFC1EF"/>
<path d="M419.179 65.7027V63.3243H416.929V64.4054H418.001V65.7027H419.179Z" fill="#C4D8FA"/>
<path d="M1080.82 59H1076.96V60.2973H1075.46V61.3784H1074.29V63H1073V67H1074.29V68.2973H1075.46V69.5946H1076.96V71H1080.82V69.5946H1082.32V68.2973H1083.71V67H1085V63H1083.71V61.3784H1082.32V60.2973H1080.82V59Z" fill="#1F2E54"/>
<path d="M1080.93 60.5135H1077.07V61.8108H1075.68V63.1081H1074.29V67.1081H1075.68V68.4054H1077.07V69.8108H1080.93V68.4054H1082.21V67.1081H1083.61V63.1081H1082.21V61.8108H1080.93V60.5135Z" fill="#3E5291"/>
<path d="M1076.86 62.027H1080.61V63.2162H1082.11V67.1081H1080.61V68.1892H1076.86V67.1081H1075.79V63.2162H1076.86V62.027Z" fill="#AFC1EF"/>
<path d="M1080.18 65.7027V63.3243H1077.93V64.4054H1079V65.7027H1080.18Z" fill="#C4D8FA"/>
<path d="M261.821 301H257.964V302.297H256.464V303.378H255.286V305H254V309H255.286V310.297H256.464V311.595H257.964V313H261.821V311.595H263.321V310.297H264.714V309H266V305H264.714V303.378H263.321V302.297H261.821V301Z" fill="#1F2E54"/>
<path d="M261.929 302.514H258.072V303.811H256.679V305.108H255.286V309.108H256.679V310.405H258.072V311.811H261.929V310.405H263.215V309.108H264.608V305.108H263.215V303.811H261.929V302.514Z" fill="#3E5291"/>
<path d="M257.858 304.027H261.608V305.216H263.108V309.108H261.608V310.189H257.858V309.108H256.786V305.216H257.858V304.027Z" fill="#AFC1EF"/>
<path d="M261.179 307.703V305.324H258.929V306.405H260.001V307.703H261.179Z" fill="#C4D8FA"/>
<path d="M155.821 307H151.964V308.297H150.464V309.378H149.286V311H148V315H149.286V316.297H150.464V317.595H151.964V319H155.821V317.595H157.321V316.297H158.714V315H160V311H158.714V309.378H157.321V308.297H155.821V307Z" fill="#1F2E54"/>
<path d="M155.929 308.514H152.072V309.811H150.679V311.108H149.286V315.108H150.679V316.405H152.072V317.811H155.929V316.405H157.215V315.108H158.608V311.108H157.215V309.811H155.929V308.514Z" fill="#3E5291"/>
<path d="M151.858 310.027H155.608V311.216H157.108V315.108H155.608V316.189H151.858V315.108H150.786V311.216H151.858V310.027Z" fill="#AFC1EF"/>
<path d="M155.179 313.703V311.324H152.929V312.405H154.001V313.703H155.179Z" fill="#C4D8FA"/>
<path d="M1312.82 307H1308.96V308.297H1307.46V309.378H1306.29V311H1305V315H1306.29V316.297H1307.46V317.595H1308.96V319H1312.82V317.595H1314.32V316.297H1315.71V315H1317V311H1315.71V309.378H1314.32V308.297H1312.82V307Z" fill="#1F2E54"/>
<path d="M1312.93 308.514H1309.07V309.811H1307.68V311.108H1306.29V315.108H1307.68V316.405H1309.07V317.811H1312.93V316.405H1314.21V315.108H1315.61V311.108H1314.21V309.811H1312.93V308.514Z" fill="#3E5291"/>
<path d="M1308.86 310.027H1312.61V311.216H1314.11V315.108H1312.61V316.189H1308.86V315.108H1307.79V311.216H1308.86V310.027Z" fill="#AFC1EF"/>
<path d="M1312.18 313.703V311.324H1309.93V312.405H1311V313.703H1312.18Z" fill="#C4D8FA"/>
<path d="M922.821 301H918.964V302.297H917.464V303.378H916.286V305H915V309H916.286V310.297H917.464V311.595H918.964V313H922.821V311.595H924.321V310.297H925.714V309H927V305H925.714V303.378H924.321V302.297H922.821V301Z" fill="#1F2E54"/>
<path d="M922.929 302.514H919.072V303.811H917.679V305.108H916.286V309.108H917.679V310.405H919.072V311.811H922.929V310.405H924.215V309.108H925.608V305.108H924.215V303.811H922.929V302.514Z" fill="#3E5291"/>
<path d="M918.858 304.027H922.608V305.216H924.108V309.108H922.608V310.189H918.858V309.108H917.786V305.216H918.858V304.027Z" fill="#AFC1EF"/>
<path d="M922.179 307.703V305.324H919.929V306.405H921.001V307.703H922.179Z" fill="#C4D8FA"/>
<path d="M480.911 312H478.982V312.649H478.232V313.189H477.643V314H477V316H477.643V316.649H478.232V317.297H478.982V318H480.911V317.297H481.661V316.649H482.357V316H483V314H482.357V313.189H481.661V312.649H480.911V312Z" fill="#1F2E54"/>
<path d="M480.965 312.757H479.036V313.405H478.34V314.054H477.643V316.054H478.34V316.703H479.036V317.405H480.965V316.703H481.608V316.054H482.304V314.054H481.608V313.405H480.965V312.757Z" fill="#3E5291"/>
<path d="M478.929 313.514H480.804V314.108H481.554V316.054H480.804V316.595H478.929V316.054H478.393V314.108H478.929V313.514Z" fill="#AFC1EF"/>
<path d="M480.59 315.351V314.162H479.465V314.703H480.001V315.351H480.59Z" fill="#C4D8FA"/>
<path d="M1141.91 312H1139.98V312.649H1139.23V313.189H1138.64V314H1138V316H1138.64V316.649H1139.23V317.297H1139.98V318H1141.91V317.297H1142.66V316.649H1143.36V316H1144V314H1143.36V313.189H1142.66V312.649H1141.91V312Z" fill="#1F2E54"/>
<path d="M1141.96 312.757H1140.04V313.405H1139.34V314.054H1138.64V316.054H1139.34V316.703H1140.04V317.405H1141.96V316.703H1142.61V316.054H1143.3V314.054H1142.61V313.405H1141.96V312.757Z" fill="#3E5291"/>
<path d="M1139.93 313.514H1141.8V314.108H1142.55V316.054H1141.8V316.595H1139.93V316.054H1139.39V314.108H1139.93V313.514Z" fill="#AFC1EF"/>
<path d="M1141.59 315.351V314.162H1140.47V314.703H1141V315.351H1141.59Z" fill="#C4D8FA"/>
<path d="M1238.82 40H1234.96V41.2973H1233.46V42.3784H1232.29V44H1231V48H1232.29V49.2973H1233.46V50.5946H1234.96V52H1238.82V50.5946H1240.32V49.2973H1241.71V48H1243V44H1241.71V42.3784H1240.32V41.2973H1238.82V40Z" fill="#1F2E54"/>
<path d="M1238.93 41.5135H1235.07V42.8108H1233.68V44.1081H1232.29V48.1081H1233.68V49.4054H1235.07V50.8108H1238.93V49.4054H1240.21V48.1081H1241.61V44.1081H1240.21V42.8108H1238.93V41.5135Z" fill="#3E5291"/>
<path d="M1234.86 43.027H1238.61V44.2162H1240.11V48.1081H1238.61V49.1892H1234.86V48.1081H1233.79V44.2162H1234.86V43.027Z" fill="#AFC1EF"/>
<path d="M1238.18 46.7027V44.3243H1235.93V45.4054H1237V46.7027H1238.18Z" fill="#C4D8FA"/>
<path d="M103.911 45H101.982V45.6486H101.232V46.1892H100.643V47H100V49H100.643V49.6486H101.232V50.2973H101.982V51H103.911V50.2973H104.661V49.6486H105.357V49H106V47H105.357V46.1892H104.661V45.6486H103.911V45Z" fill="#1F2E54"/>
<path d="M103.965 45.7568H102.036V46.4054H101.34V47.0541H100.643V49.0541H101.34V49.7027H102.036V50.4054H103.965V49.7027H104.608V49.0541H105.304V47.0541H104.608V46.4054H103.965V45.7568Z" fill="#3E5291"/>
<path d="M101.929 46.5135H103.804V47.1081H104.554V49.0541H103.804V49.5946H101.929V49.0541H101.393V47.1081H101.929V46.5135Z" fill="#AFC1EF"/>
<path d="M103.59 48.3514V47.1622H102.465V47.7027H103.001V48.3514H103.59Z" fill="#C4D8FA"/>
</svg>
