<svg width="14" height="16" viewBox="0 0 14 16" fill="none" xmlns="http://www.w3.org/2000/svg">
<path fill-rule="evenodd" clip-rule="evenodd" d="M12.3598 0C13.2638 0 13.9998 0.736 13.9998 1.648V16L12.2798 14.48L11.3118 13.584L10.2878 12.632L10.7118 14.112H1.63976C0.735756 14.112 -0.000244141 13.376 -0.000244141 12.464V1.648C-0.000244141 0.736 0.735756 0 1.63976 0H12.3598V0ZM9.27176 10.448C11.0398 10.392 11.7198 9.232 11.7198 9.232C11.7198 6.656 10.5678 4.568 10.5678 4.568C9.41576 3.704 8.31976 3.728 8.31976 3.728L8.20776 3.856C9.56776 4.272 10.1998 4.872 10.1998 4.872C9.36776 4.416 8.55176 4.192 7.79176 4.104C7.21576 4.04 6.66376 4.056 6.17576 4.12L6.03976 4.136C5.75976 4.16 5.07976 4.264 4.22376 4.64C3.92776 4.776 3.75176 4.872 3.75176 4.872C3.75176 4.872 4.41576 4.24 5.85576 3.824L5.77576 3.728C5.77576 3.728 4.67976 3.704 3.52776 4.568C3.52776 4.568 2.37576 6.656 2.37576 9.232C2.37576 9.232 3.04776 10.392 4.81576 10.448C4.81576 10.448 5.11176 10.088 5.35176 9.784C4.33576 9.48 3.95176 8.84 3.95176 8.84L4.17576 8.976L4.20776 9L4.23909 9.018L4.24842 9.022L4.27976 9.04C4.47976 9.152 4.67976 9.24 4.86376 9.312C5.19176 9.44 5.58376 9.568 6.03976 9.656C6.63976 9.768 7.34376 9.808 8.11176 9.664C8.48776 9.6 8.87176 9.488 9.27176 9.32C9.55176 9.216 9.86376 9.064 10.1918 8.848C10.1918 8.848 9.79176 9.504 8.74376 9.8C8.98376 10.104 9.27176 10.448 9.27176 10.448ZM5.55176 6.712C5.09576 6.712 4.73576 7.112 4.73576 7.6C4.73576 8.088 5.10376 8.488 5.55176 8.488C6.00776 8.488 6.36776 8.088 6.36776 7.6C6.37576 7.112 6.00776 6.712 5.55176 6.712ZM8.47176 6.712C8.01576 6.712 7.65576 7.112 7.65576 7.6C7.65576 8.088 8.02376 8.488 8.47176 8.488C8.92776 8.488 9.28776 8.088 9.28776 7.6C9.28776 7.112 8.92776 6.712 8.47176 6.712Z" fill="#F7F7F7"/>
</svg>
