<?xml version="1.0" encoding="utf-8"?>
<!-- Generator: Adobe Illustrator 26.0.1, SVG Export Plug-In . SVG Version: 6.00 Build 0)  -->
<svg version="1.1" id="Layer_1" xmlns="http://www.w3.org/2000/svg" xmlns:xlink="http://www.w3.org/1999/xlink" x="0px" y="0px"
	 viewBox="0 0 42 40" style="enable-background:new 0 0 42 40;" xml:space="preserve">
<style type="text/css">
	.st0{fill-rule:evenodd;clip-rule:evenodd;fill:#F6BF11;}
	.st1{fill-rule:evenodd;clip-rule:evenodd;fill:#F7F7F7;}
	.st2{fill:#F6BF11;}
</style>
<path class="st0" d="M40.5,17.2c-0.7-4.8-3.2-9.3-7-12.4C29.9,1.6,25.2,0,20.4,0h-1.6v9.3h3.8V4c3.1,0.4,6,1.7,8.4,3.7
	c3,2.6,5,6.1,5.7,10.1c0.6,3.9-0.2,7.9-2.3,11.3c-0.9,1.5-2.1,2.8-3.4,3.9l-2.5-2l-2.1,8.8c4.7-1.4,8.7-4.5,11.3-8.6
	C40.3,27,41.3,22,40.5,17.2z"/>
<path class="st1" d="M29.7,13.6V9.7h-7h-3.8v3.8v3.2v3.8v10.2v0.7V36c-3.1-0.4-6-1.7-8.4-3.7c-3-2.6-5-6.1-5.7-10.1S5,14.3,7.1,10.9
	C8,9.4,9.2,8.1,10.5,7l2.6,2l2.1-8.8C10.5,1.6,6.5,4.7,3.9,8.9C1.3,13,0.3,18,1,22.8s3.2,9.3,7,12.4c3.7,3.1,8.3,4.8,13.1,4.8h1.6
	v-8.6v-0.7V20.6h4.6l2.4-3.8h-7v-3.2C22.7,13.6,29.7,13.6,29.7,13.6z"/>
<path class="st2" d="M18.4,24.2h-6.8l2.4-3.8h4.4V24.2z"/>
<path class="st2" d="M18.4,27.3h-6.8v3.8h6.8V27.3z"/>
</svg>
