<svg width="14" height="14" viewBox="0 0 14 14" fill="none" xmlns="http://www.w3.org/2000/svg">
<path d="M5.79797 7.60401C6.32283 8.30568 7.12658 8.7448 8.0006 8.8074C8.87461 8.86999 9.73273 8.54989 10.3522 7.93017L12.1643 6.11813C13.3088 4.93313 13.2924 3.0495 12.1275 1.88456C10.9625 0.719616 9.0789 0.703248 7.8939 1.84777L6.855 2.88063" stroke="#F7F7F7" stroke-width="1.4" stroke-linecap="round" stroke-linejoin="round"/>
<path d="M8.21406 6.39599C7.6892 5.69432 6.88546 5.2552 6.01144 5.1926C5.13742 5.13 4.2793 5.45011 3.6598 6.06983L1.84777 7.88186C0.703248 9.06687 0.719616 10.9505 1.88456 12.1154C3.0495 13.2804 4.93313 13.2968 6.11813 12.1522L7.151 11.1194" stroke="#F7F7F7" stroke-width="1.4" stroke-linecap="round" stroke-linejoin="round"/>
</svg>
