<svg width="16" height="10" viewBox="0 0 16 10" fill="none" xmlns="http://www.w3.org/2000/svg">
<path fill-rule="evenodd" clip-rule="evenodd" d="M9.02458 5.21057C9.02458 7.71984 7.00422 9.75399 4.51212 9.75399C2.02002 9.75399 -0.000488281 7.71984 -0.000488281 5.21057C-0.000488281 2.7013 2.01987 0.666992 4.51212 0.666992C7.00437 0.666992 9.02458 2.7013 9.02458 5.21057ZM13.9751 5.21043C13.9751 7.57237 12.9649 9.48786 11.7188 9.48786C10.4727 9.48786 9.46251 7.57237 9.46251 5.21043C9.46251 2.84849 10.4725 0.933004 11.7187 0.933004C12.9648 0.933004 13.975 2.84788 13.975 5.21043H13.9751ZM15.2059 9.0427C15.6442 9.0427 15.9994 7.32652 15.9994 5.2108C15.9994 3.09447 15.6441 1.3789 15.2059 1.3789C14.7677 1.3789 14.4125 3.09462 14.4125 5.2108C14.4125 7.32698 14.7676 9.0427 15.2059 9.0427Z" fill="#F7F7F7"/>
</svg>
