<svg width="173" height="40" viewBox="0 0 173 40" fill="none" xmlns="http://www.w3.org/2000/svg">
<path fill-rule="evenodd" clip-rule="evenodd" d="M40.5496 17.1754C39.8034 12.3392 37.3161 7.90983 33.5852 4.76859C29.8994 1.64994 25.2414 -0.0223728 20.4477 0.000226062H18.8649V9.26576H22.7089V4.00023C25.7841 4.407 28.701 5.69514 31.1205 7.72904C34.1505 10.2827 36.1629 13.8533 36.7734 17.7855C37.384 21.7177 36.5699 25.7177 34.467 29.085C33.54 30.5765 32.3641 31.9098 31.03 33.0172L28.4975 30.9607L26.4398 39.7742C31.1205 38.3505 35.1228 35.2997 37.7231 31.1415C40.3009 26.9833 41.3184 22.0341 40.5496 17.1754Z" fill="#F6BF11"/>
<path fill-rule="evenodd" clip-rule="evenodd" d="M29.7186 13.5595V9.71772H22.7089H18.8649V13.5595V16.7234V20.5652V30.7347V31.4126V36.0002C15.7897 35.5934 12.8728 34.3053 10.4533 32.2714C7.4233 29.7177 5.41085 26.1471 4.80033 22.2149C4.18981 18.2827 5.00383 14.2827 7.10673 10.9155C8.03382 9.42393 9.20963 8.0906 10.5437 6.98326L13.0989 9.03975L15.1565 0.226196C10.4759 1.64992 6.4736 4.70077 3.87324 8.85896C1.27288 13.0172 0.255347 17.9663 1.02415 22.8251C1.77034 27.6612 4.25764 32.0906 7.9886 35.2318C11.6743 38.3505 16.3324 40.0228 21.1261 40.0002H22.7089V31.4126V30.7347V20.5652H27.3443L29.7186 16.7234H22.7089V13.5595H29.7186Z" fill="#F7F7F7"/>
<path d="M18.4126 24.181H11.629L14.0033 20.3392H18.4126V24.181Z" fill="#F6BF11"/>
<path d="M18.4126 27.3448H11.629V31.1867H18.4126V27.3448Z" fill="#F6BF11"/>
<path d="M60.1409 29.9491C58.4779 29.9491 56.9507 29.559 55.5592 28.7789C54.1677 27.9988 53.0647 26.9218 52.2501 25.5481C51.4356 24.1574 51.0283 22.5886 51.0283 20.8418C51.0283 19.1119 51.4356 17.56 52.2501 16.1863C53.0647 14.7956 54.1677 13.7102 55.5592 12.93C56.9507 12.1499 58.4779 11.7598 60.1409 11.7598C61.8209 11.7598 63.3481 12.1499 64.7227 12.93C66.1142 13.7102 67.2087 14.7956 68.0063 16.1863C68.8208 17.56 69.2281 19.1119 69.2281 20.8418C69.2281 22.5886 68.8208 24.1574 68.0063 25.5481C67.2087 26.9218 66.1142 27.9988 64.7227 28.7789C63.3312 29.559 61.8039 29.9491 60.1409 29.9491ZM60.1409 26.7692C61.21 26.7692 62.1518 26.5317 62.9663 26.0569C63.7809 25.565 64.4172 24.8697 64.8754 23.9708C65.3336 23.072 65.5627 22.0289 65.5627 20.8418C65.5627 19.6546 65.3336 18.62 64.8754 17.7381C64.4172 16.8393 63.7809 16.1524 62.9663 15.6775C62.1518 15.2026 61.21 14.9652 60.1409 14.9652C59.0718 14.9652 58.1216 15.2026 57.2901 15.6775C56.4755 16.1524 55.8392 16.8393 55.381 17.7381C54.9228 18.62 54.6937 19.6546 54.6937 20.8418C54.6937 22.0289 54.9228 23.072 55.381 23.9708C55.8392 24.8697 56.4755 25.565 57.2901 26.0569C58.1216 26.5317 59.0718 26.7692 60.1409 26.7692Z" fill="#F6BF11"/>
<path d="M91.4281 15.6775L87.3045 29.771H83.4609L80.8901 19.9259L78.3192 29.771H74.4501L70.3011 15.6775H73.9156L76.4101 26.413L79.1083 15.6775H82.8755L85.5227 26.3876L88.0172 15.6775H91.4281Z" fill="#F6BF11"/>
<path d="M101.171 15.474C102.851 15.474 104.208 16.0082 105.243 17.0767C106.278 18.1282 106.796 19.6037 106.796 21.5032V29.771H103.232V21.9865C103.232 20.8672 102.952 20.0107 102.392 19.4171C101.832 18.8066 101.069 18.5013 100.102 18.5013C99.1174 18.5013 98.3368 18.8066 97.7598 19.4171C97.1998 20.0107 96.9198 20.8672 96.9198 21.9865V29.771H93.3562V15.6775H96.9198V17.4328C97.395 16.8223 97.9974 16.3474 98.7271 16.0082C99.4737 15.6521 100.288 15.474 101.171 15.474Z" fill="#F6BF11"/>
<path d="M111.763 29.9491C111.118 29.9491 110.584 29.7541 110.159 29.364C109.752 28.957 109.548 28.4567 109.548 27.8631C109.548 27.2695 109.752 26.7777 110.159 26.3876C110.584 25.9805 111.118 25.777 111.763 25.777C112.391 25.777 112.908 25.9805 113.316 26.3876C113.723 26.7777 113.927 27.2695 113.927 27.8631C113.927 28.4567 113.723 28.957 113.316 29.364C112.908 29.7541 112.391 29.9491 111.763 29.9491Z" fill="#F6BF11"/>
<path d="M123.262 18.6031H120.793V29.771H117.179V18.6031H115.575V15.6775H117.179V14.9652C117.179 13.2353 117.671 11.9633 118.655 11.1493C119.639 10.3352 121.124 9.95361 123.11 10.0045V13.0064C122.244 12.9894 121.642 13.1336 121.302 13.4388C120.963 13.7441 120.793 14.2953 120.793 15.0924V15.6775H123.262V18.6031Z" fill="#F6BF11"/>
<path d="M138.884 15.6775V29.771H135.295V27.9903C134.837 28.6008 134.235 29.0842 133.488 29.4403C132.758 29.7795 131.961 29.9491 131.095 29.9491C129.992 29.9491 129.017 29.7202 128.168 29.2623C127.32 28.7874 126.649 28.1005 126.157 27.2016C125.682 26.2858 125.444 25.2004 125.444 23.9454V15.6775H129.008V23.4366C129.008 24.5559 129.288 25.4209 129.848 26.0314C130.408 26.625 131.172 26.9218 132.139 26.9218C133.123 26.9218 133.895 26.625 134.455 26.0314C135.015 25.4209 135.295 24.5559 135.295 23.4366V15.6775H138.884Z" fill="#F6BF11"/>
<path d="M150.215 15.474C151.895 15.474 153.252 16.0082 154.287 17.0767C155.323 18.1282 155.84 19.6037 155.84 21.5032V29.771H152.277V21.9865C152.277 20.8672 151.997 20.0107 151.437 19.4171C150.877 18.8066 150.113 18.5013 149.146 18.5013C148.161 18.5013 147.381 18.8066 146.804 19.4171C146.244 20.0107 145.964 20.8672 145.964 21.9865V29.771H142.4V15.6775H145.964V17.4328C146.439 16.8223 147.041 16.3474 147.771 16.0082C148.518 15.6521 149.332 15.474 150.215 15.474Z" fill="#F6BF11"/>
<path d="M158.313 22.6734C158.313 21.2488 158.593 19.9853 159.153 18.8829C159.729 17.7805 160.51 16.9325 161.494 16.3389C162.479 15.7454 163.573 15.4486 164.778 15.4486C165.694 15.4486 166.568 15.6521 167.4 16.0591C168.231 16.4492 168.893 16.9749 169.385 17.6364V10.9458H173V29.771H169.385V27.685C168.944 28.3803 168.325 28.94 167.527 29.364C166.729 29.788 165.805 30 164.752 30C163.565 30 162.479 29.6947 161.494 29.0842C160.51 28.4736 159.729 27.6172 159.153 26.5148C158.593 25.3954 158.313 24.115 158.313 22.6734ZM169.411 22.7243C169.411 21.8593 169.241 21.1216 168.901 20.511C168.562 19.8835 168.104 19.4087 167.527 19.0864C166.95 18.7472 166.331 18.5776 165.669 18.5776C165.007 18.5776 164.396 18.7387 163.836 19.061C163.276 19.3832 162.818 19.8581 162.462 20.4856C162.122 21.0961 161.952 21.8254 161.952 22.6734C161.952 23.5214 162.122 24.2676 162.462 24.9121C162.818 25.5396 163.276 26.0229 163.836 26.3621C164.413 26.7013 165.024 26.8709 165.669 26.8709C166.331 26.8709 166.95 26.7098 167.527 26.3876C168.104 26.0484 168.562 25.5735 168.901 24.963C169.241 24.3355 169.411 23.5892 169.411 22.7243Z" fill="#F6BF11"/>
<path d="M60.1409 29.9491C58.4779 29.9491 56.9507 29.559 55.5592 28.7788C54.1677 27.9987 53.0647 26.9218 52.2501 25.548C51.4356 24.1573 51.0283 22.5885 51.0283 20.8417C51.0283 19.1118 51.4356 17.56 52.2501 16.1863C53.0647 14.7956 54.1677 13.7101 55.5592 12.93C56.9507 12.1498 58.4779 11.7598 60.1409 11.7598C61.8209 11.7598 63.3481 12.1498 64.7227 12.93C66.1142 13.7101 67.2087 14.7956 68.0063 16.1863C68.8208 17.56 69.2281 19.1118 69.2281 20.8417C69.2281 22.5885 68.8208 24.1573 68.0063 25.548C67.2087 26.9218 66.1142 27.9987 64.7227 28.7788C63.3312 29.559 61.8039 29.9491 60.1409 29.9491ZM60.1409 26.7691C61.21 26.7691 62.1518 26.5317 62.9663 26.0568C63.7809 25.565 64.4172 24.8696 64.8754 23.9708C65.3336 23.0719 65.5627 22.0289 65.5627 20.8417C65.5627 19.6545 65.3336 18.62 64.8754 17.7381C64.4172 16.8392 63.7809 16.1523 62.9663 15.6775C62.1518 15.2026 61.21 14.9652 60.1409 14.9652C59.0718 14.9652 58.1216 15.2026 57.29 15.6775C56.4755 16.1523 55.8392 16.8392 55.381 17.7381C54.9228 18.62 54.6937 19.6545 54.6937 20.8417C54.6937 22.0289 54.9228 23.0719 55.381 23.9708C55.8392 24.8696 56.4755 25.565 57.29 26.0568C58.1216 26.5317 59.0718 26.7691 60.1409 26.7691Z" fill="#F7F7F7"/>
<path d="M91.4281 15.6775L87.3045 29.771H83.4609L80.8901 19.9259L78.3192 29.771H74.4501L70.3011 15.6775H73.9156L76.4101 26.413L79.1083 15.6775H82.8755L85.5227 26.3875L88.0172 15.6775H91.4281Z" fill="#F7F7F7"/>
<path d="M101.171 15.4739C102.851 15.4739 104.208 16.0082 105.243 17.0766C106.278 18.1281 106.796 19.6036 106.796 21.5031V29.771H103.232V21.9865C103.232 20.8671 102.952 20.0107 102.392 19.4171C101.832 18.8065 101.069 18.5013 100.102 18.5013C99.1174 18.5013 98.3368 18.8065 97.7598 19.4171C97.1998 20.0107 96.9198 20.8671 96.9198 21.9865V29.771H93.3562V15.6775H96.9198V17.4328C97.395 16.8222 97.9974 16.3474 98.7271 16.0082C99.4737 15.652 100.288 15.4739 101.171 15.4739Z" fill="#F7F7F7"/>
</svg>
