<svg width="54" height="54" viewBox="0 0 54 54" fill="none" xmlns="http://www.w3.org/2000/svg">
<g opacity="0.2">
<path d="M32.7376 1.79999H20.5876V5.84999H15.8626V9.22499H12.1501V14.2875H8.1001V26.775H12.1501V30.825H15.8626V34.875H20.5876V39.2625H32.7376V34.875H37.4626V30.825H41.8501V26.775H45.9001V14.2875H41.8501V9.22499H37.4626V5.84999H32.7376V1.79999Z" fill="#F6BF11"/>
<path d="M33.0751 6.52499H20.9251V10.575H16.5376V14.625H12.1501V27.1125H16.5376V31.1625H20.9251V35.55H33.0751V31.1625H37.1251V27.1125H41.5126V14.625H37.1251V10.575H33.0751V6.52499Z" fill="#E99C00"/>
<path d="M20.25 11.25H32.0625V14.9625H36.7875V27.1125H32.0625V30.4875H20.25V27.1125H16.875V14.9625H20.25V11.25Z" fill="#FFEF96"/>
</g>
<rect x="16.2002" y="32.4" width="21.6" height="2.7" fill="#2C3954"/>
<rect x="20.7002" y="35.1" width="2.7" height="2.7" fill="#2C3954"/>
<rect x="23.4001" y="35.1" width="2.7" height="2.7" fill="#7F92A2"/>
<rect x="26.1001" y="35.1" width="2.7" height="2.7" fill="#1A1C29"/>
<rect x="28.8003" y="35.1" width="2.7" height="2.7" fill="#151312"/>
<rect x="23.4001" y="37.8" width="2.7" height="2.7" fill="#5B6780"/>
<rect x="28.8003" y="37.8" width="2.7" height="2.7" fill="#5B6780"/>
<rect x="26.1001" y="37.8" width="2.7" height="2.7" fill="#202333"/>
<rect x="20.7002" y="37.8" width="2.7" height="2.7" fill="#2C3954"/>
<rect x="31.5002" y="35.1" width="2.7" height="2.7" fill="#2C3954"/>
<rect x="23.4001" y="40.5" width="2.7" height="2.7" fill="#2C3954"/>
<rect x="28.8003" y="40.5" width="2.7" height="2.7" fill="#2C3954"/>
<rect x="23.4001" y="43.2" width="2.7" height="2.7" fill="#2C3954"/>
<rect x="23.4001" y="45.9" width="2.7" height="2.7" fill="#2C3954"/>
<rect x="31.5002" y="37.8" width="2.7" height="2.7" fill="#2C3954"/>
<rect x="28.8003" y="43.2" width="2.7" height="2.7" fill="#2C3954"/>
<rect x="28.8003" y="45.9" width="2.7" height="2.7" fill="#2C3954"/>
<rect x="26.1001" y="48.6" width="2.7" height="2.7" fill="#2C3954"/>
<rect x="26.1001" y="45.9" width="2.7" height="2.7" fill="#152525"/>
<rect x="26.1001" y="43.2" width="2.7" height="2.7" fill="#0E0D0C"/>
<rect x="26.1001" y="40.5" width="2.7" height="2.7" fill="#0E0D0C"/>
<path d="M16.2002 29.25V32.4H37.8002V29.25H34.6502V23.4H31.9502V17.1H26.1002V20.25H22.9502V22.95H19.8002V29.25H16.2002Z" fill="#E35F14"/>
<path d="M31.5001 23.4V32.4H26.1001V20.7H28.8001V23.4H31.5001Z" fill="#F48749"/>
<rect x="19.8003" y="17.1" width="2.7" height="2.7" fill="#FFD71D"/>
<rect x="23.4001" y="8.09998" width="2.7" height="2.7" fill="#FFD71D"/>
<rect x="36.0002" y="18" width="2.7" height="2.7" fill="#FFD71D"/>
<rect x="22.5002" y="25.2" width="3.6" height="3.6" fill="#FFD71D"/>
<rect x="22.5002" y="28.8" width="3.6" height="3.6" fill="#FFD71D"/>
</svg>
