<svg width="54" height="54" viewBox="0 0 54 54" fill="none" xmlns="http://www.w3.org/2000/svg">
<path d="M35.1964 0H17.8393V5.83784H11.0893V10.7027H5.78571V18H0V36H5.78571V41.8378H11.0893V47.6757H17.8393V54H35.1964V47.6757H41.9464V41.8378H48.2143V36H54V18H48.2143V10.7027H41.9464V5.83784H35.1964V0Z" fill="#E99C00"/>
<path d="M35.6785 6.81079H18.3214V12.6486H12.0535V18.4865H5.78564V36.4865H12.0535V42.3243H18.3214V48.6486H35.6785V42.3243H41.4642V36.4865H47.7321V18.4865H41.4642V12.6486H35.6785V6.81079Z" fill="#FFD71D"/>
<path d="M17.3571 13.6216H34.2321V18.973H40.9821V36.4865H34.2321V41.3514H17.3571V36.4865H12.5356V18.973H17.3571V13.6216Z" fill="#FFEF96"/>
<path d="M32.3035 30.1622V19.4595H22.1785V24.3243H26.9999V30.1622H32.3035Z" fill="white"/>
</svg>
