<svg width="34" height="50" viewBox="0 0 34 50" fill="none" xmlns="http://www.w3.org/2000/svg">
<path d="M34 17.9001L34 23.8806H23.7608L23.7608 48.5075H19.3168V50H14.8729V48.1343H10.4207V45.8955L10.4207 23.8806H0L0 17.9001H2.79539V13.913L5.59077 13.913V8.92927H9.78385L9.78385 2.94873H12.5792V0H20.9654V2.94873H23.7608V9.92602H26.5562L26.5562 13.913H30.7492V17.9001H34Z" fill="white"/>
<path d="M30.5588 19.1045V23.05H22.3843L22.3843 47.015H19.325V47.7612H15.3676V47.015H12.3994L12.3994 23.05H3.3037V19.1045H5.54848V15.159H7.79326V9.843H11.1604V4.5602H13.4052L13.4052 1.03833H20.1395V4.5602H22.3843V10.7235H24.6291V15.159H27.9963V19.1045H30.5588Z" fill="#E99C00"/>
<path d="M23.676 16.9034H26.7044V20.1429L27.8057 20.2467L27.5303 21.3888H18.9112L18.9112 41.7912H17.3463V43.2837H15.3675V41.7912H14.2098L14.2098 21.3888L7.15783 21.3888H5.78131V20.1429H7.15783V16.9034H8.72494V13.9132H10.292V10.9229H12.6427L12.6427 5.68994H14.2098V2.69967H18.9112V5.68994H20.4783V11.2136H22.0454V13.9132H23.676V16.9034Z" fill="#FFD71D"/>
</svg>
