<svg width="380" height="381" viewBox="0 0 380 381" fill="none" xmlns="http://www.w3.org/2000/svg">
<path d="M364.902 321.223V317.855H157.991V325.432H163.201V341.429H167.667V354.058H178.831V359.11H182.552V371.739H190.739V366.687H188.507V356.584H196.694V361.636H202.648V356.584H210.835V365.003H222.744V371.739H228.698V366.687H236.141V371.739H249.538V369.213H253.259V371.739H271.122V365.003H277.076V371.739H283.031V377.632H291.218V381H295.683V374.265H302.382V356.584H315.035L315.779 361.636H321.733V374.265H329.176V369.213H335.13V371.739H338.852V365.003H335.13V359.11H352.993V354.058H359.692V341.429H366.39V325.432H372.345V321.223H364.902Z" fill="#151312"/>
<path d="M171.87 320.338V317.855H361.026V323.443H356.263V335.239H352.18V344.552H341.974V348.277H338.572V357.59H331.087V353.865H333.129V346.415H325.644V350.14H320.201V346.415H312.716V352.624H301.83V357.59H296.386V353.865H289.582V357.59H277.335V355.728H273.932V357.59H257.602V352.624H252.159V357.59H246.716V361.937H239.231V364.42H235.149V359.453H229.025V346.415H217.458L216.777 350.14H211.334V359.453H204.53V355.728H199.086V357.59H195.684V352.624H199.086V348.277H182.756V344.552H176.633V335.239H170.509V323.443H165.066V320.338H171.87Z" fill="#1D1A18"/>
<path d="M396.842 319.266V317.855H124.034V321.03H130.903V327.732H136.791V333.024H151.511V335.14H156.418V340.432H167.212V338.315H164.268V334.082H175.063V336.199H182.913V334.082H193.708V337.61H209.409V340.432H217.26V338.315H227.073V340.432H244.737V339.374H249.643V340.432H273.195V337.61H281.046V340.432H288.896V342.901H299.691V344.312H305.579V341.49H314.411V334.082H331.093L332.075 336.199H339.925V341.49H349.739V339.374H357.589V340.432H362.496V337.61H357.589V335.14H381.141V333.024H389.973V327.732H398.805V321.03H406.655V319.266H396.842Z" fill="#152525"/>
<path d="M365.405 297.796V293H125.578V299.715H118.962V306.43H114V338.085H117.308H121.443V330.411H130.54V341.922H135.502V324.656H153.696V330.411H167.754V324.656H175.197V338.085H180.986V333.289H187.602V341.922H193.391V333.289H199.18V324.656H209.104V330.411H215.72V324.656H228.952V330.411H235.567V341.922H241.356V330.411H246.318V326.574H258.723V319.859H265.339V324.656H273.609V338.085H281.052V326.574H294.284V330.411H304.208V335.208H310.824V330.411H318.266V324.656H334.806V315.063H347.211V308.348H343.076V297.796H365.405Z" fill="#38A3A5"/>
<path d="M362.06 297.088V293H129.146V298.723H122.721V304.446H117.902V331.425H121.114H125.13V324.885H133.965V334.695H138.784V319.979H156.453V324.885H170.107V319.979H177.335V331.425H182.957V327.337H189.382V334.695H195.004V327.337H200.627V319.979H210.264V324.885H216.69V319.979H229.54V324.885H235.965V334.695H241.587V324.885H246.406V321.614H258.453V315.891H264.879V319.979H272.91V331.425H280.139V321.614H292.989V324.885H302.627V328.972H309.052V324.885H316.28V319.979H332.343V311.804H344.391V306.081H340.375V297.088H362.06Z" fill="#57CC99"/>
<path d="M391.047 295.507V293H130.481V296.51H123.293V300.02H117.902V316.567H121.496H125.988V312.556H135.872V318.573H141.263V309.547H161.03V312.556H176.305V309.547H184.391V316.567H190.681V314.06H197.869V318.573H204.158V314.06H210.448V309.547H221.23V312.556H228.418V309.547H242.794V312.556H249.982V318.573H256.271V312.556H261.662V310.55H275.14V307.04H282.328V309.547H291.313V316.567H299.4V310.55H313.776V312.556H324.558V315.063H331.746V312.556H339.832V309.547H357.802V304.533H371.28V301.023H366.787V295.507H391.047Z" fill="#80ED99"/>
<path d="M181.358 297.796V293H399.47V299.715H405.487V306.43H410V338.085H406.992H403.231V330.411H394.958V341.922H390.445V324.656H373.899V330.411H361.113V324.656H354.344V338.085H349.079V333.289H343.062V341.922H337.797V333.289H332.533V324.656H323.507V330.411H317.49V324.656H305.457V330.411H299.44V341.922H294.175V330.411H289.662V326.574H278.38V319.859H272.364V324.656H264.842V338.085H258.073V326.574H246.04V330.411H237.014V335.208H230.997V330.411H224.228V324.656H209.186V315.063H197.905V308.348H201.665V297.796H181.358Z" fill="#38A3A5"/>
<path d="M174.761 297.088V293H395.976V298.723H402.078V304.446H406.655V331.425H403.604H399.79V324.885H391.399V334.695H386.822V319.979H370.04V324.885H357.073V319.979H350.207V331.425H344.868V327.337H338.765V334.695H333.425V327.337H328.086V319.979H318.932V324.885H312.83V319.979H300.625V324.885H294.522V334.695H289.182V324.885H284.606V321.614H273.163V315.891H267.061V319.979H259.433V331.425H252.567V321.614H240.362V324.885H231.209V328.972H225.106V324.885H218.241V319.979H202.985V311.804H191.543V306.081H195.357V297.088H174.761Z" fill="#57CC99"/>
<path d="M139.642 295.507V293H394.359V296.51H401.385V300.02H406.655V316.567H403.142H398.75V312.556H389.089V318.573H383.819V309.547H364.495V312.556H349.564V309.547H341.659V316.567H335.51V314.06H328.484V318.573H322.335V314.06H316.187V309.547H305.647V312.556H298.62V309.547H284.567V312.556H277.54V318.573H271.392V312.556H266.122V310.55H252.947V307.04H245.92V309.547H237.137V316.567H229.232V310.55H215.179V312.556H204.639V315.063H197.612V312.556H189.707V309.547H172.14V304.533H158.965V301.023H163.357V295.507H139.642Z" fill="#80ED99"/>
<path d="M296.125 6.75H299.5V10.125H296.125V6.75Z" fill="#FFD71D"/>
<path d="M296.125 43.875H299.5V47.25H296.125V43.875Z" fill="#FFD71D"/>
<path d="M326.5 43.875H329.875V47.25H326.5V43.875Z" fill="#FFD71D"/>
<path d="M329.875 40.5H333.25V43.875H329.875V40.5Z" fill="#FFD71D"/>
<path d="M292.75 10.125H296.125V13.5H292.75V10.125Z" fill="#FFD71D"/>
<path d="M329.875 10.125H333.25V13.5H329.875V10.125Z" fill="#FFD71D"/>
<path d="M326.5 6.75H329.875V10.125H326.5V6.75Z" fill="#FFD71D"/>
<path d="M292.75 40.5H296.125V43.875H292.75V40.5Z" fill="#FFD71D"/>
<path d="M289.375 13.5H292.75V20.25H289.375V13.5Z" fill="#FFD71D"/>
<path d="M333.25 13.5H336.625V20.25H333.25V13.5Z" fill="#FFD71D"/>
<path d="M289.375 33.75H292.75V40.5H289.375V33.75Z" fill="#FFD71D"/>
<path d="M333.25 33.75H336.625V40.5H333.25V33.75Z" fill="#FFD71D"/>
<path d="M286 20.25H289.375V33.75H286V20.25Z" fill="#FFD71D"/>
<path d="M336.625 20.25H340V33.75H336.625V20.25Z" fill="#FFD71D"/>
<path d="M299.5 3.375H306.25V6.75H299.5V3.375Z" fill="#FFD71D"/>
<path d="M319.75 3.375H326.5V6.75H319.75V3.375Z" fill="#FFD71D"/>
<path d="M299.5 47.25H306.25V50.625H299.5V47.25Z" fill="#FFD71D"/>
<path d="M319.75 47.25H326.5V50.625H319.75V47.25Z" fill="#FFD71D"/>
<path d="M306.25 50.625H319.75V54H306.25V50.625Z" fill="#FFD71D"/>
<path d="M306.25 0H319.75V3.375H306.25V0Z" fill="#FFD71D"/>
<path d="M299.5 6.75V10.125H296.125V13.5H292.75V20.25H289.375V33.75H292.75V40.5H296.125V43.875H299.5V47.25H306.25V50.625H319.75V47.25H326.5V43.875H329.875V40.5H333.25V33.75H336.625V20.25H333.25V13.5H329.875V10.125H326.5V6.75H319.75V3.375H306.25V6.75H299.5Z" fill="#FFD71D"/>
<path d="M296.125 6.75H299.5V10.125H296.125V6.75Z" fill="white"/>
<path d="M296.125 43.875H299.5V47.25H296.125V43.875Z" fill="white"/>
<path d="M326.5 43.875H329.875V47.25H326.5V43.875Z" fill="white"/>
<path d="M329.875 40.5H333.25V43.875H329.875V40.5Z" fill="white"/>
<path d="M292.75 10.125H296.125V13.5H292.75V10.125Z" fill="white"/>
<path d="M329.875 10.125H333.25V13.5H329.875V10.125Z" fill="white"/>
<path d="M326.5 6.75H329.875V10.125H326.5V6.75Z" fill="white"/>
<path d="M292.75 40.5H296.125V43.875H292.75V40.5Z" fill="white"/>
<path d="M289.375 13.5H292.75V20.25H289.375V13.5Z" fill="white"/>
<path d="M333.25 13.5H336.625V20.25H333.25V13.5Z" fill="white"/>
<path d="M289.375 33.75H292.75V40.5H289.375V33.75Z" fill="white"/>
<path d="M333.25 33.75H336.625V40.5H333.25V33.75Z" fill="white"/>
<path d="M286 20.25H289.375V33.75H286V20.25Z" fill="white"/>
<path d="M336.625 20.25H340V33.75H336.625V20.25Z" fill="white"/>
<path d="M299.5 3.375H306.25V6.75H299.5V3.375Z" fill="white"/>
<path d="M319.75 3.375H326.5V6.75H319.75V3.375Z" fill="white"/>
<path d="M299.5 47.25H306.25V50.625H299.5V47.25Z" fill="white"/>
<path d="M319.75 47.25H326.5V50.625H319.75V47.25Z" fill="white"/>
<path d="M306.25 50.625H319.75V54H306.25V50.625Z" fill="white"/>
<path d="M306.25 0H319.75V3.375H306.25V0Z" fill="white"/>
<rect x="299.5" y="16.875" width="3.375" height="3.375" fill="#E99C00"/>
<rect x="323.125" y="16.875" width="3.375" height="3.375" fill="#E99C00"/>
<rect x="299.5" y="33.75" width="3.375" height="3.375" fill="#E99C00"/>
<rect x="296.125" y="20.25" width="3.375" height="13.5" fill="#E99C00"/>
<rect x="326.5" y="20.25" width="3.375" height="13.5" fill="#E99C00"/>
<rect x="323.125" y="33.75" width="3.375" height="3.375" fill="#E99C00"/>
<rect x="302.875" y="13.5" width="3.375" height="3.375" fill="#E99C00"/>
<rect x="319.75" y="13.5" width="3.375" height="3.375" fill="#E99C00"/>
<rect x="302.875" y="37.125" width="3.375" height="3.375" fill="#E99C00"/>
<rect x="319.75" y="37.125" width="3.375" height="3.375" fill="#E99C00"/>
<rect x="306.25" y="10.125" width="13.5" height="3.375" fill="#E99C00"/>
<rect x="306.25" y="40.5" width="13.5" height="3.375" fill="#E99C00"/>
<rect x="299.5" y="20.25" width="3.375" height="3.375" fill="white"/>
<rect x="302.875" y="16.875" width="3.375" height="3.375" fill="white"/>
<rect x="302.875" y="33.75" width="3.375" height="3.375" fill="white"/>
<rect x="299.5" y="37.125" width="3.375" height="3.375" fill="white"/>
<rect x="306.25" y="30.375" width="3.375" height="3.375" fill="white"/>
<rect x="309.625" y="27" width="3.375" height="3.375" fill="white"/>
<rect x="313" y="23.625" width="3.375" height="3.375" fill="white"/>
<rect x="316.375" y="20.25" width="3.375" height="3.375" fill="white"/>
<rect x="319.75" y="16.875" width="3.375" height="3.375" fill="white"/>
<rect x="323.125" y="13.5" width="3.375" height="3.375" fill="white"/>
<rect x="306.25" y="13.5" width="3.375" height="3.375" fill="white"/>
<rect x="260.44" y="222.53" width="3.12" height="31.7647" fill="#7F92A2"/>
<rect x="254.2" y="254.294" width="15.6" height="3.17646" fill="#7F92A2"/>
<rect x="257.32" y="219.353" width="3.12" height="3.17647" fill="#7F92A2"/>
<rect x="254.2" y="216.177" width="3.12" height="3.17647" fill="#7F92A2"/>
<rect x="238.6" y="213" width="15.6" height="3.17647" fill="#7F92A2"/>
<rect x="235.48" y="216.177" width="3.12" height="3.17647" fill="#7F92A2"/>
<rect x="232.36" y="219.353" width="3.12" height="3.17647" fill="#7F92A2"/>
<rect x="232.36" y="247.941" width="3.12" height="3.17647" fill="#7F92A2"/>
<rect x="288.52" y="247.941" width="3.12001" height="3.17647" fill="#7F92A2"/>
<rect x="254.2" y="247.941" width="3.12" height="3.17647" fill="#7F92A2"/>
<rect x="266.68" y="247.941" width="3.12" height="3.17647" fill="#7F92A2"/>
<rect x="257.32" y="251.118" width="3.12" height="3.17647" fill="#7F92A2"/>
<rect x="263.56" y="251.118" width="3.12" height="3.17647" fill="#7F92A2"/>
<rect x="229.24" y="254.294" width="6.24" height="3.17646" fill="#7F92A2"/>
<rect x="226.12" y="263.823" width="9.36" height="3.17647" fill="#7F92A2"/>
<rect x="288.52" y="263.823" width="9.36" height="3.17647" fill="#7F92A2"/>
<rect x="235.48" y="260.647" width="6.24" height="3.17648" fill="#7F92A2"/>
<rect x="282.28" y="260.647" width="6.24" height="3.17648" fill="#7F92A2"/>
<rect x="241.72" y="257.47" width="9.36" height="3.17647" fill="#7F92A2"/>
<rect x="272.92" y="257.47" width="9.36" height="3.17647" fill="#7F92A2"/>
<rect x="251.08" y="260.647" width="21.84" height="3.17648" fill="#7F92A2"/>
<rect x="288.52" y="254.294" width="6.24" height="3.17646" fill="#7F92A2"/>
<rect x="235.48" y="251.118" width="18.72" height="3.17647" fill="#7F92A2"/>
<rect x="269.8" y="251.118" width="18.72" height="3.17647" fill="#7F92A2"/>
<rect x="235.48" y="244.765" width="18.72" height="3.17647" fill="#7F92A2"/>
<rect x="269.8" y="244.765" width="18.72" height="3.17647" fill="#7F92A2"/>
<rect x="226.12" y="225.706" width="3.12" height="3.17647" fill="#7F92A2"/>
<rect x="223" y="228.882" width="3.12" height="34.9412" fill="#7F92A2"/>
<rect x="229.24" y="222.53" width="3.12" height="31.7647" fill="#7F92A2"/>
<rect x="263.56" y="219.353" width="3.12" height="3.17647" fill="#7F92A2"/>
<rect x="266.68" y="216.177" width="3.12" height="3.17647" fill="#7F92A2"/>
<rect x="285.4" y="216.177" width="3.12" height="3.17647" fill="#7F92A2"/>
<rect x="288.52" y="219.353" width="3.12001" height="3.17647" fill="#7F92A2"/>
<rect x="294.76" y="225.706" width="3.11999" height="3.17647" fill="#7F92A2"/>
<rect x="297.88" y="228.882" width="3.12" height="34.9412" fill="#7F92A2"/>
<rect x="291.64" y="222.53" width="3.12" height="31.7647" fill="#7F92A2"/>
<rect x="269.8" y="213" width="15.6" height="3.17647" fill="#7F92A2"/>
<path d="M260.44 222.529H263.56V254.294H260.44V222.529Z" fill="#E99C00"/>
<path d="M254.2 254.294H269.8V257.471H254.2V254.294Z" fill="#E99C00"/>
<path d="M257.32 219.353H260.44V222.529H257.32V219.353Z" fill="#E99C00"/>
<path d="M254.2 216.176H257.32V219.353H254.2V216.176Z" fill="#E99C00"/>
<path d="M238.6 213H254.2V216.176H238.6V213Z" fill="#E99C00"/>
<path d="M235.48 216.176H238.6V219.353H235.48V216.176Z" fill="#E99C00"/>
<path d="M232.36 219.353H235.48V222.529H232.36V219.353Z" fill="#E99C00"/>
<path d="M232.36 247.941H235.48V251.118H232.36V247.941Z" fill="#E99C00"/>
<path d="M288.52 247.941H291.64V251.118H288.52V247.941Z" fill="#E99C00"/>
<path d="M254.2 247.941H257.32V251.118H254.2V247.941Z" fill="#E99C00"/>
<path d="M266.68 247.941H269.8V251.118H266.68V247.941Z" fill="#E99C00"/>
<path d="M257.32 251.118H260.44V254.294H257.32V251.118Z" fill="#E99C00"/>
<path d="M263.56 251.118H266.68V254.294H263.56V251.118Z" fill="#E99C00"/>
<path d="M229.24 254.294H235.48V257.471H229.24V254.294Z" fill="#E99C00"/>
<path d="M226.12 263.824H235.48V267H226.12V263.824Z" fill="#E99C00"/>
<path d="M288.52 263.824H297.88V267H288.52V263.824Z" fill="#E99C00"/>
<path d="M235.48 260.647H241.72V263.824H235.48V260.647Z" fill="#E99C00"/>
<path d="M282.28 260.647H288.52V263.824H282.28V260.647Z" fill="#E99C00"/>
<path d="M241.72 257.471H251.08V260.647H241.72V257.471Z" fill="#E99C00"/>
<path d="M272.92 257.471H282.28V260.647H272.92V257.471Z" fill="#E99C00"/>
<path d="M251.08 260.647H272.92V263.824H251.08V260.647Z" fill="#E99C00"/>
<path d="M288.52 254.294H294.76V257.471H288.52V254.294Z" fill="#E99C00"/>
<path d="M235.48 251.118H254.2V254.294H235.48V251.118Z" fill="#E99C00"/>
<path d="M269.8 251.118H288.52V254.294H269.8V251.118Z" fill="#E99C00"/>
<path d="M235.48 244.765H254.2V247.941H235.48V244.765Z" fill="#E99C00"/>
<path d="M269.8 244.765H288.52V247.941H269.8V244.765Z" fill="#E99C00"/>
<path d="M226.12 225.706H229.24V228.882H226.12V225.706Z" fill="#E99C00"/>
<path d="M223 228.882H226.12V263.824H223V228.882Z" fill="#E99C00"/>
<path d="M229.24 222.529H232.36V254.294H229.24V222.529Z" fill="#E99C00"/>
<path d="M263.56 219.353H266.68V222.529H263.56V219.353Z" fill="#E99C00"/>
<path d="M266.68 216.176H269.8V219.353H266.68V216.176Z" fill="#E99C00"/>
<path d="M285.4 216.176H288.52V219.353H285.4V216.176Z" fill="#E99C00"/>
<path d="M288.52 219.353H291.64V222.529H288.52V219.353Z" fill="#E99C00"/>
<path d="M294.76 225.706H297.88V228.882H294.76V225.706Z" fill="#E99C00"/>
<path d="M297.88 228.882H301V263.824H297.88V228.882Z" fill="#E99C00"/>
<path d="M291.64 222.529H294.76V254.294H291.64V222.529Z" fill="#E99C00"/>
<path d="M269.8 213H285.4V216.176H269.8V213Z" fill="#E99C00"/>
<path d="M260.44 251.118V222.529H257.32V219.353H254.2V216.176H238.6V219.353H235.48V222.529H232.36V247.941H235.48V244.765H254.2V247.941H257.32V251.118H260.44Z" fill="#E99C00"/>
<path d="M235.48 247.941V251.118H254.2V247.941H235.48Z" fill="#E99C00"/>
<path d="M235.48 251.118H232.36V254.294H235.48V251.118Z" fill="#E99C00"/>
<path d="M254.2 254.294H257.32V251.118H254.2V254.294Z" fill="#E99C00"/>
<path d="M266.68 254.294H269.8V251.118H266.68V254.294Z" fill="#E99C00"/>
<path d="M288.52 251.118V247.941H269.8V251.118H288.52Z" fill="#E99C00"/>
<path d="M291.64 251.118H288.52V254.294H291.64V251.118Z" fill="#E99C00"/>
<path d="M263.56 222.529V251.118H266.68V247.941H269.8V244.765H288.52V247.941H291.64V222.529H288.52V219.353H285.4V216.176H269.8V219.353H266.68V222.529H263.56Z" fill="#E99C00"/>
<path d="M269.8 254.294V257.471H254.2V254.294H235.48V257.471H229.24V254.294V228.882H226.12V263.824H235.48V260.647H241.72V257.471H251.08V260.647H272.92V257.471H282.28V260.647H288.52V263.824H297.88V228.882H294.76V254.294V257.471H288.52V254.294H269.8Z" fill="#E99C00"/>
<path d="M260.44 222.529H263.56V254.294H260.44V222.529Z" fill="#FFD71D"/>
<path d="M254.2 254.294H269.8V257.471H254.2V254.294Z" fill="#FFD71D"/>
<path d="M257.32 219.353H260.44V222.529H257.32V219.353Z" fill="#FFD71D"/>
<path d="M254.2 216.176H257.32V219.353H254.2V216.176Z" fill="#FFD71D"/>
<path d="M238.6 213H254.2V216.176H238.6V213Z" fill="#FFD71D"/>
<path d="M235.48 216.176H238.6V219.353H235.48V216.176Z" fill="#FFD71D"/>
<path d="M232.36 219.353H235.48V222.529H232.36V219.353Z" fill="#FFD71D"/>
<path d="M232.36 247.941H235.48V251.118H232.36V247.941Z" fill="#FFD71D"/>
<path d="M288.52 247.941H291.64V251.118H288.52V247.941Z" fill="#FFD71D"/>
<path d="M254.2 247.941H257.32V251.118H254.2V247.941Z" fill="#FFD71D"/>
<path d="M266.68 247.941H269.8V251.118H266.68V247.941Z" fill="#FFD71D"/>
<path d="M257.32 251.118H260.44V254.294H257.32V251.118Z" fill="#FFD71D"/>
<path d="M263.56 251.118H266.68V254.294H263.56V251.118Z" fill="#FFD71D"/>
<path d="M229.24 254.294H235.48V257.471H229.24V254.294Z" fill="#FFD71D"/>
<path d="M226.12 263.824H235.48V267H226.12V263.824Z" fill="#FFD71D"/>
<path d="M288.52 263.824H297.88V267H288.52V263.824Z" fill="#FFD71D"/>
<path d="M235.48 260.647H241.72V263.824H235.48V260.647Z" fill="#FFD71D"/>
<path d="M282.28 260.647H288.52V263.824H282.28V260.647Z" fill="#FFD71D"/>
<path d="M241.72 257.471H251.08V260.647H241.72V257.471Z" fill="#FFD71D"/>
<path d="M272.92 257.471H282.28V260.647H272.92V257.471Z" fill="#FFD71D"/>
<path d="M251.08 260.647H272.92V263.824H251.08V260.647Z" fill="#FFD71D"/>
<path d="M288.52 254.294H294.76V257.471H288.52V254.294Z" fill="#FFD71D"/>
<path d="M235.48 251.118H254.2V254.294H235.48V251.118Z" fill="#FFD71D"/>
<path d="M269.8 251.118H288.52V254.294H269.8V251.118Z" fill="#FFD71D"/>
<path d="M235.48 244.765H254.2V247.941H235.48V244.765Z" fill="#FFD71D"/>
<path d="M269.8 244.765H288.52V247.941H269.8V244.765Z" fill="#FFD71D"/>
<path d="M226.12 225.706H229.24V228.882H226.12V225.706Z" fill="#FFD71D"/>
<path d="M223 228.882H226.12V263.824H223V228.882Z" fill="#FFD71D"/>
<path d="M229.24 222.529H232.36V254.294H229.24V222.529Z" fill="#FFD71D"/>
<path d="M263.56 219.353H266.68V222.529H263.56V219.353Z" fill="#FFD71D"/>
<path d="M266.68 216.176H269.8V219.353H266.68V216.176Z" fill="#FFD71D"/>
<path d="M285.4 216.176H288.52V219.353H285.4V216.176Z" fill="#FFD71D"/>
<path d="M288.52 219.353H291.64V222.529H288.52V219.353Z" fill="#FFD71D"/>
<path d="M294.76 225.706H297.88V228.882H294.76V225.706Z" fill="#FFD71D"/>
<path d="M297.88 228.882H301V263.824H297.88V228.882Z" fill="#FFD71D"/>
<path d="M291.64 222.529H294.76V254.294H291.64V222.529Z" fill="#FFD71D"/>
<path d="M269.8 213H285.4V216.176H269.8V213Z" fill="#FFD71D"/>
<path d="M260.44 251.118V222.529H257.32V219.353H254.2V216.176H238.6V219.353H235.48V222.529H232.36V247.941H235.48V244.765H254.2V247.941H257.32V251.118H260.44Z" fill="#FFD71D"/>
<path d="M235.48 247.941V251.118H254.2V247.941H235.48Z" fill="#FFD71D"/>
<path d="M235.48 251.118H232.36V254.294H235.48V251.118Z" fill="#FFD71D"/>
<path d="M254.2 254.294H257.32V251.118H254.2V254.294Z" fill="#FFD71D"/>
<path d="M266.68 254.294H269.8V251.118H266.68V254.294Z" fill="#FFD71D"/>
<path d="M288.52 251.118V247.941H269.8V251.118H288.52Z" fill="#FFD71D"/>
<path d="M291.64 251.118H288.52V254.294H291.64V251.118Z" fill="#FFD71D"/>
<path d="M263.56 222.529V251.118H266.68V247.941H269.8V244.765H288.52V247.941H291.64V222.529H288.52V219.353H285.4V216.176H269.8V219.353H266.68V222.529H263.56Z" fill="#FFD71D"/>
<path d="M260.44 222.529H263.56V254.294H260.44V222.529Z" fill="white"/>
<path d="M254.2 254.294H269.8V257.471H254.2V254.294Z" fill="white"/>
<path d="M257.32 219.353H260.44V222.529H257.32V219.353Z" fill="white"/>
<path d="M254.2 216.176H257.32V219.353H254.2V216.176Z" fill="white"/>
<path d="M238.6 213H254.2V216.176H238.6V213Z" fill="white"/>
<path d="M235.48 216.176H238.6V219.353H235.48V216.176Z" fill="white"/>
<path d="M232.36 219.353H235.48V222.529H232.36V219.353Z" fill="white"/>
<path d="M232.36 247.941H235.48V251.118H232.36V247.941Z" fill="white"/>
<path d="M288.52 247.941H291.64V251.118H288.52V247.941Z" fill="white"/>
<path d="M254.2 247.941H257.32V251.118H254.2V247.941Z" fill="white"/>
<path d="M266.68 247.941H269.8V251.118H266.68V247.941Z" fill="white"/>
<path d="M257.32 251.118H260.44V254.294H257.32V251.118Z" fill="white"/>
<path d="M263.56 251.118H266.68V254.294H263.56V251.118Z" fill="white"/>
<path d="M229.24 254.294H235.48V257.471H229.24V254.294Z" fill="white"/>
<path d="M226.12 263.824H235.48V267H226.12V263.824Z" fill="white"/>
<path d="M288.52 263.824H297.88V267H288.52V263.824Z" fill="white"/>
<path d="M235.48 260.647H241.72V263.824H235.48V260.647Z" fill="white"/>
<path d="M282.28 260.647H288.52V263.824H282.28V260.647Z" fill="white"/>
<path d="M241.72 257.471H251.08V260.647H241.72V257.471Z" fill="white"/>
<path d="M272.92 257.471H282.28V260.647H272.92V257.471Z" fill="white"/>
<path d="M251.08 260.647H272.92V263.824H251.08V260.647Z" fill="white"/>
<path d="M288.52 254.294H294.76V257.471H288.52V254.294Z" fill="white"/>
<path d="M235.48 251.118H254.2V254.294H235.48V251.118Z" fill="white"/>
<path d="M269.8 251.118H288.52V254.294H269.8V251.118Z" fill="white"/>
<path d="M235.48 244.765H254.2V247.941H235.48V244.765Z" fill="white"/>
<path d="M269.8 244.765H288.52V247.941H269.8V244.765Z" fill="white"/>
<path d="M226.12 225.706H229.24V228.882H226.12V225.706Z" fill="white"/>
<path d="M223 228.882H226.12V263.824H223V228.882Z" fill="white"/>
<path d="M229.24 222.529H232.36V254.294H229.24V222.529Z" fill="white"/>
<path d="M263.56 219.353H266.68V222.529H263.56V219.353Z" fill="white"/>
<path d="M266.68 216.176H269.8V219.353H266.68V216.176Z" fill="white"/>
<path d="M285.4 216.176H288.52V219.353H285.4V216.176Z" fill="white"/>
<path d="M288.52 219.353H291.64V222.529H288.52V219.353Z" fill="white"/>
<path d="M294.76 225.706H297.88V228.882H294.76V225.706Z" fill="white"/>
<path d="M297.88 228.882H301V263.824H297.88V228.882Z" fill="white"/>
<path d="M291.64 222.529H294.76V254.294H291.64V222.529Z" fill="white"/>
<path d="M269.8 213H285.4V216.176H269.8V213Z" fill="white"/>
<rect x="247.96" y="231.423" width="3.12" height="3.17647" fill="white"/>
<rect x="247.96" y="221.894" width="3.12" height="3.17647" fill="white"/>
<rect x="241.72" y="231.423" width="3.12" height="3.17647" fill="white"/>
<rect x="235.48" y="234.6" width="3.12" height="3.17647" fill="white"/>
<rect x="235.48" y="225.071" width="3.12" height="3.17647" fill="white"/>
<rect x="241.72" y="221.894" width="3.12" height="3.17647" fill="white"/>
<rect x="254.2" y="234.6" width="3.12" height="3.17647" fill="white"/>
<rect x="254.2" y="225.071" width="3.12" height="3.17647" fill="white"/>
<rect x="279.16" y="231.423" width="3.12" height="3.17647" fill="white"/>
<rect x="279.16" y="221.894" width="3.12" height="3.17647" fill="white"/>
<rect x="272.92" y="231.423" width="3.12001" height="3.17647" fill="white"/>
<rect x="266.68" y="234.6" width="3.12" height="3.17647" fill="white"/>
<rect x="266.68" y="225.071" width="3.12" height="3.17647" fill="white"/>
<rect x="272.92" y="221.894" width="3.12001" height="3.17647" fill="white"/>
<rect x="285.4" y="234.6" width="3.12001" height="3.17647" fill="white"/>
<rect x="285.4" y="225.071" width="3.12001" height="3.17647" fill="white"/>
<path d="M379.188 116.189V112.347H243.977V136.214H249.27V146.853H256.254V153.651H265.224V158.648H283.618V149.134H292.497V160.233H302.645H311.842V149.134H326.747V157.062H335.627V163.722H345.458V149.134H359.094V153.651H373.26V143.048H382.879V120.992V116.189H379.188Z" fill="#151720"/>
<path d="M341.813 140.268H334.845V144.518H316.265H310.071V149.657H302.33V146.643H295.362V134.782H282.201V149.657H275.233V155.324H270.588V152.491H262.072V147.532H255.879V141.866H249.685V102.199H341.813V119.007H359.572V119.958H383.196V130.106H376.854V139.937H365.12V133.278H359.572V136.907H350.693V145.407H341.813V140.268Z" fill="#1A1C29"/>
<path d="M345.61 136.263V137.471H325.512V135.056H314.346V137.471H305.414V141.862H287.549V130.226H275.267V140.252H266.334V130.226H261.663V135.056H257.402V137.471H245.12V131.434H239.537V129.019V111.713H345.61V113.616H374.634V125.667H359.411V123.447H352.752V130.226H345.61V136.263Z" fill="#202333"/>
<path d="M283.301 122.682V118.652V82.5371H376.578V90.1979H383.424V97.8587H388.849V133.974H385.136H380.857V125.219H371.444V130.741H366.309V118.652H347.482V125.219H332.935V118.652H327.77V133.34H319.243V128.502H312.396V135.815H306.406V128.502H300.416V118.652H295.221V122.682H283.301Z" fill="#38A3A5"/>
<path d="M290.551 127.121V120.555V84.4397H250.173V92.1005H242.646V99.7613H237V135.877H240.764H245.469V132.195H255.819V140.254H264.002V120.555H282.166V127.121H290.551Z" fill="#38A3A5"/>
<path d="M340.751 110.78H346.092V80H250.82V86.5291H243.877V93.0582H238.903V123.838H242.141H246.481V116.376H256.028H261.235V110.78H269.03V114.101H285.204V110.78H293.015V118.913H302.696V110.78H307.97V123.838H319.12V119.175H323.526V125.032H329.601V119.175H340.751V110.78Z" fill="#57CC99"/>
<path d="M328.333 116.376V110.78V80H369.864V86.5291H377.175V93.0582H382.658V123.838H379.002H374.433V116.376H366.918V122.495H361.435V110.78H343.868V116.376H328.333Z" fill="#57CC99"/>
<path d="M266.731 100.93H290.278V80H253.887V84.4398H245.325V88.8796H238.903V109.81H243.184H248.536V104.736H260.309V112.347H266.731V100.93Z" fill="#80ED99"/>
<path d="M268.079 106.639V100.93V80H364.519V84.4398H372.948V88.8796H379.073V109.81H375.055H369.787V104.736H358.198V112.347H351.877V100.93H328.699V104.736H310.788V100.93H301.306V109.81H293.931V106.639H285.503V112.347H278.128V106.639H268.079Z" fill="#80ED99"/>
<path d="M99.2563 178.262V175.58H4.87012V192.241H8.56544V199.668H13.4406V204.412H19.7023V207.901H32.542V201.26H38.7405V209.008H45.8245H52.2444V201.26H62.6491V206.794H68.8476V211.443H75.7102V201.26H85.2293V204.412H95.1182V197.011H101.832V181.615V178.262H99.2563Z" fill="#151720"/>
<path d="M73.1659 195.071H68.302V198.038H55.3317H51.0083V201.625H45.6041V199.521H40.7402V191.241H31.5529V201.625H26.6891V205.581H23.4465V203.603H17.5018V200.142H13.1784V196.186H8.85498V168.496H73.1659V180.229H85.5629V180.893H102.054V187.977H97.6265V194.84H89.4356V190.191H85.5629V192.725H79.3644V198.658H73.1659V195.071Z" fill="#1A1C29"/>
<path d="M75.8164 192.275V193.118H61.7868V191.432H53.9925V193.118H47.7571V196.183H35.2863V188.061H26.7126V195.06H20.4772V188.061H17.2165V191.432H14.2418V193.118H5.66812V188.904H1.771V187.218V175.137H75.8164V176.466H96.0769V184.878H85.4508V183.328H80.802V188.061H75.8164V192.275Z" fill="#202333"/>
<path d="M32.3208 182.795V179.982V154.771H97.4342V160.119H102.213V165.466H106V190.677H103.408H100.421V184.566H93.85V188.42H90.2658V179.982H77.1236V184.566H66.9683V179.982H63.363V190.234H57.4104V186.857H52.6314V191.962H48.4498V186.857H44.2682V179.982H40.6418V182.795H32.3208Z" fill="#38A3A5"/>
<path d="M37.3818 185.894V181.31V156.099H9.19581V161.447H3.94106V166.795H0V192.005H2.62737H5.91159V189.436H13.1369V195.061H18.8489V181.31H31.5285V185.894H37.3818Z" fill="#38A3A5"/>
<path d="M72.4248 174.486H76.1532V153H9.64742V157.558H4.80047V162.115H1.32837V183.602H3.58873H6.61808V178.393H13.2826H16.9179V174.486H22.359V176.804H33.6492V174.486H39.102V180.164H45.8598V174.486H49.5416V183.602H57.3247V180.346H60.4006V184.435H64.6417V180.346H72.4248V174.486Z" fill="#57CC99"/>
<path d="M63.7561 178.393V174.486V153H92.7475V157.558H97.8508V162.115H101.678V183.602H99.1266H95.937V178.393H90.691V182.664H86.8636V174.486H74.6005V178.393H63.7561Z" fill="#57CC99"/>
<path d="M20.754 167.611H37.1912V153H11.7884V156.099H5.81122V159.199H1.32837V173.809H4.31694H8.05264V170.267H16.2712V175.58H20.754V167.611Z" fill="#80ED99"/>
<path d="M21.6949 171.596V167.611V153H89.0167V156.099H94.9002V159.199H99.1763V173.809H96.3711H92.6939V170.267H84.604V175.58H80.1913V167.611H64.0115V170.267H51.5089V167.611H44.8899V173.809H39.7418V171.596H33.8582V175.58H28.7101V171.596H21.6949Z" fill="#80ED99"/>
</svg>
