<svg width="16" height="13" viewBox="0 0 16 13" fill="none" xmlns="http://www.w3.org/2000/svg">
<path d="M14.3553 3.23944C14.3655 3.38162 14.3655 3.52383 14.3655 3.66601C14.3655 8.00271 11.066 12.9996 5.03553 12.9996C3.17766 12.9996 1.45178 12.4613 0 11.527C0.263969 11.5574 0.51775 11.5676 0.791875 11.5676C2.32484 11.5676 3.73603 11.0496 4.86294 10.166C3.42131 10.1355 2.21319 9.19102 1.79694 7.89101C2 7.92146 2.20303 7.94178 2.41625 7.94178C2.71066 7.94178 3.00509 7.90114 3.27919 7.83008C1.77666 7.52536 0.649719 6.20507 0.649719 4.61054V4.56992C1.08625 4.81368 1.59391 4.96602 2.13194 4.98631C1.24869 4.39723 0.670031 3.39178 0.670031 2.25427C0.670031 1.6449 0.832438 1.08631 1.11672 0.598807C2.73094 2.58943 5.15734 3.88941 7.87813 4.03162C7.82738 3.78787 7.79691 3.53399 7.79691 3.28008C7.79691 1.47224 9.25884 -0.000396729 11.0761 -0.000396729C12.0203 -0.000396729 12.873 0.395696 13.472 1.03554C14.2131 0.89336 14.9238 0.619127 15.5533 0.243355C15.3096 1.00509 14.7918 1.64494 14.1116 2.05116C14.7715 1.9801 15.4111 1.79725 15.9999 1.54336C15.5533 2.19334 14.9949 2.77222 14.3553 3.23944Z" fill="#F6BF11"/>
</svg>
