<svg width="16" height="13" viewBox="0 0 16 13" fill="none" xmlns="http://www.w3.org/2000/svg">
<path d="M14.3553 3.23934C14.3655 3.38152 14.3655 3.52374 14.3655 3.66592C14.3655 8.00262 11.066 12.9995 5.03553 12.9995C3.17766 12.9995 1.45178 12.4612 0 11.5269C0.263969 11.5573 0.51775 11.5675 0.791875 11.5675C2.32484 11.5675 3.73603 11.0495 4.86294 10.1659C3.42131 10.1355 2.21319 9.19093 1.79694 7.89092C2 7.92137 2.20303 7.94169 2.41625 7.94169C2.71066 7.94169 3.00509 7.90104 3.27919 7.82999C1.77666 7.52527 0.649719 6.20497 0.649719 4.61044V4.56983C1.08625 4.81359 1.59391 4.96593 2.13194 4.98622C1.24869 4.39714 0.670031 3.39168 0.670031 2.25418C0.670031 1.64481 0.832438 1.08622 1.11672 0.598715C2.73094 2.58934 5.15734 3.88932 7.87813 4.03153C7.82738 3.78778 7.79691 3.5339 7.79691 3.27998C7.79691 1.47215 9.25884 -0.000488281 11.0761 -0.000488281C12.0202 -0.000488281 12.873 0.395604 13.472 1.03545C14.2131 0.893268 14.9238 0.619036 15.5533 0.243263C15.3096 1.005 14.7918 1.64484 14.1116 2.05107C14.7715 1.98001 15.4111 1.79715 15.9999 1.54327C15.5533 2.19325 14.9949 2.77213 14.3553 3.23934V3.23934Z" fill="#F7F7F7"/>
</svg>
